<?xml version="1.0" encoding="utf-8"?>
<!-- Generator: Adobe Illustrator 25.2.3, SVG Export Plug-In . SVG Version: 6.00 Build 0)  -->
<svg version="1.1" id="Livello_1" xmlns="http://www.w3.org/2000/svg" xmlns:xlink="http://www.w3.org/1999/xlink" x="0px" y="0px"
	 viewBox="0 0 808.2 590.1" style="enable-background:new 0 0 808.2 590.1;" xml:space="preserve">
<style type="text/css">
	.st0{fill:#FFFFFF;stroke:#E0E0E0;stroke-width:1.4129;stroke-miterlimit:10;}
	.st1{fill:#FCA73D;}
	.st2{fill:#AFAEAE;}
	.st3{fill:#FBCDAD;}
	.st4{fill:#CEC5E1;}
	.st5{fill:#B18FB7;}
	.st6{fill:none;}
	.st7{fill:#E7D47A;}
	.st8{fill:#EEC3A9;}
	.st9{fill:#F3E0E5;}
	.st10{fill:#FAC6A5;}
	.st11{fill:#43392E;}
	.st12{fill:#ADC3CA;}
	.st13{fill:#D9E6E0;}
	.st14{fill:#66554A;}
	.st15{fill:#A35E33;}
	.st16{fill:#F9DCCA;}
	.st17{fill:#8D5537;}
	.st18{fill:#9C6E48;}
	.st19{fill:#765338;}
	.st20{fill:#D3E9EC;}
	.st21{fill:#A09991;}
	.st22{fill:#D7C4A3;}
	.st23{fill:#FFFFFF;}
	.st24{fill:#A28974;}
	.st25{fill:#ADD9D4;}
	.st26{fill:#A1CAC6;}
	.st27{opacity:0.2;fill:url(#SVGID_1_);}
	.st28{fill:#1B3D75;}
	.st29{fill:#321F16;}
	.st30{fill:#483023;}
	.st31{fill:#44352C;}
	.st32{opacity:0.7;fill:#AB866B;}
	.st33{fill:#84BCB3;}
	.st34{opacity:0.5;fill:#AB866B;}
	.st35{fill:#ACC7CA;}
	.st36{fill:#E2C8D0;}
	.st37{fill:#CDBC81;}
	.st38{fill:#C1664B;}
	.st39{fill:#7A7053;}
	.st40{fill:#DC917D;}
	.st41{fill:#D77F60;}
	.st42{fill:#8C7057;}
	.st43{fill:#6B4D40;}
	.st44{fill:#F9F9F9;}
	.st45{fill:#725B4A;}
	.st46{fill:#675343;}
	.st47{fill:#FFFDFD;}
</style>
<g>
	<g id="Livello_9">
		<g>
			<path class="st0" d="M646.4,107.6c-0.1-7.5-0.4-15.3-4-22c-5.9-10.9-19.1-15.2-31.3-17.6c-25.3-4.9-51.2-5.7-76.9-4.5
				c-0.1,0-0.4,0-0.5,0c-15.8,0.7-31.5,2-47.2,4c-10,1.3-20.5,3-28.7,8.8c-8.2,5.9-10.2,15.1-9.1,26.4c-1.6,22-1,40.1,12.9,56.4
				c1.2,1.4,2.5,2.8,3.8,4c7.8,7.1,17.9,10.7,28,13.8c16.4,5,33.1,8.8,50.1,11.3c2.5,13.6,6.4,22.5,13,34.7c0.3,0.4,0.6,1,1.1,1.1
				c0.8,0.1,1.3-0.8,1.6-1.6c3.8-10.5,7.7-20.9,11.5-31.4c3.6,0.4,6.4,0.6,7,0.6c14.6,0.7,30.1,0.4,42.5-7.3
				c12.2-7.4,19.7-20.8,23.1-34.5C646.9,136.3,646.7,121.9,646.4,107.6z"/>
		</g>
		<g>
			<path class="st0" d="M319.4,82.2c-0.2-10.9-1.1-22.2-6.6-31.6c-3.5-6-8.3-10.6-14.1-14.1C286,28.6,269,26,253.6,24.8
				c-34.7-2.8-69.5-3.6-104.3-2.5c-6.9,0.2-13.9,0.6-20.3,2.7l0,0c-8.1,2.5-22.7,4.8-24.9,13s-1.6,16.8-0.7,25.3
				c1.8,16.7,4.5,33.5,11.1,49c0.1,0.1,0.1,0.3,0.1,0.4c0.9,2.1,1.9,4.3,3,6.4c6.5,12.4,15.8,23.5,28,30.4c0.3,0.1,0.6,0.4,0.8,0.5
				c8.9,4.9,18.9,7.3,28.9,9c0.6,0.1,1.1,0.2,1.6,0.3c9.2,1.5,18.5,2.5,27.8,2.9c3.8,6.8,7.6,13.6,11.4,20.3c2.3,4,4.5,8.1,6.9,12.2
				c0.8-2,1.7-4.2,2.5-6.2c3.2-8.6,5.4-17.5,6.5-26.4c23.2-1.6,46.3-6.4,68.2-14.4c4.8-1.8,9.7-3.9,12.8-8c2.6-3.6,3.3-8.1,3.9-12.6
				c0.1-0.8,0.2-1.6,0.3-2.4l0,0C318.9,110.5,319.6,96.4,319.4,82.2z"/>
		</g>
		<g>
			<path class="st0" d="M505.7,36.7c-0.4-2.5-0.9-4.9-1.4-7.3c-0.8-4-1.8-8.1-4.3-11.4C494.1,10,482,7.2,470.8,5.6
				c-29.4-4.5-61.7-6.3-91.4-3.6c-20.9,0.6-41.7,4.7-60.6,11.9c-5.1,1.9-10.2,4.2-13.7,7.8c-4.6,4.7-5.8,10.8-6.6,16.7
				c-3.2,25.1,0.1,50.8,9.5,74.9c1.6,4,3.5,8.3,7.8,10.6c3.7,2,8.3,2.2,12.6,2.3c20.3,0.6,40.8,0.5,61.1-0.2c0.2,0,0.5,0,0.7-0.1
				c3,5.6,3.3,12.4,6.4,17.7c0.5,0.8,1.3,1.8,2.4,1.6c0.6-0.1,0.9-0.7,1.2-1.2c2.8-5.7,7.3-13.4,10-19.3c13.6-0.8,29.2-1.9,37-2.7
				c8.5-0.8,16.9-1.8,25.3-2.9c9.6-1.3,19.9-2.9,26.8-8.4c8.6-6.9,9.9-17.6,10-27.3C509.6,67.7,508.3,52.1,505.7,36.7z"/>
		</g>
		<g>
			<path class="st0" d="M145.8,149.5c0-0.1,0-0.1-0.1-0.1c-3-12.2-10.6-23.8-22-28.6l1-1.8c-2.3,0-4.7,0-6.9,0.1
				c-9,0.1-17.9,0.2-26.9,0.5c-16.1,0.5-32.2,1.2-48.3,2.3c-12.8,0.8-27.1,2.7-34.8,12.9c-4.5,6-5.7,13.7-6.3,21.1
				c-1.4,15.7-1,31.6,1.2,47.2c0.6,4.5,1.5,9.2,4.1,12.9c4.8,7,14.1,9,22.4,10.2c11.7,1.7,23.5,2.8,35.3,3.4
				c2.7,8.5,6.1,16.8,10.4,24.7c1.3-8.3,3.5-16.5,6.6-24.2c8.3,0.1,16.7-0.1,24.9-0.7c10.6-0.6,22-2.1,29.6-9.5
				c8.1-7.8,9.6-20.1,10.7-31.4c0.6-5.9,1.1-11.9,1.2-17.9C147.8,163.4,147.4,156.3,145.8,149.5z"/>
		</g>
		<g>
			<path class="st0" d="M781.9,121.4c-0.6-7.4-1.7-15.2-6.1-21.2c-7.6-10.3-21.9-12.4-34.7-13.3c-16.1-1.2-32.1-2.1-48.3-2.8
				c-11.3-0.4-22.5-0.7-33.8-0.8l1,1.8c-5.7,2.3-10.5,6.4-14.2,11.3c-3.8,5.1-6.6,11.1-8.1,17.2c-1.8,6.9-2.3,13.9-2.1,21.1
				c0.1,6,0.6,11.9,1.1,17.9c0.4,4,0.7,8.3,1.4,12.3l0,0c1.3,7.3,3.7,14.1,8.9,19.2c7.6,7.4,18.9,9,29.5,9.7
				c8.3,0.6,16.6,0.9,24.9,0.9c3,7.8,5.1,16,6.3,24.3c4.3-7.8,7.8-16.1,10.6-24.6c11.8-0.5,23.6-1.5,35.3-3c8.3-1.1,17.6-3,22.5-10
				c2.6-3.7,3.5-8.3,4.2-12.9C782.6,152.9,783.1,137,781.9,121.4z"/>
		</g>
		<g>
			<path class="st1" d="M44.3,200c-1.5-0.1-2.9-0.2-4.4-0.3c-0.8-1.3-1.6-2.6-2.3-4c-0.5-0.8-2.1-0.8-2.5,0.1
				c-0.6,1.5-1.2,2.9-1.8,4.3c-1.4,0.3-2.9,0.7-4.3,1c-0.8,0.1-1.6,1-0.7,1.7c0.6,0.6,1.3,1.1,2,1.7c0.3,0.2,1.1,1,1.6,1.3
				c0,0.2,0,0.5,0,0.6c-0.1,0.5-0.1,1.1-0.1,1.6c-0.1,0.8-0.1,1.7-0.3,2.6c-0.1,1.1,1.6,1.3,2.3,0.9c1.2-0.8,2.5-1.5,3.7-2.3
				c1.3,0.6,2.6,1.1,3.9,1.7c0.1,0.1,0.3,0.1,0.5,0.1c0.8,0.1,1.8-0.3,1.6-1.2c-0.2-0.8-0.4-1.7-0.6-2.5c-0.1-0.4-0.3-1.6-0.5-2.1
				c0.4-0.3,1.2-1.3,1.5-1.6c0.6-0.6,1.1-1.3,1.7-2C46,200.8,45,200,44.3,200z"/>
			<path class="st1" d="M62.2,200c-1.5-0.1-2.9-0.2-4.4-0.3c-0.8-1.3-1.6-2.6-2.3-4c-0.5-0.8-2.1-0.8-2.5,0.1
				c-0.6,1.5-1.2,2.9-1.8,4.3c-1.4,0.3-2.9,0.7-4.3,1c-0.8,0.1-1.6,1-0.7,1.7c0.6,0.6,1.3,1.1,2,1.7c0.3,0.2,1.1,1,1.6,1.3
				c0,0.2,0,0.5,0,0.6c-0.1,0.5-0.1,1.1-0.1,1.6c-0.1,0.8-0.1,1.7-0.3,2.6c-0.1,1.1,1.6,1.3,2.3,0.9c1.2-0.8,2.5-1.5,3.7-2.3
				c1.3,0.6,2.6,1.1,3.9,1.7c0.1,0.1,0.3,0.1,0.5,0.1c0.8,0.1,1.8-0.3,1.6-1.2c-0.2-0.8-0.4-1.7-0.6-2.5c-0.1-0.4-0.3-1.6-0.5-2.1
				c0.4-0.3,1.2-1.3,1.5-1.6c0.6-0.6,1.1-1.3,1.7-2C64,200.8,63,200,62.2,200z"/>
			<path class="st1" d="M80.5,200c-1.5-0.1-2.9-0.2-4.4-0.3c-0.8-1.3-1.6-2.6-2.3-4c-0.5-0.8-2.1-0.8-2.5,0.1
				c-0.6,1.5-1.2,2.9-1.8,4.3c-1.4,0.3-2.9,0.7-4.3,1c-0.8,0.1-1.6,1-0.7,1.7c0.6,0.6,1.3,1.1,2,1.7c0.3,0.2,1.1,1,1.6,1.3
				c0,0.2,0,0.5,0,0.6c-0.1,0.5-0.1,1.1-0.1,1.6c-0.1,0.8-0.1,1.7-0.3,2.6c-0.1,1.1,1.6,1.3,2.3,0.9c1.2-0.8,2.5-1.5,3.7-2.3
				c1.3,0.6,2.6,1.1,3.9,1.7c0.1,0.1,0.3,0.1,0.5,0.1c0.8,0.1,1.8-0.3,1.6-1.2c-0.2-0.8-0.4-1.7-0.6-2.5c-0.1-0.4-0.3-1.6-0.5-2.1
				c0.4-0.3,1.2-1.3,1.5-1.6c0.6-0.6,1.1-1.3,1.7-2C82.3,200.8,81.3,200,80.5,200z"/>
			<path class="st1" d="M98.8,200c-1.5-0.1-2.9-0.2-4.4-0.3c-0.8-1.3-1.6-2.6-2.3-4c-0.5-0.8-2.1-0.8-2.5,0.1
				c-0.6,1.5-1.2,2.9-1.8,4.3c-1.4,0.3-2.9,0.7-4.3,1c-0.8,0.1-1.6,1-0.7,1.7c0.6,0.6,1.3,1.1,2,1.7c0.3,0.2,1.1,1,1.6,1.3
				c0,0.2,0,0.5,0,0.6c-0.1,0.5-0.1,1.1-0.1,1.6c-0.1,0.8-0.1,1.7-0.3,2.6c-0.1,1.1,1.6,1.3,2.3,0.9c1.2-0.8,2.5-1.5,3.7-2.3
				c1.3,0.6,2.6,1.1,3.9,1.7c0.1,0,0.2,0.1,0.3,0.1c0.9,0.2,2-0.2,1.8-1.1c-0.2-0.8-0.4-1.7-0.6-2.5c-0.1-0.4-0.3-1.6-0.5-2.1
				c0.4-0.3,1.2-1.3,1.5-1.6c0.6-0.6,1.1-1.3,1.7-2C100.6,200.8,99.6,200,98.8,200z"/>
			<path class="st1" d="M118.1,201.3c-1.5-0.3-3-0.6-4.4-0.9c-0.6-1.4-1.2-2.8-1.8-4.2c-0.4-1.1-2-1.2-2.6-0.1
				c-0.7,1.3-1.5,2.6-2.2,3.9c-1.5,0.1-3,0.3-4.5,0.4c-0.9,0.1-1.3,1-0.7,1.7c0.6,0.6,1.2,1.3,1.8,1.9c0.4,0.4,0.7,0.8,1.1,1.1
				c0.1,0.1,0.2,0.2,0.3,0.3c-0.1,0.3-0.1,0.6-0.1,0.7c-0.2,0.5-0.2,1.1-0.4,1.6c-0.2,0.8-0.4,1.7-0.6,2.5c-0.2,0.9,1.3,1.3,2,1.1
				c0.8-0.4,1.6-0.7,2.4-1.1c0.3-0.2,1.2-0.5,1.8-0.7c0.1,0,0.1,0.1,0.2,0.1c0.4,0.4,0.9,0.6,1.3,0.8c0.5,0.3,1,0.6,1.5,0.9
				c0.4,1,2.7,0.7,2.6-0.6c0,0,0,0,0,0c0-0.1,0-0.2,0-0.2c-0.2-1.4-0.3-2.9-0.5-4.3c1.2-1,2.3-2,3.5-3
				C119.3,202.5,119.1,201.5,118.1,201.3z"/>
			<path class="st1" d="M191.3,124.9c-1.5-0.1-2.9-0.2-4.4-0.3c-0.8-1.3-1.6-2.6-2.3-4c-0.5-0.8-2.1-0.8-2.5,0.1
				c-0.6,1.5-1.2,2.9-1.8,4.3c-1.4,0.3-2.9,0.7-4.3,1c-0.8,0.1-1.6,1-0.7,1.7c0.6,0.6,1.3,1.1,2,1.7c0.3,0.2,1.1,1,1.6,1.3
				c0,0.2,0,0.5,0,0.6c-0.1,0.5-0.1,1.1-0.1,1.6c-0.1,0.8-0.1,1.7-0.3,2.6c-0.1,1.1,1.6,1.3,2.3,0.9c1.2-0.8,2.5-1.5,3.7-2.3
				c1.3,0.6,2.6,1.1,3.9,1.7c0.1,0,0.2,0.1,0.3,0.1c0.9,0.2,2-0.2,1.7-1.1c-0.2-0.8-0.4-1.7-0.6-2.5c-0.1-0.4-0.3-1.6-0.5-2.1
				c0.4-0.3,1.2-1.3,1.5-1.6c0.6-0.6,1.1-1.3,1.7-2C193.1,125.7,192.1,124.9,191.3,124.9z"/>
			<path class="st1" d="M209.3,124.9c-1.5-0.1-2.9-0.2-4.4-0.3c-0.8-1.3-1.6-2.6-2.3-4c-0.5-0.8-2.1-0.8-2.5,0.1
				c-0.6,1.5-1.2,2.9-1.8,4.3c-1.4,0.3-2.9,0.7-4.3,1c-0.8,0.1-1.6,1-0.7,1.7c0.6,0.6,1.3,1.1,2,1.7c0.3,0.2,1.1,1,1.6,1.3
				c0,0.2,0,0.5,0,0.6c-0.1,0.5-0.1,1.1-0.1,1.6c-0.1,0.8-0.1,1.7-0.3,2.6c-0.1,1.1,1.6,1.3,2.3,0.9c1.2-0.8,2.5-1.5,3.7-2.3
				c1.3,0.6,2.6,1.1,3.9,1.7c0.1,0,0.2,0.1,0.3,0.1c0.9,0.2,2-0.2,1.7-1.1c-0.2-0.8-0.4-1.7-0.6-2.5c-0.1-0.4-0.3-1.6-0.5-2.1
				c0.4-0.3,1.2-1.3,1.5-1.6c0.6-0.6,1.1-1.3,1.7-2C211.1,125.7,210.1,124.9,209.3,124.9z"/>
			<path class="st1" d="M227.5,124.9c-1.5-0.1-2.9-0.2-4.4-0.3c-0.8-1.3-1.6-2.6-2.3-4c-0.5-0.8-2.1-0.8-2.5,0.1
				c-0.6,1.5-1.2,2.9-1.8,4.3c-1.4,0.3-2.9,0.7-4.3,1c-0.8,0.1-1.6,1-0.7,1.7c0.6,0.6,1.3,1.1,2,1.7c0.3,0.2,1.1,1,1.6,1.3
				c0,0.2,0,0.5,0,0.6c-0.1,0.5-0.1,1.1-0.1,1.6c-0.1,0.8-0.1,1.7-0.3,2.6c-0.1,1.1,1.6,1.3,2.3,0.9c1.2-0.8,2.5-1.5,3.7-2.3
				c1.3,0.6,2.6,1.1,3.9,1.7c0.1,0,0.2,0.1,0.3,0.1c0.9,0.2,2-0.2,1.7-1.1c-0.2-0.8-0.4-1.7-0.6-2.5c-0.1-0.4-0.3-1.6-0.5-2.1
				c0.4-0.3,1.2-1.3,1.5-1.6c0.6-0.6,1.1-1.3,1.7-2C229.3,125.7,228.3,124.9,227.5,124.9z"/>
			<path class="st1" d="M245.9,124.9c-1.5-0.1-2.9-0.2-4.4-0.3c-0.8-1.3-1.6-2.6-2.3-4c-0.5-0.8-2.1-0.8-2.5,0.1
				c-0.6,1.5-1.2,2.9-1.8,4.3c-1.4,0.3-2.9,0.7-4.3,1c-0.8,0.1-1.6,1-0.7,1.7c0.6,0.6,1.3,1.1,2,1.7c0.3,0.2,1.1,1,1.6,1.3
				c0,0.2,0,0.5,0,0.6c-0.1,0.5-0.1,1.1-0.1,1.6c-0.1,0.8-0.1,1.7-0.3,2.6c-0.1,1.1,1.6,1.3,2.3,0.9c1.2-0.8,2.5-1.5,3.7-2.3
				c1.3,0.6,2.6,1.1,3.9,1.7c0.1,0,0.2,0.1,0.3,0.1c0.9,0.2,2-0.2,1.7-1.1c-0.2-0.8-0.4-1.7-0.6-2.5c-0.1-0.4-0.3-1.6-0.5-2.1
				c0.4-0.3,1.2-1.3,1.5-1.6c0.6-0.6,1.1-1.3,1.7-2C247.7,125.7,246.7,124.9,245.9,124.9z"/>
			<path class="st1" d="M265.1,126.2c-1.5-0.3-3-0.6-4.4-0.9c-0.6-1.4-1.2-2.8-1.8-4.2c-0.4-1.1-2-1.2-2.6-0.1
				c-0.7,1.3-1.5,2.6-2.2,3.9c-1.5,0.1-3,0.3-4.5,0.4c-0.9,0.1-1.3,1-0.7,1.7c0.6,0.6,1.2,1.3,1.8,1.9c0.4,0.4,0.7,0.8,1.1,1.1
				c0.1,0.1,0.2,0.2,0.3,0.3c-0.1,0.3-0.1,0.6-0.1,0.7c-0.2,0.5-0.2,1.1-0.4,1.6c-0.2,0.8-0.4,1.7-0.6,2.5c-0.2,0.9,1.3,1.3,2,1.1
				c0.8-0.4,1.6-0.7,2.4-1.1c0.3-0.2,1.2-0.5,1.8-0.7c0.1,0,0.1,0.1,0.2,0.1c0.4,0.4,0.9,0.6,1.3,0.8c0.5,0.3,1,0.6,1.5,0.9
				c0.4,0.9,2.3,0.8,2.6-0.2c0.1-0.2,0.1-0.5,0-0.7c-0.2-1.4-0.3-2.8-0.5-4.3c1.2-1,2.3-2,3.5-3
				C266.3,127.4,266.1,126.4,265.1,126.2z"/>
			<path class="st1" d="M374.1,95.8c-1.5-0.1-2.9-0.2-4.4-0.3c-0.8-1.3-1.6-2.6-2.3-4c-0.5-0.8-2.1-0.8-2.5,0.1
				c-0.6,1.5-1.2,2.9-1.8,4.3c-1.4,0.3-2.9,0.7-4.3,1c-0.8,0.1-1.6,1-0.7,1.7c0.6,0.6,1.3,1.1,2,1.7c0.3,0.2,1.1,1,1.6,1.3
				c0,0.2,0,0.5,0,0.6c-0.1,0.5-0.1,1.1-0.1,1.6c-0.1,0.8-0.1,1.7-0.3,2.6c-0.1,1.1,1.6,1.3,2.3,0.9c1.2-0.8,2.5-1.5,3.7-2.3
				c1.3,0.6,2.6,1.1,3.9,1.7c0.2,0.1,0.3,0.1,0.5,0.1c0.8,0.1,1.8-0.3,1.6-1.2c-0.2-0.8-0.4-1.7-0.6-2.5c-0.1-0.4-0.3-1.6-0.5-2.1
				c0.4-0.3,1.2-1.3,1.5-1.6c0.6-0.6,1.1-1.3,1.7-2C375.9,96.6,374.9,95.8,374.1,95.8z"/>
			<path class="st1" d="M392.1,95.8c-1.5-0.1-2.9-0.2-4.4-0.3c-0.8-1.3-1.6-2.6-2.3-4c-0.5-0.8-2.1-0.8-2.5,0.1
				c-0.6,1.5-1.2,2.9-1.8,4.3c-1.4,0.3-2.9,0.7-4.3,1c-0.8,0.1-1.6,1-0.7,1.7c0.6,0.6,1.3,1.1,2,1.7c0.3,0.2,1.1,1,1.6,1.3
				c0,0.2,0,0.5,0,0.6c-0.1,0.5-0.1,1.1-0.1,1.6c-0.1,0.8-0.1,1.7-0.3,2.6c-0.1,1.1,1.6,1.3,2.3,0.9c1.2-0.8,2.5-1.5,3.7-2.3
				c1.3,0.6,2.6,1.1,3.9,1.7c0.2,0.1,0.3,0.1,0.5,0.1c0.8,0.1,1.8-0.3,1.6-1.2c-0.2-0.8-0.4-1.7-0.6-2.5c-0.1-0.4-0.3-1.6-0.5-2.1
				c0.4-0.3,1.2-1.3,1.5-1.6c0.6-0.6,1.1-1.3,1.7-2C393.8,96.6,392.8,95.8,392.1,95.8z"/>
			<path class="st1" d="M410.4,95.8c-1.5-0.1-2.9-0.2-4.4-0.3c-0.8-1.3-1.6-2.6-2.3-4c-0.5-0.8-2.1-0.8-2.5,0.1
				c-0.6,1.5-1.2,2.9-1.8,4.3c-1.4,0.3-2.9,0.7-4.3,1c-0.8,0.1-1.6,1-0.7,1.7c0.6,0.6,1.3,1.1,2,1.7c0.3,0.2,1.1,1,1.6,1.3
				c0,0.2,0,0.5,0,0.6c-0.1,0.5-0.1,1.1-0.1,1.6c-0.1,0.8-0.1,1.7-0.3,2.6c-0.1,1.1,1.6,1.3,2.3,0.9c1.2-0.8,2.5-1.5,3.7-2.3
				c1.3,0.6,2.6,1.1,3.9,1.7c0.1,0.1,0.3,0.1,0.5,0.1c0.8,0.1,1.8-0.3,1.6-1.2c-0.2-0.8-0.4-1.7-0.6-2.5c-0.1-0.4-0.3-1.6-0.5-2.1
				c0.4-0.3,1.2-1.3,1.5-1.6c0.6-0.6,1.1-1.3,1.7-2C412.1,96.6,411.1,95.8,410.4,95.8z"/>
			<path class="st1" d="M428.7,95.8c-1.5-0.1-2.9-0.2-4.4-0.3c-0.8-1.3-1.6-2.6-2.3-4c-0.5-0.8-2.1-0.8-2.5,0.1
				c-0.6,1.5-1.2,2.9-1.8,4.3c-1.4,0.3-2.9,0.7-4.3,1c-0.8,0.1-1.6,1-0.7,1.7c0.6,0.6,1.3,1.1,2,1.7c0.3,0.2,1.1,1,1.6,1.3
				c0,0.2,0,0.5,0,0.6c-0.1,0.5-0.1,1.1-0.1,1.6c-0.1,0.8-0.1,1.7-0.3,2.6c-0.1,1.1,1.6,1.3,2.3,0.9c1.2-0.8,2.5-1.5,3.7-2.3
				c1.3,0.6,2.6,1.1,3.9,1.7c0.1,0,0.2,0.1,0.3,0.1c0.9,0.2,2-0.2,1.7-1.1c-0.2-0.8-0.4-1.7-0.6-2.5c-0.1-0.4-0.3-1.6-0.5-2.1
				c0.4-0.3,1.2-1.3,1.5-1.6c0.6-0.6,1.1-1.3,1.7-2C430.5,96.6,429.5,95.8,428.7,95.8z"/>
			<path class="st1" d="M447.9,97.1c-1.5-0.3-3-0.6-4.4-0.9c-0.6-1.4-1.2-2.8-1.8-4.2c-0.4-1.1-2-1.2-2.6-0.1
				c-0.7,1.3-1.5,2.6-2.2,3.9c-1.5,0.1-3,0.3-4.5,0.4c-0.9,0.1-1.3,1-0.7,1.7c0.6,0.6,1.2,1.3,1.8,1.9c0.4,0.4,0.7,0.8,1.1,1.1
				c0.1,0.1,0.2,0.2,0.3,0.3c-0.1,0.3-0.1,0.6-0.1,0.7c-0.2,0.5-0.2,1.1-0.4,1.6c-0.2,0.8-0.4,1.7-0.6,2.5c-0.2,0.9,1.3,1.3,2,1.1
				c0.8-0.4,1.6-0.7,2.4-1.1c0.3-0.2,1.2-0.5,1.8-0.7c0.1,0,0.1,0.1,0.2,0.1c0.4,0.4,0.9,0.6,1.3,0.8c0.5,0.3,1,0.6,1.5,0.9
				c0.4,0.9,2.3,0.8,2.6-0.2c0.1-0.2,0.1-0.5,0-0.7c-0.2-1.4-0.3-2.8-0.5-4.3c1.2-1,2.3-2,3.5-3C449.1,98.3,448.9,97.3,447.9,97.1z"
				/>
			<path class="st1" d="M533.1,155c-1.5-0.1-2.9-0.2-4.4-0.3c-0.8-1.3-1.6-2.6-2.3-4c-0.5-0.8-2.1-0.8-2.5,0.1
				c-0.6,1.5-1.2,2.9-1.8,4.3c-1.4,0.3-2.9,0.7-4.3,1c-0.8,0.1-1.6,1-0.7,1.7c0.6,0.6,1.3,1.1,2,1.7c0.3,0.2,1.1,1,1.6,1.3
				c0,0.2,0,0.5,0,0.6c-0.1,0.5-0.1,1.1-0.1,1.6c-0.1,0.8-0.1,1.7-0.3,2.6c-0.1,1.1,1.6,1.3,2.3,0.9c1.2-0.8,2.5-1.5,3.7-2.3
				c1.3,0.6,2.6,1.1,3.9,1.7c0.1,0,0.2,0.1,0.3,0.1c0.9,0.2,2-0.2,1.8-1.1c-0.2-0.8-0.4-1.7-0.6-2.5c-0.1-0.4-0.3-1.6-0.5-2.1
				c0.4-0.3,1.2-1.3,1.5-1.6c0.6-0.6,1.1-1.3,1.7-2C534.8,155.8,533.8,155,533.1,155z"/>
			<path class="st1" d="M551,155c-1.5-0.1-2.9-0.2-4.4-0.3c-0.8-1.3-1.6-2.6-2.3-4c-0.5-0.8-2.1-0.8-2.5,0.1
				c-0.6,1.5-1.2,2.9-1.8,4.3c-1.4,0.3-2.9,0.7-4.3,1c-0.8,0.1-1.6,1-0.7,1.7c0.6,0.6,1.3,1.1,2,1.7c0.3,0.2,1.1,1,1.6,1.3
				c0,0.2,0,0.5,0,0.6c-0.1,0.5-0.1,1.1-0.1,1.6c-0.1,0.8-0.1,1.7-0.3,2.6c-0.1,1.1,1.6,1.3,2.3,0.9c1.2-0.8,2.5-1.5,3.7-2.3
				c1.3,0.6,2.6,1.1,3.9,1.7c0.1,0,0.2,0.1,0.3,0.1c0.9,0.2,2-0.2,1.8-1.1c-0.2-0.8-0.4-1.7-0.6-2.5c-0.1-0.4-0.3-1.6-0.5-2.1
				c0.4-0.3,1.2-1.3,1.5-1.6c0.6-0.6,1.1-1.3,1.7-2C552.8,155.8,551.8,155,551,155z"/>
			<path class="st1" d="M569.3,155c-1.5-0.1-2.9-0.2-4.4-0.3c-0.8-1.3-1.6-2.6-2.3-4c-0.5-0.8-2.1-0.8-2.5,0.1
				c-0.6,1.5-1.2,2.9-1.8,4.3c-1.4,0.3-2.9,0.7-4.3,1c-0.8,0.1-1.6,1-0.7,1.7c0.6,0.6,1.3,1.1,2,1.7c0.3,0.2,1.1,1,1.6,1.3
				c0,0.2,0,0.5,0,0.6c-0.1,0.5-0.1,1.1-0.1,1.6c-0.1,0.8-0.1,1.7-0.3,2.6c-0.1,1.1,1.6,1.3,2.3,0.9c1.2-0.8,2.5-1.5,3.7-2.3
				c1.3,0.6,2.6,1.1,3.9,1.7c0.1,0,0.2,0.1,0.3,0.1c0.9,0.2,2-0.2,1.7-1.1c-0.2-0.8-0.4-1.7-0.6-2.5c-0.1-0.4-0.3-1.6-0.5-2.1
				c0.4-0.3,1.2-1.3,1.5-1.6c0.6-0.6,1.1-1.3,1.7-2C571.1,155.8,570.1,155,569.3,155z"/>
			<path class="st1" d="M587.7,154.9c-1.5-0.1-2.9-0.2-4.4-0.3c-0.8-1.3-1.6-2.6-2.3-4c-0.5-0.8-2.1-0.8-2.5,0.1
				c-0.6,1.5-1.2,2.9-1.8,4.3c-1.4,0.3-2.9,0.7-4.3,1c-0.8,0.1-1.6,1-0.7,1.7c0.6,0.6,1.3,1.1,2,1.7c0.3,0.2,1.1,1,1.6,1.3
				c0,0.2,0,0.5,0,0.6c-0.1,0.5-0.1,1.1-0.1,1.6c-0.1,0.8-0.1,1.7-0.3,2.6c-0.1,1.1,1.6,1.3,2.3,0.9c1.2-0.8,2.5-1.5,3.7-2.3
				c1.3,0.6,2.6,1.1,3.9,1.7c0.1,0,0.2,0.1,0.3,0.1c0.9,0.2,2-0.2,1.7-1.1c-0.2-0.8-0.4-1.7-0.6-2.5c-0.1-0.4-0.3-1.6-0.5-2.1
				c0.4-0.3,1.2-1.3,1.5-1.6c0.6-0.6,1.1-1.3,1.7-2C589.4,155.8,588.4,154.9,587.7,154.9z"/>
			<path class="st1" d="M606.9,156.3c-1.5-0.3-3-0.6-4.4-0.9c-0.6-1.4-1.2-2.8-1.8-4.2c-0.4-1.1-2-1.2-2.6-0.1
				c-0.7,1.3-1.5,2.6-2.2,3.9c-1.5,0.1-3,0.3-4.5,0.4c-0.9,0.1-1.3,1-0.7,1.7c0.6,0.6,1.2,1.3,1.8,1.9c0.4,0.4,0.7,0.8,1.1,1.1
				c0.1,0.1,0.2,0.2,0.3,0.3c-0.1,0.3-0.1,0.6-0.1,0.7c-0.2,0.5-0.2,1.1-0.4,1.6c-0.2,0.8-0.4,1.7-0.6,2.5c-0.2,0.9,1.3,1.3,2,1.1
				c0.8-0.4,1.6-0.7,2.4-1.1c0.3-0.2,1.2-0.5,1.8-0.7c0.1,0,0.1,0.1,0.2,0.1c0.4,0.4,0.9,0.6,1.3,0.8c0.5,0.3,1,0.6,1.5,0.9
				c0.4,0.9,2.3,0.8,2.6-0.3c0.1-0.2,0.1-0.4,0-0.7c-0.2-1.4-0.3-2.8-0.5-4.3c1.2-1,2.3-2,3.5-3
				C608.1,157.5,607.9,156.5,606.9,156.3z"/>
			<path class="st1" d="M679.9,161.6c-1.5-0.1-2.9-0.2-4.4-0.3c-0.8-1.3-1.6-2.6-2.3-4c-0.5-0.8-2.1-0.8-2.5,0.1
				c-0.6,1.5-1.2,2.9-1.8,4.3c-1.4,0.3-2.9,0.7-4.3,1c-0.8,0.1-1.6,1-0.7,1.7c0.6,0.6,1.3,1.1,2,1.7c0.3,0.2,1.1,1,1.6,1.3
				c0,0.2,0,0.5,0,0.6c-0.1,0.5-0.1,1.1-0.1,1.6c-0.1,0.8-0.1,1.7-0.3,2.6c-0.1,1.1,1.6,1.3,2.3,0.9c1.2-0.8,2.5-1.5,3.7-2.3
				c1.3,0.6,2.6,1.1,3.9,1.7c0.1,0,0.2,0.1,0.3,0.1c0.9,0.2,2-0.2,1.7-1.1c-0.2-0.8-0.4-1.7-0.6-2.5c-0.1-0.4-0.3-1.6-0.5-2.1
				c0.4-0.3,1.2-1.3,1.5-1.6c0.6-0.6,1.1-1.3,1.7-2C681.6,162.4,680.6,161.6,679.9,161.6z"/>
			<path class="st1" d="M697.8,161.6c-1.5-0.1-2.9-0.2-4.4-0.3c-0.8-1.3-1.6-2.6-2.3-4c-0.5-0.8-2.1-0.8-2.5,0.1
				c-0.6,1.5-1.2,2.9-1.8,4.3c-1.4,0.3-2.9,0.7-4.3,1c-0.8,0.1-1.6,1-0.7,1.7c0.6,0.6,1.3,1.1,2,1.7c0.3,0.2,1.1,1,1.6,1.3
				c0,0.2,0,0.5,0,0.6c-0.1,0.5-0.1,1.1-0.1,1.6c-0.1,0.8-0.1,1.7-0.3,2.6c-0.1,1.1,1.6,1.3,2.3,0.9c1.2-0.8,2.5-1.5,3.7-2.3
				c1.3,0.6,2.6,1.1,3.9,1.7c0.1,0,0.2,0.1,0.3,0.1c0.9,0.2,2-0.2,1.7-1.1c-0.2-0.8-0.4-1.7-0.6-2.5c-0.1-0.4-0.3-1.6-0.5-2.1
				c0.4-0.3,1.2-1.3,1.5-1.6c0.6-0.6,1.1-1.3,1.7-2C699.6,162.4,698.6,161.6,697.8,161.6z"/>
			<path class="st1" d="M716.1,161.6c-1.5-0.1-2.9-0.2-4.4-0.3c-0.8-1.3-1.6-2.6-2.3-4c-0.5-0.8-2.1-0.8-2.5,0.1
				c-0.6,1.5-1.2,2.9-1.8,4.3c-1.4,0.3-2.9,0.7-4.3,1c-0.8,0.1-1.6,1-0.7,1.7c0.6,0.6,1.3,1.1,2,1.7c0.3,0.2,1.1,1,1.6,1.3
				c0,0.2,0,0.5,0,0.6c-0.1,0.5-0.1,1.1-0.1,1.6c-0.1,0.8-0.1,1.7-0.3,2.6c-0.1,1.1,1.6,1.3,2.3,0.9c1.2-0.8,2.5-1.5,3.7-2.3
				c1.3,0.6,2.6,1.1,3.9,1.7c0.1,0,0.2,0.1,0.3,0.1c0.9,0.2,2-0.2,1.7-1.1c-0.2-0.8-0.4-1.7-0.6-2.5c-0.1-0.4-0.3-1.6-0.5-2.1
				c0.4-0.3,1.2-1.3,1.5-1.6c0.6-0.6,1.1-1.3,1.7-2C717.9,162.4,716.9,161.6,716.1,161.6z"/>
			<path class="st1" d="M734.4,161.5c-1.5-0.1-2.9-0.2-4.4-0.3c-0.8-1.3-1.6-2.6-2.3-4c-0.5-0.8-2.1-0.8-2.5,0.1
				c-0.6,1.5-1.2,2.9-1.8,4.3c-1.4,0.3-2.9,0.7-4.3,1c-0.8,0.1-1.6,1-0.7,1.7c0.6,0.6,1.3,1.1,2,1.7c0.3,0.2,1.1,1,1.6,1.3
				c0,0.2,0,0.5,0,0.6c-0.1,0.5-0.1,1.1-0.1,1.6c-0.1,0.8-0.1,1.7-0.3,2.6c-0.1,1.1,1.6,1.3,2.3,0.9c1.2-0.8,2.5-1.5,3.7-2.3
				c1.3,0.6,2.6,1.1,3.9,1.7c0.1,0.1,0.3,0.1,0.5,0.1c0.8,0.1,1.8-0.3,1.6-1.2c-0.2-0.8-0.4-1.7-0.6-2.5c-0.1-0.4-0.3-1.6-0.5-2.1
				c0.4-0.3,1.2-1.3,1.5-1.6c0.6-0.6,1.1-1.3,1.7-2C736.2,162.3,735.2,161.5,734.4,161.5z"/>
			<path class="st1" d="M754.2,164.6c0.7-0.6,0.5-1.6-0.5-1.8c-1.5-0.3-3-0.6-4.4-0.9c-0.6-1.4-1.2-2.8-1.8-4.2
				c-0.4-1.1-2-1.2-2.6-0.1c-0.7,1.3-1.5,2.6-2.2,3.9c-1.5,0.1-3,0.3-4.5,0.4c-0.9,0.1-1.3,1-0.7,1.7c0.6,0.6,1.2,1.3,1.8,1.9
				c0.4,0.4,0.7,0.8,1.1,1.1c0.1,0.1,0.2,0.2,0.3,0.3c-0.1,0.3-0.1,0.6-0.1,0.7c-0.2,0.5-0.2,1.1-0.4,1.6c-0.2,0.8-0.4,1.7-0.6,2.5
				c-0.2,0.9,1.3,1.3,2,1.1c0.8-0.4,1.6-0.7,2.4-1.1c0.3-0.2,1.2-0.5,1.8-0.7c0.1,0,0.1,0.1,0.2,0.1c0.4,0.4,0.9,0.6,1.3,0.8
				c0.5,0.3,1,0.6,1.5,0.9c0.4,1,2.7,0.7,2.6-0.6c0,0,0,0,0,0c0-0.1,0-0.1,0-0.2c-0.2-1.5-0.4-2.9-0.5-4.4
				C751.9,166.7,753,165.7,754.2,164.6z"/>
		</g>
		<g>
			<path class="st2" d="M122.9,148.6c-8.3,0.6-16.6,0.9-24.9,1.1c-4.2,0.1-8.3,0.1-12.4,0.2L73.2,150l-12.4-0.1
				c-4.2-0.1-8.3-0.1-12.4-0.2c-8.3-0.2-16.6-0.5-24.9-1.1c8.3-0.6,16.6-0.9,24.9-1.1c4.2-0.1,8.3-0.1,12.4-0.2l12.4-0.1l12.4,0.1
				c4.2,0.1,8.3,0.1,12.4,0.2C106.3,147.6,114.6,147.9,122.9,148.6z"/>
		</g>
		<g>
			<path class="st2" d="M117,160.4c-8.5,0.6-17,0.9-25.6,1.1c-4.2,0.1-8.5,0.1-12.8,0.2l-12.8,0.1L53,161.8
				c-4.2-0.1-8.5-0.1-12.8-0.2c-8.5-0.2-17-0.5-25.6-1.1c8.5-0.6,17-0.9,25.6-1.1c4.2-0.1,8.5-0.1,12.8-0.2l12.8-0.1l12.8,0.1
				c4.2,0.1,8.5,0.1,12.8,0.2C99.9,159.5,108.4,159.9,117,160.4z"/>
		</g>
		<g>
			<path class="st2" d="M33.7,174.3c6-0.6,11.9-0.9,17.9-1.1c3-0.1,6-0.1,9-0.2l9-0.1l9,0.1c3,0.1,6,0.1,9,0.2
				c6,0.2,11.9,0.5,17.9,1.1c-6,0.6-11.9,0.9-17.9,1.1c-3,0.1-6,0.1-9,0.2l-9,0.1l-9-0.1c-3-0.1-6-0.1-9-0.2
				C45.7,175.2,39.7,174.9,33.7,174.3z"/>
		</g>
		<g>
			<path class="st2" d="M51.1,137.8c3.7-0.6,7.6-0.8,11.3-1.1c3.7-0.2,7.6-0.3,11.3-0.3s7.6,0.1,11.3,0.3c3.7,0.2,7.6,0.5,11.3,1.1
				c-3.7,0.6-7.6,0.9-11.3,1.1c-3.7,0.2-7.6,0.3-11.3,0.3s-7.6-0.1-11.3-0.3C58.7,138.7,54.9,138.5,51.1,137.8z"/>
		</g>
		<g>
			<path class="st2" d="M153.4,58.1c11-0.6,22-0.9,33.1-1.1c5.5-0.1,11-0.1,16.5-0.2l16.5-0.1l16.5,0.1c5.5,0.1,11,0.1,16.5,0.2
				c11,0.2,22,0.5,33.1,1.1c-11,0.6-22,0.9-33.1,1.1c-5.5,0.1-11,0.1-16.5,0.2l-16.5,0.1l-16.5-0.1c-5.5-0.1-11-0.1-16.5-0.2
				C175.5,59.1,164.4,58.8,153.4,58.1z"/>
		</g>
		<g>
			<path class="st2" d="M283.8,68.9c-12.3,0.6-24.7,0.9-36.9,1.1c-6.1,0.1-12.3,0.1-18.5,0.2l-18.5,0.1l-18.5-0.1
				c-6.1-0.1-12.3-0.1-18.5-0.2c-12.3-0.2-24.7-0.5-36.9-1.1c12.3-0.6,24.7-0.9,36.9-1.1c6.1-0.1,12.3-0.1,18.5-0.2l18.5-0.1
				l18.5,0.1c6.1,0.1,12.3,0.1,18.5,0.2C259.2,68,271.5,68.3,283.8,68.9z"/>
		</g>
		<g>
			<path class="st2" d="M157.8,85.9c10-0.6,20-0.9,30-1.1c5-0.1,10-0.1,15-0.2l15-0.1l15,0.1c5,0.1,10,0.1,15,0.2
				c10,0.2,20,0.5,30,1.1c-10,0.6-20,0.9-30,1.1c-5,0.1-10,0.1-15,0.2l-15,0.1l-15-0.1c-5-0.1-10-0.1-15-0.2
				C177.8,86.8,167.8,86.5,157.8,85.9z"/>
		</g>
		<g>
			<path class="st2" d="M178.8,99.4c6.9-0.6,13.8-0.9,20.8-1.1c3.5-0.1,6.9-0.1,10.4-0.2l10.4-0.1l10.4,0.1
				c3.5,0.1,6.9,0.1,10.4,0.2c6.9,0.2,13.8,0.5,20.8,1.1c-6.9,0.6-13.8,0.9-20.8,1.1c-3.5,0.1-6.9,0.1-10.4,0.2l-10.4,0.1l-10.4-0.1
				c-3.5-0.1-6.9-0.1-10.4-0.2C192.7,100.2,185.7,100,178.8,99.4z"/>
		</g>
		<g>
			<path class="st2" d="M333.1,25.6c11-0.6,21.9-0.9,32.9-1.1c5.5-0.1,11-0.1,16.5-0.2l16.5-0.1l16.5,0.1c5.5,0.1,11,0.1,16.5,0.2
				c11,0.2,21.9,0.5,32.9,1.1c-11,0.6-21.9,0.9-32.9,1.1c-5.5,0.1-11,0.1-16.5,0.2L399,27l-16.5-0.1c-5.5-0.1-11-0.1-16.5-0.2
				C355.1,26.5,344.2,26.2,333.1,25.6z"/>
		</g>
		<g>
			<path class="st2" d="M344.3,34.8c9.4-0.6,18.8-0.9,28.1-1.1c4.7-0.1,9.4-0.1,14.1-0.2l14.1-0.1l14.1,0.1
				c4.7,0.1,9.4,0.1,14.1,0.2c9.4,0.2,18.8,0.5,28.1,1.1c-9.4,0.6-18.8,0.9-28.1,1.1c-4.7,0.1-9.4,0.1-14.1,0.2l-14.1,0.1L386.5,36
				c-4.7-0.1-9.4-0.1-14.1-0.2C363,35.6,353.6,35.3,344.3,34.8z"/>
		</g>
		<g>
			<path class="st2" d="M337.9,51c10.7-0.6,21.5-0.9,32.2-1.1c5.4-0.1,10.7-0.1,16.1-0.2l16.1-0.1l16.1,0.1
				c5.4,0.1,10.7,0.1,16.1,0.2c10.7,0.2,21.5,0.5,32.2,1.1c-10.7,0.6-21.5,0.9-32.2,1.1c-5.4,0.1-10.7,0.1-16.1,0.2l-16.1,0.1
				l-16.1-0.1c-5.4-0.1-10.7-0.1-16.1-0.2C359.4,51.8,348.7,51.6,337.9,51z"/>
		</g>
		<g>
			<path class="st2" d="M337.5,66c11-0.6,22-0.9,33.1-1.1c5.5-0.1,11-0.1,16.5-0.2l16.5-0.1l16.5,0.1c5.5,0.1,11,0.1,16.5,0.2
				c11,0.2,22,0.5,33.1,1.1c-11,0.6-22,0.9-33.1,1.1c-5.5,0.1-11,0.1-16.5,0.2l-16.5,0.1l-16.5-0.1c-5.5-0.1-11-0.1-16.5-0.2
				C359.6,66.9,348.5,66.6,337.5,66z"/>
		</g>
		<g>
			<path class="st2" d="M385.1,74.4c4.1-0.6,8.2-0.9,12.3-1.1c4.1-0.2,8.2-0.3,12.3-0.3c4.1,0,8.2,0.1,12.3,0.3
				c4.1,0.2,8.2,0.5,12.3,1.1c-4.1,0.6-8.2,0.9-12.3,1.1c-4.1,0.2-8.2,0.3-12.3,0.3s-8.2-0.1-12.3-0.3
				C393.3,75.2,389.2,74.9,385.1,74.4z"/>
		</g>
		<g>
			<path class="st2" d="M522.7,99.6c8.1-0.6,16.1-0.9,24.2-1.1c4-0.1,8.1-0.1,12.1-0.2l12.1-0.1l12.1,0.1c4,0.1,8.1,0.1,12.1,0.2
				c8.1,0.2,16.1,0.5,24.2,1.1c-8.1,0.6-16.1,0.9-24.2,1.1c-4,0.1-8.1,0.1-12.1,0.2L571,101l-12.1-0.1c-4-0.1-8.1-0.1-12.1-0.2
				C538.8,100.5,530.7,100.2,522.7,99.6z"/>
		</g>
		<g>
			<path class="st2" d="M524.2,112.3c8.1-0.6,16.2-0.9,24.3-1.1c4-0.1,8.1-0.1,12.2-0.2l12.2-0.1L585,111c4,0.1,8.1,0.1,12.2,0.2
				c8.1,0.2,16.2,0.5,24.3,1.1c-8.1,0.6-16.2,0.9-24.3,1.1c-4,0.1-8.1,0.1-12.2,0.2l-12.2,0.1l-12.2-0.1c-4-0.1-8.1-0.1-12.2-0.2
				C540.4,113.2,532.4,112.9,524.2,112.3z"/>
		</g>
		<g>
			<path class="st2" d="M536.9,127.4c5.5-0.6,11-0.9,16.5-1.1c2.8-0.1,5.5-0.1,8.3-0.2l8.3-0.1l8.3,0.1c2.8,0.1,5.5,0.1,8.3,0.2
				c5.5,0.2,11,0.5,16.5,1.1c-5.5,0.6-11,0.9-16.5,1.1c-2.8,0.1-5.5,0.1-8.3,0.2l-8.3,0.1l-8.3-0.1c-2.8-0.1-5.5-0.1-8.3-0.2
				C548,128.3,542.5,128,536.9,127.4z"/>
		</g>
		<g>
			<path class="st2" d="M666.9,106c7.1-0.6,14.1-0.9,21.2-1.1c3.5-0.1,7.1-0.1,10.6-0.2l10.6-0.1l10.6,0.1c3.5,0.1,7.1,0.1,10.6,0.2
				c7.1,0.2,14.1,0.5,21.2,1.1c-7.1,0.6-14.1,0.9-21.2,1.1c-3.5,0.1-7.1,0.1-10.6,0.2l-10.6,0.1l-10.6-0.1
				c-3.5-0.1-7.1-0.1-10.6-0.2C681.1,106.9,674,106.5,666.9,106z"/>
		</g>
		<g>
			<path class="st2" d="M664.1,119.8c8.2-0.6,16.4-0.9,24.6-1.1c4.1-0.1,8.2-0.1,12.3-0.2l12.3-0.1l12.3,0.1
				c4.1,0.1,8.2,0.1,12.3,0.2c8.2,0.2,16.4,0.5,24.6,1.1c-8.2,0.6-16.4,0.9-24.6,1.1c-4.1,0.1-8.2,0.1-12.3,0.2l-12.3,0.1l-12.3-0.1
				c-4.1-0.1-8.2-0.1-12.3-0.2C680.5,120.7,672.3,120.4,664.1,119.8z"/>
		</g>
		<g>
			<path class="st2" d="M681.2,132.9c4-0.6,8-0.9,12-1.1c4-0.2,8-0.3,12-0.3s8,0.1,12,0.3c4,0.2,8,0.5,12,1.1c-4,0.6-8,0.9-12,1.1
				c-4,0.2-8,0.3-12,0.3s-8-0.1-12-0.3C689.2,133.8,685.2,133.5,681.2,132.9z"/>
		</g>
		<g>
			<path class="st2" d="M663.8,141.6c7.8-0.6,15.6-0.9,23.4-1.1c3.9-0.1,7.8-0.1,11.7-0.2l11.7-0.1l11.7,0.1
				c3.9,0.1,7.8,0.1,11.7,0.2c7.8,0.2,15.6,0.5,23.4,1.1c-7.8,0.6-15.6,0.9-23.4,1.1c-3.9,0.1-7.8,0.1-11.7,0.2l-11.7,0.1l-11.7-0.1
				c-3.9-0.1-7.8-0.1-11.7-0.2C679.3,142.6,671.5,142.2,663.8,141.6z"/>
		</g>
	</g>
	<path class="st3" d="M725.9,349.3c-9.3,6-17.6,13.6-24.4,22.3c-8.4,10.7-14.8,23.1-24.8,32.4c-6.4,6-14.5,10.3-20.7,16.5
		c-4.1-2.8-7.3-6.9-9.2-11.4c-1.3-3.2-2-6.7-2.4-10.2c-1.1-9.2-0.4-18.8,2.9-27.5c1.2-3.1,2.7-6.2,3.5-9.4c0-0.1,0.1-0.3,0.1-0.4
		c1.2-4.9,0.6-10-0.6-14.9c-3.5-3.5-5.7-8.2-7.3-12.9c-1.3-3.6-2.3-7.4-3.2-11.3c-0.7-3.2-1.3-6.4-1.7-9.6c-0.8-6-1.2-12.1-1.1-18.2
		c0-3.7,0.2-7.3,0.6-10.9c9.6-3.4,20.2-4.1,30.2-6.4c12.2-2.8,23.8-8.1,33.9-15.4c2.4,6.9,5.7,13.6,9.6,20.1
		c1.4,2.3,2.9,4.7,4.1,7.1c0.4,0.8,0.7,1.5,1,2.3c0.6,6.6,0.4,13.2-0.1,19.8c-0.1,1.6-0.3,3.3-0.5,4.9c-1.1,9.1-2.7,18.2-3.9,27.4
		C716.3,345.9,721,347.8,725.9,349.3z"/>
	<path class="st4" d="M807.8,411.5c-0.9-1-2-1.9-3.1-2.6c-2.1-1.3-4.5-1.8-7-1.9c-1.8-0.1-3.6,0.1-5.3,0.4
		c-4.2,0.8-8.1,2.3-12.3,3.2c-4.7,1-9.5,1.1-14.2,1.9c-8.1,1.5-15.8,5.4-21.9,11c0.2,9.2,1.3,18.4,3.2,27.5
		c1.3,5.9,2.9,11.6,4.3,17.5c2.5,10.7,4.2,21.6,5.8,32.4c1.3,8.4,2.6,16.9,2.6,25.4c0,10.2-1.9,20.3-3.5,30.4
		c-1.7,11.1-3.1,22.2-4.1,33.4H594.1c0-11.2,0.9-22.4,1.9-33.5c0.7-7.6,1.5-15.1,3-22.6c1.1-5.5,2.6-10.8,3.5-16.3
		c1.1-7.2,1.1-14.6,1.1-21.9c0-1.6,0-3.2-0.4-4.7c-0.4-1.8-1.2-3.4-2-5c-1.5-2.9-3-5.8-4.4-8.7c6.9-15.4,12.4-31.3,16.6-47.6
		c4.4-17.2,7.2-35.7,2.8-52.8c11.3-5.6,22.9-10.7,34.6-15.5c0,0.1-0.1,0.3-0.1,0.4c-0.8,3.3-2.3,6.3-3.5,9.4
		c-3.3,8.7-3.9,18.2-2.9,27.5c0.4,3.5,1.1,6.9,2.4,10.2c1.9,4.6,5.1,8.6,9.2,11.4c6.3-6.1,14.3-10.5,20.7-16.5
		c10-9.3,16.3-21.7,24.8-32.4c6.9-8.7,15.1-16.2,24.4-22.3c13.4,4,27.9,4.9,41.8,7.5c2.4,0.4,4.9,1,6.9,2.3
		c6.7,4.3,12,14.5,16.4,20.9c5.6,8,10.8,16.3,15.7,24.8c0.7,1.2,1.4,2.4,1.5,3.8C808.3,409.4,808.1,410.4,807.8,411.5z"/>
	<path class="st5" d="M807.8,411.5c-0.7,2.7-2.3,5.7-3.3,7.6c-1.6,3-3.8,5.6-6,8.1c-0.3-6.7-0.6-13.4-0.9-20.2
		c2.5,0.1,4.9,0.6,7,1.9C805.9,409.6,806.9,410.5,807.8,411.5z"/>
	<path class="st3" d="M802.6,537.8c-0.5,17.7-3.5,35.2-8.1,52.3h-42c1-11.2,2.4-22.3,4.1-33.4c1.6-10.1,3.5-20.2,3.5-30.4
		c0-8.5-1.3-17-2.6-25.4c-1.7-10.9-3.3-21.7-5.8-32.4c-1.4-5.8-3-11.6-4.3-17.5c-2-9-3-18.2-3.2-27.5c6.1-5.6,13.7-9.5,21.9-11
		c4.7-0.9,9.5-1,14.2-1.9c4.1-0.9,8.1-2.4,12.3-3.2c1.7-0.3,3.5-0.5,5.3-0.4c0.3,6.7,0.6,13.4,0.9,20.2v0c1.2,27.3,2.3,54.6,3.5,82
		C802.5,518.7,802.9,528.2,802.6,537.8z"/>
	<path class="st6" d="M716.3,291.3c0-0.5-0.1-0.9-0.1-1.4"/>
	<path class="st3" d="M721.8,306.6c0,0.2,0,0.3-0.1,0.5c-0.4,2.2-0.9,4.5-2.1,6.3c-0.9,1.3-2.3,2.4-3.9,2.7c0.2-1.6,0.4-3.3,0.5-4.9
		c0.6-6.6,0.8-13.2,0.1-19.8c-0.3-0.8-0.6-1.5-1-2.3c0.7-0.6,1.6-1.1,2.4-1.5c0.8-0.3,1.8-0.6,2.7-0.3c1.6,0.6,2,2.7,2.1,4.5
		C722.8,296.7,722.6,301.7,721.8,306.6z"/>
	<path class="st7" d="M740.4,277.6c0,1.4-0.6,2.8-1.1,4.1c-3.9,9.5-9.9,18-17.5,24.9c0.8-4.9,1.1-9.9,0.8-14.8
		c-0.1-1.7-0.5-3.9-2.1-4.5c-0.9-0.3-1.8-0.1-2.7,0.3c-0.9,0.4-1.7,0.9-2.4,1.5c-1.2-2.5-2.7-4.8-4.1-7.1c-4-6.5-7.2-13.2-9.6-20.1
		c-4.2-11.8-6-24.2-5.2-37.1c0.1-1.4,0.2-2.8,0.4-4.2c20.9,9.9,35.1,30.6,42.6,52.6C740,274.6,740.4,276.1,740.4,277.6z"/>
	<path class="st8" d="M639.7,322.3c-1.1-0.2-2.1-0.9-2.7-1.7c-0.8-1.1-1.3-2.5-1.7-3.9c-0.5-1.8-1-3.6-1.4-5.4
		c-0.1-0.4-0.2-0.9-0.3-1.3c-0.6-3.4-0.8-6.9-0.5-10.3c0.1-1.3,0.3-2.7,1.1-3.8c0.6-0.8,1.7-1.4,2.7-1.3c-0.1,6.1,0.3,12.2,1.1,18.2
		C638.5,316,639,319.2,639.7,322.3z"/>
	<path class="st7" d="M701.6,261.8c-10.1,7.3-21.7,12.6-33.9,15.4c-10,2.3-20.6,3.1-30.2,6.4c-0.4,3.6-0.6,7.2-0.6,10.9
		c-1-0.1-2.1,0.5-2.7,1.3c-0.8,1.1-1,2.5-1.1,3.8c-0.3,3.4-0.1,6.9,0.5,10.3c-6-4.1-11.2-9.6-14.9-15.8c-0.8-1.3-1.6-2.7-1.7-4.3
		c-0.2-1.9,0.4-3.7,1.1-5.4c3.8-9.9,8.6-19.5,13.4-29c2.3-4.7,4.7-9.4,8.2-13.3c4.7-5.3,11.1-8.6,17.5-11.7
		c5.1-2.5,10.3-4.9,15.6-7.2c3.2-1.4,6.4-2.7,9.9-3.1c5-0.5,10.2,1.2,13.9,4.5C695.7,237.6,697.5,250,701.6,261.8z"/>
	<path class="st9" d="M613.4,429.7c-4.2,16.3-9.7,32.3-16.6,47.6c-1,2.2-2,4.3-3,6.5c-2,4.2-4.1,8.4-6.3,12.5
		c-2.4,4.5-4.9,8.9-7.5,13.2c-0.3,0.5-0.7,1.1-1,1.7c-11.5-9.5-24.2-17.6-37.8-23.9c-1,1.4-2.2,2.4-3.7,3c-14.5,5.8-33,6.9-48.4,7.7
		c-0.2,0-0.5,0-0.7,0c0-0.1-0.1-0.3-0.1-0.4c-4.5-14.1-12.1-27.4-17-41.5c0-0.1,0.1-0.2,0.1-0.3c2.9-6.8,4.3-14.2,4.1-21.6
		c0-0.5,0-1-0.1-1.5v0c1-3.6,2.3-7.2,3.7-10.6c3.2-7.7,7.1-15.3,8.7-23.6c0.6-2.9,0.9-5.9,1.9-8.6c1.1-3.1,2.9-5.8,4.8-8.4
		c3.5-4.7,7.7-9.1,12.7-12.2c2.4-0.1,4.9-0.2,7.3-0.3c2.5-0.1,4.9-0.2,7.3-0.8c3.2-0.7,6.1-2.2,9-3.7c8.7-4.4,17.4-8.9,26.1-13.3
		c5,3.5,12,4.1,18.4,3.7c7.8-0.6,15.9-2.3,23.3,0.1c7.5,2.4,12.2,7.7,15.1,14.5c0.3,0.8,0.6,1.5,0.9,2.4c0.6,1.7,1.1,3.4,1.5,5.1
		C620.6,394,617.8,412.5,613.4,429.7z"/>
	<path class="st9" d="M549.4,334.4l-6.1,1.7c-8.4,2.4-16.8,4.8-25.3,6.4c0.9-2.1,1.9-4.2,3.2-6.1c1.3-1.9,2.8-3.7,4.8-4.8
		c2.6-1.3,5.6-1.4,8.4-1.4c2.1,0,4.3,0,6.4,0c2.7,0,5.6,0.1,8.2,0.8C549.2,332.2,549.3,333.3,549.4,334.4z"/>
	<path class="st10" d="M556.3,293.3c-1.2,7.9-4.5,15.5-6.1,23.3c-1,4.7-1.3,9.6-1.1,14.4c-2.6-0.7-5.5-0.8-8.2-0.8
		c-2.1,0-4.3,0-6.4,0c-2.9,0-5.9,0-8.4,1.4c-2,1.1-3.6,2.9-4.8,4.8c-1.3,1.9-2.4,4-3.2,6.1c-1.5,0.3-3,0.6-4.5,0.8
		c-0.3-3.1-0.5-6.2-0.6-9.3c-0.2-3.7-0.3-7.4-0.5-11.1c-0.6-0.5-1.2-0.9-1.8-1.5c-3.4-3.2-5.8-7.3-8-11.4c-3.5-6.4-6.9-13-8.2-20.1
		c-0.6-3.5-0.8-7.1-0.9-10.7c-0.2-5.9-0.4-11.9,0.2-17.8c1.2-12,6-23.8,13-33.6c7.3,2.1,14.9,3.1,22.5,2.8c2-0.1,4-0.2,5.8,0.7
		c1.8,0.9,2.9,2.8,3.9,4.5c5,8.9,10.1,17.8,13.5,27.4C555.9,272.9,557.8,283.3,556.3,293.3z"/>
	<path class="st6" d="M471.1,455.6c-0.1-0.2-0.1-0.3-0.2-0.5"/>
	<path class="st6" d="M404,461.9c-0.9,0.6-1.8,1.1-2.6,1.7"/>
	<path class="st9" d="M513.5,343.3c-2.7,0.4-5.4,0.8-8.2,1c-2.9,0.2-5.9,0.4-8.8,0.3c0-0.6,0-1.3,0.2-1.9c0.4-1.3,1.4-2.4,2.4-3.3
		c3.8-3.2,8.8-4.5,13.8-5.4C513.1,337.1,513.2,340.2,513.5,343.3z"/>
	<path class="st11" d="M613.8,369.5c-2.9-6.9-7.6-12.1-15.1-14.5c-7.5-2.4-15.5-0.7-23.3-0.1c-6.3,0.5-13.3-0.2-18.4-3.7
		c-1.2-0.8-2.2-1.8-3.2-3c-2.4-3-3.4-6.8-4.1-10.6c-0.2-1-0.3-2.1-0.4-3.1c-0.1-1.1-0.2-2.2-0.3-3.4c-0.2-4.8,0.1-9.7,1.1-14.4
		c1.6-7.9,4.9-15.4,6.1-23.3c1.5-10.1-0.4-20.5-3.8-30.1c-3.5-9.6-8.5-18.5-13.5-27.4c-1-1.8-2.1-3.6-3.9-4.5
		c-1.7-0.9-3.8-0.8-5.8-0.7c-7.6,0.3-15.2-0.7-22.5-2.8c-7,9.9-11.9,21.6-13,33.6c-0.6,5.9-0.4,11.8-0.2,17.8
		c0.1,3.6,0.2,7.2,0.9,10.7c1.3,7.1,4.7,13.7,8.2,20.1c2.2,4.1,4.6,8.2,8,11.4c0.6,0.5,1.2,1,1.8,1.5c0.2,3.7,0.3,7.4,0.5,11.1
		c-5,0.9-10,2.2-13.8,5.4c-1.1,0.9-2,2-2.4,3.3c-0.2,0.6-0.2,1.3-0.2,1.9c-2.8,0-5.6-0.1-8.4-0.4c0.1-2,0.2-4.1,0.2-6.1
		c0-5.3-0.5-10.6-1-15.8c-0.1-0.6-0.1-1.1-0.2-1.7c0,0,0,0,0,0c-0.4-4.4-0.9-8.7-1-13c-0.3-6.4,0.1-12.7,0.5-19
		c0.3-5.5,0.6-11.1,0.4-16.6c-0.4-9.9,0.5-20,2.7-29.8c0.1-0.5,0.2-1.1,0.4-1.6v0c0.8-3.5,1.8-6.9,3-10.2c1.6-4.7,3.5-9.4,6.9-13
		c3.1-3.4,6.3-4.1,10.4-5.2c3.4-0.9,5.9-3.4,9.4-5c7.4-3.3,16.2-3.2,23.6-0.1c10.4,4.3,18.3,13.4,23.1,23.6c3,6.3,4.9,13,6.9,19.6
		c2.9,9.3,6,18.6,9.1,27.9c2.5,7.6,5.1,15.3,8.7,22.4c4,7.8,9.2,15,13.4,22.7c3.7,6.8,6.7,13.9,8.8,21.3
		C615.6,352.7,616.7,361.9,613.8,369.5z"/>
	<path class="st3" d="M557,351.1c-8.7,4.4-17.4,8.9-26.1,13.3c-2.9,1.5-5.8,3-9,3.7c-2.4,0.6-4.9,0.7-7.3,0.8
		c-2.4,0.1-4.9,0.2-7.3,0.3c-8.5,0.4-17.1,0.6-25.6,0.2c-0.1,0-0.2,0-0.3,0c-3.3-0.2-6.7-0.4-10-0.8c3.2-8.4,6.5-16.8,9.7-25.3
		c2.3,0.4,4.6,0.7,7,0.9c2.8,0.2,5.6,0.4,8.4,0.4c2.9,0,5.9-0.1,8.8-0.3c2.7-0.2,5.5-0.6,8.2-1c1.5-0.2,3-0.5,4.5-0.8
		c8.5-1.6,16.9-4,25.3-6.4l6.1-1.7c0.1,1.1,0.3,2.1,0.4,3.1c0.6,3.8,1.7,7.6,4.1,10.6C554.8,349.3,555.9,350.3,557,351.1z"/>
	<path class="st11" d="M507.3,369.3c-5,3.1-9.1,7.5-12.7,12.2c-1.9,2.6-3.8,5.3-4.8,8.4c-1,2.8-1.3,5.8-1.9,8.6
		c-1.7,8.2-5.5,15.8-8.7,23.6c-1.4,3.4-2.8,7-3.7,10.6c-0.2-3.7-0.6-7.5-0.2-11.2c0.6-4.6,2.5-8.8,3.5-13.3
		c2.8-13.1-1.4-25.9,3-38.6C490.3,369.9,498.8,369.7,507.3,369.3z"/>
	<path class="st6" d="M471.3,456.2c-0.3,0.7-0.6,1.4-0.9,2"/>
	<path class="st12" d="M345.8,309.7c-4.9-0.7-9.7-1.4-14.6-2.2c-8.4-1.3-17.7-3-22.6-9.9c-0.8-1-1.4-2.2-2.5-3
		c-1-0.7-2.3-0.9-3.5-1.1c-7-1.1-12.6-1.9-19.5-3c2.9-5.7,7.4-10.1,12.4-14.2c0,0,0,0,0,0c8-6.7,17.3-12.5,22.8-21.3
		c2.3-3.7,4.5-6.3,7.4-8.1c0,0.7,0,1.4,0,2.1c-0.1,12.1-2.3,24.6,1.7,36c0.7,2.1,1.7,4.1,3,5.8c2.3,2.8,5.7,4.6,8.3,7.2
		C341.9,301.3,343.5,305.7,345.8,309.7z"/>
	<path class="st3" d="M390.9,197.1c-0.1,0.7-0.2,1.5-0.3,2.2c-0.6,2.9-1.2,5.8-1.9,8.7c-0.5,2.2-1.1,4.3-1.7,6.5
		c-0.6,2-1.2,4.1-2,6.2c-2.8,7.8-7,15.9-14.4,19.7c-1.1,0.6-2.3,1.1-3.5,1.6c-8.1,3.1-17.3,3.2-25.7,0.9c-0.2,0-0.3-0.1-0.5-0.1
		c-6-1.7-9.4-5.5-12.6-10.8c-2-3.3-3.6-6.6-5-10c-1.3-3.1-2.5-6.3-3.6-9.6c-1.2-3.6-2.3-7.2-3.3-10.9v0c-0.1-0.3-0.2-0.6-0.3-0.9
		c-1.2-4.2-1.5-8.2-1.4-12.2c0.3-7,1.8-13.9,2.1-21.3c0.1-4.3-0.3-8.6,0.3-12.8c1-6.9,5.2-13.3,11-17.1c3.6,4.4,9.6,4.5,15.3,4
		c10.3-0.8,20.5-2.3,30.6-4.2c5.1,5.3,4.3,14.6,6.6,21.6c1.2,3.7,3.3,6.9,4.6,10.5c1.3,3.9,1.5,7.8,2.4,11.8
		c0.3,1.2,0.6,2.3,0.9,3.4v0C389.8,188.5,391.3,192.5,390.9,197.1z"/>
	<path class="st12" d="M423,286.1c-3.9,0.7-7.7,1.7-11.4,3c-0.9,0.3-1.8,0.7-2.4,1.3c-1.1,1.1-1.3,2.8-1.8,4.2
		c-0.9,2.7-3,4.9-4.9,6.9c-7.1,7.3-14.6,14.2-22.2,21c-4.5,4-9.2,7.8-13.4,12.1c4.3-15.6,10.9-30.6,19.3-44.5
		c2.1-3.4,4.3-6.8,5-10.7c0.8-4.5-0.6-9-1.8-13.3c-1.6-6.2-2.8-12.5-3.6-18.8c5.6,3.7,10.3,8.9,15.2,13.7c6.5,6.4,13.7,12,21.5,16.8
		c0,2.1,0.1,4.2,0.4,6.3c0,0,0,0.1,0,0.1c0,0.5,0.1,1.1,0.1,1.6C422.9,285.8,423,286,423,286.1z"/>
	<path class="st6" d="M423,286.1C423,286.1,423,286.1,423,286.1c-0.1-0.1-0.1-0.3-0.1-0.4c-0.1-0.5-0.1-1.1-0.1-1.6
		C422.9,284.8,422.9,285.4,423,286.1z"/>
	<path class="st3" d="M391.1,279.5c-0.7,3.9-2.9,7.3-5,10.7c-8.5,13.8-15,28.8-19.3,44.5c-0.8,0.8-1.6,1.7-2.4,2.5
		c-2.5-6.2-6-12-10.3-17.1c-2.5-3-5.3-5.7-7.4-9c-0.3-0.5-0.6-0.9-0.9-1.4c-2.3-3.9-4-8.4-7.1-11.6c-2.6-2.6-6-4.4-8.3-7.2
		c-1.4-1.7-2.3-3.7-3-5.8c-4-11.4-1.9-23.9-1.7-36c0-0.7,0-1.4,0-2.1c-0.1-8.4-1.1-16.8-2.3-25.1c1.4,3.4,3.1,6.7,5,10
		c3.2,5.3,6.6,9.1,12.6,10.8c0.2,0,0.3,0.1,0.5,0.1c8.4,2.3,17.6,2.2,25.7-0.9c1.2-0.5,2.4-1,3.5-1.6c7.4-3.8,11.6-11.8,14.4-19.7
		c-0.6,8.9-0.4,17.8,0.7,26.7c0.8,6.4,2,12.7,3.6,18.8C390.5,270.5,391.9,275,391.1,279.5z"/>
	<path class="st6" d="M384.5,544.7c-0.1-0.5-0.1-1-0.2-1.5"/>
	<path class="st3" d="M397.5,202.2c-0.9,2.7-2.6,5.4-5.4,6.1c-1.1,0.3-2.2,0.1-3.3-0.2c0.7-2.9,1.3-5.8,1.9-8.7
		c0.2-0.8,0.3-1.5,0.3-2.2c0.4-4.7-1.2-8.6-2.4-13v0c0.7-3.1,2.1-6,4.1-8.6c0.4-0.6,0.9-1.1,1.6-1.4c0.3-0.1,0.5-0.1,0.7-0.1
		c1.5,0.1,2.7,1.8,3.2,3.4c0.8,2.8,0.9,5.7,0.9,8.5C399.1,191.5,399.2,197,397.5,202.2z"/>
	<path class="st8" d="M319.9,212.3c-1.4,1.1-4.2,2-5.6,1.5c-1.6-0.6-2.8-1.9-3.8-3.2c-3.9-5.2-5.1-11.7-5.9-18
		c-0.5-4-2.8-14.6,4.8-9.3c0,0,0.1,0,0.1,0.1c2.1,1.4,3.8,3.2,5.5,5.1c-0.1,4,0.1,8,1.4,12.2c0.1,0.3,0.2,0.6,0.3,0.9v0
		C317.6,205.1,318.7,208.8,319.9,212.3z"/>
	<path class="st6" d="M316.6,201.5C316.5,201.5,316.5,201.5,316.6,201.5"/>
	<path class="st3" d="M280.9,588.8c0,0.4-0.1,0.9-0.1,1.3h-17c1.6-0.8,3.3-1.4,5-1.9c1.8-0.5,3.7-0.8,5.6-0.8
		C276.6,587.4,278.8,588,280.9,588.8z"/>
	<path class="st13" d="M263.8,590.1c1.6-0.8,3.3-1.4,5-1.9c1.8-0.5,3.7-0.8,5.6-0.8c2.3,0,4.5,0.6,6.6,1.4c0.1-1.1,0.2-2.1,0.3-3.2
		c-1.8-4.1-3.3-8.4-4-12.8c-1-6-0.5-12.2-0.8-18.3c-0.5-9.2-2.7-18.8,0-27.6c1.3,4,3.3,7.8,6.2,10.6c1.6,1.7,3.5,3,5.8,4
		c2.8,1.2,5.8,1.5,8.8,1.8c10.7,1.1,21.4,1.9,32.2,2.2c2.1,0.1,4.2,0.1,6.3,0.2c10.5,0.2,21,0.1,31.4-0.4c2.7-0.1,5.5-0.3,8.2-0.6
		c1.6-0.2,3.2-0.4,4.8-0.7c1.4-0.3,2.8-0.6,4.2-0.9c-0.5-3.8-0.9-7.5-1.4-11.3c-0.7-5.4-1.4-10.9-1.6-16.4
		c-0.4-8.3,0.2-16.6-0.7-24.8c-1-9.5-4-18.7-4.7-28.2c-0.4-5.5-0.1-11-0.2-16.6c-0.4-15.4-4.3-30.5-5.1-45.8
		c-1-19.7,1.6-39.1-4.3-57.9c-0.3-0.8-0.5-1.6-0.8-2.4c-0.3-0.9-0.6-1.8-1-2.6c-2.5-6.2-6-12-10.3-17.1c-2.5-3-5.3-5.7-7.4-9
		c-0.3-0.5-0.6-0.9-0.9-1.4c-4.9-0.7-9.7-1.4-14.6-2.2c-8.4-1.3-17.7-3-22.6-9.9c-0.8-1-1.4-2.2-2.5-3c-1-0.7-2.3-0.9-3.5-1.1
		c-7-1.1-12.6-1.9-19.5-3c2.9-5.7,7.4-10.1,12.4-14.2c-6.8,2.4-13.5,5.1-20.1,7.9c-3.5,1.5-7.1,3.1-10.5,4.9
		c-1.1,0.6-2.2,1.2-3.3,1.9v0c-4,2.4-7.6,5.3-10.5,8.8c-6.7,8.1-9,18.5-10.3,29.2h0c-0.6,4.9-1,9.9-1.6,14.8
		c-0.9,7.1-2.2,14.2-2.8,21.3c-0.6,7.8-0.4,15.7-0.7,23.5c-1.2,29.1-10.2,57.8-8.2,86.8c0,0,0,0,0,0.1c1.4,20.9,1.1,41.1,6.4,61.3
		c3.2,12.3,7.1,24.4,10.9,36.5c1.7,5.6,3.4,11.1,5.1,16.7H263.8z"/>
	<path class="st14" d="M283.9,560.4c0.3-5.6,0-11.3-0.6-16.9c2.2,0.9,4.7,1.5,7.1,2c12.9,2.6,25.9,4.1,39,4.7
		c0.1,5.5,0.2,11,0.3,16.5C314.1,566.6,298.5,565.4,283.9,560.4z"/>
	<path class="st14" d="M375.2,566.1c-1.2,0-2.5,0-3.7,0.1c-8.1,0.1-16.2,0.3-24.3,0.4c-3.9,0.1-7.8,0.1-11.7,0.1
		c-0.2-5.4-0.2-10.9-0.1-16.3c7.9,0.2,15.9,0.1,23.8-0.2c4.7-0.2,9.4-0.5,14.1-1.2c-0.2,0.6-0.3,1.3-0.4,1.9c-0.5,3-0.1,6,0.4,8.9
		C373.7,562,374.2,564.2,375.2,566.1z"/>
	<path class="st14" d="M422.2,557.6c-8,2.3-15.9,5.1-24,6.6c-5.6,1-11.2,1.5-16.9,1.7c-0.1-0.2-0.2-0.3-0.2-0.5
		c-1-2.1-1.4-4.4-1.8-6.6c-0.4-2.3-0.8-4.7-0.6-7c0.1-1.4,0.5-2.8,1.1-4.1h0c3.4-0.8,6.7-1.7,10-2.6c10.2-2.8,20.4-5.5,30.7-8.3
		c0.5,0.6,1.3,1.1,1.9,1.8C422.2,545,422.1,551.3,422.2,557.6z"/>
	<path class="st14" d="M435,554.6c-2.6,0.4-5.2,1-7.8,1.6v-7.5c0.2,0.2,0.5,0.3,0.7,0.5c2.2,1.5,4.5,3,6.8,4.3
		C434.9,554,435,554.3,435,554.6z"/>
	<path class="st15" d="M263.4,267.5c-0.7,5.6-1.2,11.2-1.5,16.9c-3.3-4.9-7.1-9.5-9.9-14.7c-2.8-5.3-4.6-11-6.7-16.7
		c-1.3-3.6-2.8-7.2-4.4-10.6c-0.8-1.8-1.7-3.5-2.5-5.2c-2.9-5.7-6.2-11.2-7.8-17.4c-1.1-4.1-1.4-8.5-3.1-12.3
		c-2.8-6.1-8.8-10-14.5-13.5l-0.8,0.3c-6.3-1-12.8-0.5-18.9,1.4c-1.3,0.4-2.6,0.9-3.7,1.8c-1.4,1.1-2.1,2.8-2.9,4.4
		c-4.6,10.1-9.4,16.5-9,28c0.4,11.5,0.8,23,1.3,34.5c0.1,3.2,0.2,6.5,1.2,9.6c0.7,2.2,1.7,4.1,3,6c-0.3,6.2-0.3,12.4-0.1,18.6
		c-0.9-4.3-1.6-8.6-2.8-12.8c-3.5-12.5-10.9-23.9-20.8-32.3c1.9-6.7,3.8-13.4,5.7-20.2c1.7-6.1,3.5-12.2,5.8-18.1
		c2.5-6.3,5.5-12.3,8.6-18.4c1.3-2.6,2.7-5.3,4.8-7.5c6.1-6.4,13.3-3.3,20.6-5.7c4.9-1.6,10.3-2.1,15.2-0.7
		c4.7,1.3,8.9,4.1,12.5,7.3c8,7.1,13.9,16.2,18.4,25.8c4.5,9.7,7.7,19.9,10.8,30c1,3.3,2.1,6.7,2.3,10.2
		C264.5,259.9,263.9,263.7,263.4,267.5z"/>
	<path class="st16" d="M238.7,265c-1.7,5.3-3.6,9.9-6.1,14.4c-2,3.7-4.4,7.3-7.2,11c-2.8,3.7-5.7,5.8-10.4,6.4
		c-4.1,0.6-8.4,1.2-12.4,0c-4.7-1.4-8.5-5-12-8.5c-2.7-2.7-5.4-5.4-7.5-8.5c-1.3-1.9-2.3-3.8-3-6c-0.9-3.1-1.1-6.3-1.2-9.6
		c-0.4-11.5-0.8-23-1.3-34.5c-0.5-11.5,4.4-17.9,9-28c0.7-1.6,1.5-3.3,2.9-4.4c1-0.9,2.4-1.4,3.7-1.8c6.1-1.9,12.6-2.4,18.9-1.4
		l0.8-0.3c5.7,3.5,11.7,7.4,14.5,13.5c1.8,3.9,2.1,8.2,3.1,12.3c1.6,6.2,4.9,11.7,7.8,17.4c0.9,1.7,1.7,3.5,2.5,5.2
		C241.1,250,240.9,257.7,238.7,265z"/>
	<path class="st17" d="M261.9,284.3c-0.1,2.2-0.2,4.4-0.3,6.6v0c-4,2.4-7.6,5.3-10.5,8.8c-6.7,8.1-9,18.5-10.3,29.2h0
		c-0.8,0-1.7,0.1-2.7,0.1c-4.5,0.1-9.7-0.3-10-2.3c-1.6-10.1,2.1-20.2,3.6-30.3c0.8-5.6,0.9-11.3,0.9-17c2.5-4.5,4.4-9.2,6.1-14.4
		c2.3-7.3,2.4-15,2.2-22.7c1.6,3.5,3.1,7,4.4,10.6c2.1,5.6,3.8,11.4,6.7,16.7C254.8,274.8,258.6,279.4,261.9,284.3z"/>
	<path class="st16" d="M238,329.1c-1.6,12-7.6,23.4-16.6,31.5c-4.3,3.8-9.3,6.9-14.8,8.3c-3.1-4.9-6.6-9.6-7.6-15.3
		c-0.7-4.2,0-8.4-0.3-12.7c-0.4-5.7-2.7-11-5.4-16.1c-2.3-4.3-4.8-8.5-6.7-13.1c-1.7-4.3-2.7-8.8-3.7-13.3v0
		c-0.2-6.2-0.2-12.4,0.1-18.6c2.1,3.1,4.8,5.9,7.5,8.5c3.5,3.5,7.2,7.1,12,8.5c4,1.2,8.3,0.6,12.4,0c4.7-0.7,7.6-2.7,10.4-6.4
		c2.8-3.7,5.2-7.3,7.2-11c0,5.7-0.1,11.3-0.9,17c-1.5,10.1-5.2,20.2-3.6,30.3C228.4,328.8,233.5,329.1,238,329.1z"/>
	<path class="st18" d="M213.9,396.1c-0.1,2.1-0.5,4.2-1,6.1c-1.5,6.1-4.3,11.8-4.1,18.3c0.1,4.1,0.8,8.2,0.7,12.3
		c-0.1,6.4-2,12.8-5.4,18.3c-4.1-5.9-9.8-10.4-15.7-14.4c-6-4.1-12.4-7.1-16.6-13.4c-0.5-0.7-0.9-1.4-1.2-2.1
		c-3.6-6.7-3.9-14.5-4.4-22.3c-0.2-3.2-0.4-6.3-0.9-9.4c-1-7.2-3.4-14.2-3.8-21.4c-0.3-6.3,0.9-12.5,1.9-18.7c0.3-1.7,0.5-3.3,0.8-5
		c3.5-24.5,3.2-49.8-4.4-73.2v0c-0.1-0.4-0.3-0.8-0.4-1.2c-1-2.8-2.1-5.7-4.1-7.9c-4.3-4.7-12.5-4.6-17.1-0.4
		c-3.7-0.6-7.5-0.7-11.4-0.7c-3.7,0.1-7.5,0.1-11.2,0.7c-1.4,2-2.5,4.2-3.4,6.5c-4.4,10.8-5,22.8-5.2,34.5
		c-0.2,8.1-0.2,16.2-0.1,24.3c0.1,6.3,0.2,12.7,1.5,18.9c0.2,1,0.4,2.1,0.7,3.1c2.9,11.7,8.6,23.4,5.3,34.8
		c-0.3,1.1-0.7,2.3-0.7,3.4c0,1.5,0.8,2.9,1.4,4.3c4.3,9,5.5,19.5,3.2,29.3c-1.3,5.5-3.7,10.7-6.9,15.3c-2.5,3.6-5.5,6.8-9,9.5
		c-5.1-3.8-11.1-7.5-13.3-13.4c-1.1-2.9-1.4-6-2.7-8.8c-2.1-4.3-6.4-7-9.8-10.4c-5.6-5.7-8.7-13.6-13-20.2c0-0.1,0-0.3,0-0.5
		c0-0.4,0-0.7,0.1-1.1c0.6-6.6,3.6-12.9,8.3-17.6c1.7-1.7,3.8-3.4,4.5-5.8c0.5-1.9,0.1-3.9-0.2-5.8c-2-10-3-20.8,1.9-29.8
		c2.2-4.1,5.7-7.9,5.7-12.6c0-2-0.6-3.9-0.7-5.8c-0.2-4.4,2.4-8.5,3.4-12.8c0.7-3.1,0.6-6.3,1-9.4c1-7.7,4.7-14.7,8.5-21.4
		c4.1-7.1,8.4-14.2,14.6-19.6c6.2-5.3,15.5-8.7,23.4-6.8c8.1-1.5,16.2,2.4,22.7,7.4c0.9,0.7,1.8,1.4,2.6,2.1
		c9.9,8.4,17.2,19.8,20.8,32.3c1.2,4.2,2,8.5,2.8,12.8v0c0.9,4.5,1.9,9,3.7,13.3c1.8,4.5,4.4,8.7,6.7,13.1c2.6,5,4.9,10.4,5.4,16.1
		c0.3,4.2-0.4,8.5,0.3,12.7c1,5.6,4.5,10.4,7.6,15.3c0.6,1,1.2,2,1.8,3C212.4,379.2,214.3,387.7,213.9,396.1z"/>
	<path class="st3" d="M170.6,421.2c-6.5,11-18.5,18.7-31.2,19.8c-9.6,0.8-19-1.8-28.1-5.1c3.2-4.6,5.6-9.8,6.9-15.3
		c2.3-9.7,1.2-20.2-3.2-29.3c-0.6-1.4-1.4-2.8-1.4-4.3c0-1.2,0.4-2.3,0.7-3.4c3.3-11.4-2.4-23.1-5.3-34.8c3.6,4.8,8.2,8.9,13.5,11.9
		c3.7,2.1,7.8,3.7,12,4c8.2,0.6,16.2-3.6,21.8-9.5c0.6-0.6,1.2-1.3,1.8-1.9c-0.2,3.2-0.4,6.3-0.6,9.5c-0.5,7.4-0.9,15,0.9,22.2
		c1.3,5.2,3.9,10.3,7.7,13.9C166.6,406.7,167,414.5,170.6,421.2z"/>
	<path class="st19" d="M395,174.1c-0.2,0-0.5,0-0.7,0.1c-0.7,0.2-1.2,0.8-1.6,1.4c-1.9,2.5-3.4,5.5-4.1,8.6
		c-0.3-1.1-0.6-2.2-0.9-3.4c-0.9-3.9-1.1-7.9-2.4-11.8c-1.2-3.6-3.3-6.9-4.6-10.5c-2.3-7-1.5-16.2-6.6-21.6
		c-10.1,2-20.3,3.4-30.6,4.2c-5.6,0.5-11.7,0.4-15.3-4c-5.9,3.8-10,10.2-11,17.1c-0.6,4.2-0.2,8.5-0.3,12.8
		c-0.2,7.4-1.8,14.3-2.1,21.3c-1.7-1.8-3.4-3.6-5.5-5.1c0,0-0.1,0-0.1-0.1c-0.1-0.7-0.2-1.3-0.3-2c-0.8-7.3-0.2-14.6,0.4-21.9
		c0.4-4.7,0.9-9.4,2.8-13.7c1.9-4.1,5.1-7.5,8.4-10.7c6.2-6.1,13.2-12.1,21.8-13.8c10.3-2,20.7,2.6,29.6,8.1
		c6.5,3.9,13.1,8.8,15.9,15.9c1.4,3.4,1.7,7.1,2.6,10.7C391.9,161.8,394.6,168.1,395,174.1z"/>
	<path class="st19" d="M159.4,269.9c0.1,0.4,0.3,0.8,0.4,1.2c-3.5-3.2-7.4-5.9-12.1-7.4c-3.2-1-6.4-1.7-9.6-2.2
		c4.6-4.2,12.8-4.3,17.1,0.4C157.3,264.2,158.5,267.1,159.4,269.9z"/>
	<path class="st19" d="M166.2,398.9c-3.9-3.6-6.5-8.7-7.7-13.9c-1.8-7.2-1.3-14.8-0.9-22.2c0.2-3.2,0.4-6.4,0.6-9.5
		c2.3-2.7,4.3-5.8,6.1-8.9c-0.2,1.7-0.5,3.4-0.8,5c-1,6.2-2.2,12.4-1.9,18.7c0.4,7.2,2.8,14.2,3.8,21.4
		C165.7,392.6,166,395.7,166.2,398.9z"/>
	<path class="st3" d="M164.2,344.4c-1.8,3.2-3.7,6.2-6.1,8.9c-0.6,0.7-1.2,1.3-1.8,1.9c-5.7,5.9-13.7,10.1-21.8,9.5
		c-4.2-0.3-8.3-1.9-12-4c-5.2-3-9.9-7.1-13.5-11.9c-0.3-1-0.5-2.1-0.7-3.1c-1.2-6.2-1.4-12.6-1.5-18.9c-0.1-8.1-0.1-16.2,0.1-24.3
		c0.3-11.7,0.8-23.6,5.2-34.5c0.9-2.3,2-4.5,3.4-6.5c3.7-0.6,7.4-0.7,11.2-0.7c3.9-0.1,7.6,0.1,11.4,0.7c3.2,0.5,6.4,1.2,9.6,2.2
		c4.7,1.5,8.6,4.2,12.1,7.4v0C167.4,294.6,167.7,319.9,164.2,344.4z"/>
	<path class="st3" d="M65,494.7c-0.5,5.7-1.1,11.3-1.8,17c-1.1,7.6-2.6,15.2-3.4,22.8c-1.8,18.4-0.6,37.1,0.5,55.6H26.2
		c-2.1-17.3-3.9-34.9-3.3-52.4c0.2-6.6,0.9-13.1,0.8-19.7c-0.1-7.5-1.1-15.1-1.8-22.6c-1.3-13.7-2.2-28.9-0.6-43.4
		c4.3-0.4,8.7-0.1,13,0.8c3.4,0.8,6.7,2,10,3.3c3.7,1.4,7.5,2.8,11.2,4.2c3.6,1.3,7.2,2.7,10.3,5C66.8,475,65.9,485,65,494.7z"/>
	<path class="st20" d="M226.1,443.6c-0.2,0.7-0.7,1.2-1.2,1.7c-0.2,0.2-0.4,0.3-0.5,0.5c-6.5,6.3-12.9,12.6-19.4,18.9
		c2.2,13.2,1.4,26.9-2.4,39.8c-1.9,6.7,0.6,13.9,2.5,20.6c3.5,12.5,6.8,25.1,9.2,37.8c1.7,9,2.9,18,3.8,27.1H60.3
		c-1.1-18.4-2.3-37.1-0.5-55.6c0.7-7.7,2.3-15.2,3.4-22.8c0.8-5.6,1.3-11.3,1.8-17c0.9-9.7,1.8-19.8,0.7-29.4
		c-3.1-2.2-6.7-3.6-10.3-5c-3.7-1.4-7.5-2.8-11.2-4.2c-3.3-1.2-6.6-2.5-10-3.3c-4.2-1-8.6-1.3-13-0.8c2.1-19.1,8.5-37.1,24.4-49.5
		c3.4-2.7,7.1-4.9,10.8-7.2c2.1-1.3,4.2-2.6,6.4-3.9c0.2,0.3,0.5,0.7,0.7,1.1c4.3,6.7,7.3,14.6,13,20.2c3.4,3.4,7.7,6.1,9.8,10.4
		c1.3,2.7,1.6,5.9,2.7,8.8c2.2,5.9,8.2,9.7,13.3,13.4c3.4-2.7,6.5-5.9,9-9.5c9.1,3.2,18.5,5.9,28.1,5.1c12.8-1.1,24.7-8.8,31.2-19.8
		c0.4,0.7,0.8,1.4,1.2,2.1c4.2,6.3,10.6,9.3,16.6,13.4c5.9,4,11.6,8.5,15.7,14.4c3.4-5.4,5.3-11.8,5.4-18.3
		c0.1-4.1-0.6-8.2-0.7-12.3c-0.2-6.5,2.5-12.2,4.1-18.3c6.3,12.4,10.8,25.7,13.1,39.4C226.2,442.3,226.3,443,226.1,443.6z"/>
	<path class="st3" d="M241.1,590.1h-23.2c-0.9-9.1-2.1-18.1-3.8-27.1c-2.4-12.8-5.6-25.3-9.2-37.8c-1.9-6.7-4.4-13.9-2.5-20.6
		c3.7-12.9,4.6-26.6,2.4-39.8c6.5-6.3,12.9-12.6,19.4-18.9c0.6,10.2,1.2,20.4,1.9,30.5c0.9,14.4,1.8,28.9,2.6,43.3
		c0.6,9.4,1.1,18.9,2.8,28.2c1.3,7.3,3.2,14.4,5,21.6C238.2,576.2,239.7,583.2,241.1,590.1z"/>
	<path class="st21" d="M435,554.6c-2.6,0.4-5.2,1-7.8,1.6v-7.5c-1.8-1.3-3.5-2.9-3.9-5c-0.3-1.4,0.1-3-0.5-4.3
		c-0.1-0.3-0.3-0.5-0.6-0.8c-0.2,6.3-0.2,12.6-0.1,18.9c-8,2.3-15.9,5.1-24,6.6c-5.6,1-11.2,1.5-16.9,1.7c-0.1-0.2-0.2-0.3-0.2-0.5
		c-1-2.1-1.4-4.4-1.8-6.6c-0.4-2.3-0.8-4.7-0.6-7c0.1-1.4,0.5-2.8,1.1-4.1h0c3.4-0.8,6.7-1.7,10-2.6c10.2-2.8,20.4-5.5,30.7-8.3
		c-0.2-0.3-0.4-0.6-0.6-1c-0.1-0.4-0.2-0.7-0.2-1.1c-8.4,1.3-16.6,3.1-24.8,5.4c-3.5,1-7,2.1-10.6,3c-1.4,0.3-2.8,0.7-4.2,0.9
		c-1.6,0.3-3.2,0.5-4.8,0.7c-2.7,0.3-5.5,0.4-8.2,0.6c-10.5,0.5-20.9,0.6-31.4,0.4c-2.1,0-4.2-0.1-6.3-0.2
		c-10.7-0.4-21.5-1.1-32.2-2.2c-3-0.3-6-0.7-8.8-1.8c-2.2-0.9-4.1-2.3-5.8-4c0.2,2,0.5,3.9,0.7,5.9c2.2,0.9,4.7,1.5,7.1,2
		c12.9,2.6,25.9,4.1,39,4.7c0.1,5.5,0.2,11,0.3,16.5c-15.6-0.2-31.2-1.4-45.8-6.3c-0.1,1.4-0.2,2.8-0.4,4.1c-0.8,7-1.6,14-2.3,21
		c-0.1,1.1-0.2,2.1-0.3,3.2c0,0.4-0.1,0.9-0.1,1.3h152c0.8-4.2,1.7-8.4,2.4-12.6C436.3,569.9,436.7,562,435,554.6z M371.4,566.2
		c-8.1,0.1-16.2,0.3-24.3,0.4c-3.9,0.1-7.8,0.1-11.7,0.1c-0.2-5.4-0.2-10.9-0.1-16.3c7.9,0.2,15.9,0.1,23.8-0.2
		c4.7-0.2,9.4-0.5,14.1-1.2c-0.2,0.6-0.3,1.3-0.4,1.9c-0.5,3-0.1,6,0.4,8.9c0.4,2.1,0.9,4.3,1.8,6.3
		C373.9,566.1,372.7,566.2,371.4,566.2z"/>
	<path class="st10" d="M578.9,511.2c-3.6,6.1-7.6,13.1-14.6,15.3c-7.5,2.4-16.5,3.7-24.4,4.6c-9,1-18.2,1.1-27.3,0.7
		c-4.8-0.2-9.6-0.5-14.4-0.9c-8.5-0.7-17.1-1.7-25.6-2.7c-1.4-0.2-2.8-0.3-4.2-0.5c-3.1-0.3-7.3-1.5-10.4-1.1
		c-3.1,0.4-4.1,2.5-6.2,5c-4,5-7.8,10.1-11.4,15.3c-0.4,0.6-0.8,1.2-1.2,1.7c0.5,1.2,1.5,2.4,2.3,3.4c0.8,1,1.3,2.5,0.4,3.5
		c-1,1.2-2.9,0.5-4.3-0.2c-0.6-0.3-1.1-0.6-1.7-0.9c-0.5-0.3-0.9-0.5-1.4-0.8c-2.3-1.4-4.6-2.8-6.8-4.3c-0.2-0.2-0.5-0.3-0.7-0.5
		c-1.8-1.3-3.5-2.9-3.9-5c-0.3-1.4,0.1-3-0.5-4.3c-0.1-0.3-0.3-0.5-0.6-0.8c-0.6-0.6-1.3-1.1-1.9-1.8c-0.2-0.3-0.4-0.6-0.6-1
		c-0.1-0.4-0.2-0.7-0.2-1.1c0-0.3,0-0.5-0.1-0.8c-0.3-1.6-1.4-3-2.1-4.5c-0.7-1.5-0.5-2.8-0.1-3.9c0.7-1.8,1.7-3.5,2.7-5.2
		c6.2-9.6,17.2-15.9,28.5-18.8c12.9-3.3,26.5-3,39.9-3.7c0.2,0,0.5,0,0.7,0c15.4-0.9,34-1.9,48.4-7.7c1.4-0.6,2.6-1.6,3.7-3
		C554.7,493.6,567.4,501.7,578.9,511.2z"/>
	<path class="st9" d="M589.1,590.1h-94.8c0.7-11.9,1.8-23.7,3.2-35.3c0.6-4.3,1.3-8.6,1.4-12.9c0.2-3.8-0.1-7.4-0.6-11
		c4.8,0.4,9.6,0.7,14.4,0.9c9.1,0.4,18.2,0.2,27.3-0.7c7.9-0.9,16.9-2.1,24.4-4.6c7.1-2.3,11-9.2,14.6-15.3c0.3-0.6,0.7-1.1,1-1.7
		c2.6-4.3,5.1-8.8,7.5-13.2c-2.4,16.2-4.1,32.4-5.1,48.8c2.8,9.9,4,20.2,5.2,30.4C588.2,580.3,588.7,585.2,589.1,590.1z"/>
	<path class="st10" d="M489.6,552c-0.2,1.9-1.7,3.4-3.5,4c-0.9,0.3-1.9,0.4-2.8,0.3c0.5,1.8,0.4,3.7-0.6,5.2
		c-0.5,0.7-1.4,1.4-2.3,1.2c-0.8-0.1-1.3-0.8-1.8-1.3c-6.2-7.3-12.3-14.6-18.5-21.9c4.2,6,8.4,12,12.7,18c1.3,1.9,2.7,4.3,1.5,6.3
		c-1,1.6-3.2,1.9-5,1.3c-1.7-0.7-3-2.1-4.3-3.5c-2.9-3.3-5.8-6.5-8.8-9.8c-2.1-2.3-4.2-4.7-6.3-7c2.2,4.4,4.4,8.8,6.5,13.3
		c0.1,0.3,0.2,0.5,0.4,0.8c0.7,1.4,1.3,3.3,0.2,4.4c-0.1,0.1-0.2,0.2-0.4,0.3c-1.4,0.9-3.4-0.4-4.6-1.7c-4.3-4.5-8.1-9.4-11.4-14.7
		c3.6-5.2,7.4-10.4,11.4-15.3c2-2.5,3.1-4.6,6.2-5c3.1-0.4,7.3,0.7,10.4,1.1c1.4,0.2,2.8,0.3,4.2,0.5c3.8,4.4,7.6,8.8,11.1,13.4
		c1.4,1.8,2.8,3.5,4,5.4C488.9,548.5,489.8,550.2,489.6,552z"/>
	<path class="st22" d="M457.4,590.1h-24.7c0.8-4.2,1.7-8.4,2.4-12.6c1.2-7.6,1.6-15.5-0.1-22.8c-0.1-0.3-0.1-0.6-0.2-1
		c0.5,0.3,0.9,0.5,1.4,0.8c0.6,0.3,1.1,0.6,1.7,0.9c1.3,0.8,3.3,1.4,4.3,0.2c0.8-1,0.4-2.5-0.4-3.5c-0.8-1-1.8-2.3-2.3-3.4
		c0.4-0.6,0.8-1.2,1.2-1.7c3.3,5.2,7.1,10.2,11.4,14.7c1.2,1.3,3.2,2.6,4.6,1.7c0.3,6.3,0.5,12.7,0.7,19
		C457.5,584.9,457.5,587.5,457.4,590.1z"/>
	<path class="st22" d="M456.4,557.9c-2.2-4.4-4.4-8.8-6.5-13.3c2.1,2.3,4.2,4.7,6.3,7C456.3,553.8,456.3,555.8,456.4,557.9z"/>
	<path class="st22" d="M499,541.9c-0.2,4.3-0.9,8.6-1.4,12.9c-1.5,11.6-2.6,23.4-3.2,35.3h-36.9c0.1-2.6,0.1-5.2,0-7.7
		c-0.2-6.3-0.5-12.7-0.7-19c0.1-0.1,0.2-0.2,0.4-0.3c1.1-1.1,0.5-3-0.2-4.4c-0.1-0.3-0.2-0.5-0.4-0.8c-0.1-2.1-0.2-4.1-0.2-6.2
		c2.9,3.3,5.8,6.5,8.8,9.8c1.2,1.4,2.5,2.8,4.3,3.5c1.7,0.7,4,0.3,5-1.3c1.2-2-0.2-4.4-1.5-6.3c-4.2-6-8.4-12-12.7-18
		c6.2,7.3,12.3,14.6,18.5,21.9c0.5,0.6,1.1,1.2,1.8,1.3c0.9,0.1,1.8-0.5,2.3-1.2c1-1.5,1.1-3.4,0.6-5.2c0.9,0.1,1.9,0,2.8-0.3
		c1.8-0.6,3.3-2.1,3.5-4c0.2-1.8-0.7-3.5-1.7-5c-1.2-1.9-2.6-3.7-4-5.4c-3.6-4.6-7.3-9-11.1-13.4c8.5,1,17,2,25.6,2.7
		C498.9,534.5,499.1,538.1,499,541.9z"/>
	<path class="st23" d="M240.7,329c-0.6,4.9-1,9.9-1.6,14.8c-0.9,7.1-2.2,14.2-2.8,21.3c-0.6,7.8-0.4,15.7-0.7,23.5
		c-1.2,29.1-10.2,57.8-8.2,86.8c0,0,0,0,0,0.1c-0.4,0.3-0.8,0.6-1.3,0.9c-0.6-10.2-1.2-20.4-1.9-30.5c0.2-0.2,0.4-0.3,0.5-0.5
		c0.5-0.5,1-1,1.2-1.7c0.2-0.6,0.1-1.3,0-2c-2.4-13.7-6.8-27-13.1-39.4c0.5-2,0.9-4,1-6.1c0.4-8.4-1.5-16.9-5.6-24.2
		c-0.6-1-1.2-2-1.8-3c5.5-1.4,10.6-4.5,14.8-8.3c9-8.1,15.1-19.5,16.6-31.5C239,329.1,239.9,329,240.7,329z"/>
	<path class="st3" d="M435.1,311.3c-1.1-0.3-2.1-0.9-3-1.6c-1.5-1.3-2.6-3-3.7-4.7c-1.2-2-2.3-4.1-2.3-6.5c0-0.6,0.1-1.3,0.3-1.9
		c0.2-0.6,0.6-1.2,1.2-1.6c1.1-0.7,2.6-0.5,3.7,0.2c0.9,4.9,2.2,9.8,3.5,14.8C435,310.5,435.1,310.9,435.1,311.3z"/>
	<path class="st24" d="M487,272c0.2,5.5-0.1,11-0.4,16.6c-1,0-1.9-0.1-2.9-0.3c-5.2-0.8-10.4-2-15.1-4.3c-4.7-2.3-8.8-6.4-11.2-11
		c-0.5,3.9,0.2,8,1.8,11.6c-5.1-2.2-10.3-4.4-14.3-8.3c-1.9-1.8-3.4-3.5-4.9-5.6c-1.6,5.2-1.8,10.9-0.7,16.2
		c0.2,0.9,0.5,1.9,1.2,2.5c-3.8-3-6.7-6.6-9.6-10.4c-0.9,5.7-0.6,11.1,0.4,16.4c-1.1-0.7-2.6-0.9-3.7-0.2c-0.6,0.4-1,0.9-1.2,1.6
		c-1.6-3.4-3-6.9-3.5-10.6c0,0,0,0,0.1,0c-0.1-0.7-0.2-1.3-0.3-2c0,0,0,0,0-0.1c-0.1-2.5,0.1-5.1,0.4-7.6c1.3-9.7,4.5-19.1,9.2-27.6
		c1.8-3.2,3.9-6.3,6.7-8.5c2-1.6,4.4-2.7,6.8-3.7c9.5-3.8,19.9-5.7,30-4.1c-0.4,0.4-0.8,0.7-1.1,1.1c5.3,2.3,10.3,5.3,14.9,8.7
		C487.6,252,486.7,262.1,487,272z"/>
	<path class="st13" d="M439.3,322c-0.6,0-1.3,0-1.9,0c-5.7,0.2-12,1.1-15.9,5.3c-4.2,4.5-4.5,11.2-5.9,17.1
		c-1.5,6.1-4.5,11.8-5.5,18c-0.6,3.5-0.6,7.1-1.1,10.7c-0.4,3.5-1.2,7-2,10.5c-1.4,6.1-2.9,12.2-4.3,18.3c-0.6,2.6-1.2,5.3-1.2,8
		c0,4.4,1.5,8.7,2,13c0.5,5.1-0.5,10.2-0.9,15.3c-0.6,7.2,1.3,13.5,1.6,20.7c0,1,0,2,0,2.9v0c-0.2,8.7-2.5,17.4-1,26
		c0.5,3.1,1.6,6.1,2.6,9.1c3.1,8.9,6.7,18.5,14.5,23.6c-1,1.6-2,3.3-2.7,5.2c-0.4,1.1-0.5,2.4,0.1,3.9c0.7,1.5,1.8,2.8,2.1,4.5
		c0,0.3,0.1,0.5,0.1,0.8c-8.4,1.3-16.6,3.1-24.8,5.4c-3.5,1-7,2.1-10.6,3c-0.5-3.8-0.9-7.5-1.4-11.3c-0.7-5.4-1.4-10.9-1.6-16.4
		c-0.4-8.3,0.2-16.6-0.7-24.8c-1-9.5-4-18.7-4.7-28.2c-0.4-5.5-0.1-11-0.2-16.6c-0.4-15.4-4.3-30.5-5.1-45.8
		c-1-19.7,1.6-39.1-4.3-57.9c-0.3-0.8-0.5-1.6-0.8-2.4c0.4-1.7,0.9-3.4,1.3-5.1c4.2-4.3,8.9-8.1,13.4-12.1
		c7.6-6.8,15.1-13.7,22.2-21c2-2,4-4.2,4.9-6.9c0.5-1.5,0.7-3.1,1.8-4.2c0.7-0.6,1.6-1,2.4-1.3c3.7-1.3,7.5-2.3,11.4-3
		c0.5,3.7,1.9,7.2,3.5,10.6c-0.2,0.6-0.3,1.2-0.3,1.9c0,2.3,1.2,4.5,2.3,6.5c1,1.7,2.1,3.4,3.7,4.7c0.9,0.7,1.9,1.3,3,1.6
		C436.1,315,437.3,318.8,439.3,322z"/>
	<path class="st22" d="M488.4,498.1c-13.4,0.7-26.9,0.4-39.9,3.7c-11.3,2.9-22.3,9.2-28.5,18.8c-7.8-5-11.4-14.7-14.5-23.6
		c-1-3-2.1-6-2.6-9.1c-1.5-8.6,0.8-17.3,1-26v0c5-3.2,10.3-5.8,15.9-7.9c16.5-6.3,36.1-7.1,51.3,1.7c0.1,0.2,0.1,0.3,0.2,0.5
		c4.9,14.1,12.5,27.4,17,41.5C488.3,497.8,488.4,497.9,488.4,498.1z"/>
	<path class="st25" d="M481.8,369.5c-4.4,12.8-0.2,25.5-3,38.6c-1,4.5-2.9,8.8-3.5,13.3c-0.5,3.7,0,7.4,0.2,11.2v0
		c0,0.5,0,1,0.1,1.5c0.2,7.4-1.2,14.8-4.1,21.6c-0.1-0.1-0.2-0.1-0.3-0.2c-15.2-8.9-34.7-8-51.3-1.7c-5.5,2.1-10.9,4.8-15.9,7.9
		c0-1,0-2,0-2.9c-0.3-7.2-2.2-13.5-1.6-20.7c0.5-5.1,1.4-10.2,0.9-15.3c-0.5-4.4-2-8.6-2-13c0-2.7,0.6-5.3,1.2-8
		c1.4-6.1,2.9-12.2,4.3-18.3c0.8-3.5,1.6-7,2-10.5c0.4-3.6,0.4-7.2,1.1-10.7c1.1-6.2,4-11.9,5.5-18c1.5-5.9,1.7-12.6,5.9-17.1
		c3.9-4.2,10.2-5.1,15.9-5.3c0.6,0,1.3,0,1.9,0c0.1,0,0.2,0,0.4,0h0c2.4,0,4.8,0.2,7,0.8c4.5,1.3,8.3,4.3,12.2,7
		c2.7,1.9,5.6,3.6,8.6,5.1c2.1,1.1,4.3,2.1,6.5,3c2.7,1.1,5.4,2,8.2,2.8c-0.3,0.9-0.7,1.8-1,2.7c-3.2,8.5-6.4,16.9-9.7,25.3
		c3.3,0.4,6.6,0.6,10,0.8C481.6,369.5,481.7,369.5,481.8,369.5z"/>
	<path class="st26" d="M488.3,338.2c0,2,0,4-0.2,6.1c-2.3-0.2-4.7-0.5-7-0.9c0.3-0.9,0.7-1.8,1-2.7c-2.8-0.8-5.5-1.7-8.2-2.8
		c1.6-0.9,3.2-2.2,4.5-3.5c1.9-1.9,3.4-4,4.9-6.2c0.5-0.7,0.9-1.3,1.3-2c0.9-1.3,1.7-2.6,2.6-3.8c0,0.3,0,0.5,0.1,0.8
		C487.9,328.2,488.3,333.2,488.3,338.2z"/>
	<path class="st8" d="M483.4,328.2c-1.5,2.2-3.1,4.3-4.9,6.2c-1.3,1.3-2.9,2.6-4.5,3.5c-2.1-0.8-4.1-1.7-6.1-2.7
		c2-0.1,4.1-0.5,6-1.2C477.5,332.8,480.7,330.8,483.4,328.2z"/>
	<path class="st3" d="M487.3,322.4c-0.9,1.3-1.7,2.6-2.6,3.8c-0.4,0.7-0.9,1.3-1.3,2c-2.7,2.6-5.9,4.6-9.5,5.8c-1.9,0.6-4,1-6,1.2
		c-0.2-0.1-0.3-0.2-0.5-0.2c-3-1.5-5.8-3.2-8.6-5.1c-3.9-2.6-7.7-5.7-12.2-7c-2.3-0.6-4.7-0.8-7-0.8h0c-0.1,0-0.2,0-0.4,0
		c-2-3.2-3.2-7-4.2-10.7c-0.1-0.4-0.2-0.8-0.3-1.1c-1.3-5-2.7-9.9-3.5-14.8c-0.9-5.3-1.3-10.7-0.4-16.4c2.9,3.9,5.8,7.4,9.6,10.4
		c-0.7-0.6-1-1.6-1.2-2.5c-1.1-5.3-0.8-11,0.7-16.2c1.5,2.1,3.1,3.8,4.9,5.6c4,3.8,9.2,6.1,14.3,8.3c-1.6-3.6-2.3-7.7-1.8-11.6
		c2.4,4.6,6.5,8.7,11.2,11c4.7,2.3,9.9,3.5,15.1,4.3c1,0.1,1.9,0.3,2.9,0.3c-0.4,6.3-0.8,12.6-0.5,19c0.2,4.4,0.6,8.7,1,13
		c0,0,0,0,0,0C487.2,321.2,487.2,321.8,487.3,322.4z"/>
	<path class="st6" d="M483.4,328.2c1.5-1.5,2.9-3.2,4-5c0.3-0.4,0.5-0.9,0.8-1.4"/>
	<linearGradient id="SVGID_1_" gradientUnits="userSpaceOnUse" x1="222.3304" y1="326.0075" x2="132.5693" y2="266.1668">
		<stop  offset="0" style="stop-color:#FFFFFF"/>
		<stop  offset="1" style="stop-color:#000000"/>
	</linearGradient>
	<path class="st27" d="M238,329.1c-1.6,12-7.6,23.4-16.6,31.5c-4.3,3.8-9.3,6.9-14.8,8.3c-3.1-4.9-6.6-9.6-7.6-15.3
		c-0.7-4.2,0-8.4-0.3-12.7c-0.4-5.7-2.7-11-5.4-16.1c-2.3-4.3-4.8-8.5-6.7-13.1c-1.7-4.3-2.7-8.8-3.7-13.3v0
		c-0.2-6.2-0.2-12.4,0.1-18.6c2.1,3.1,4.8,5.9,7.5,8.5c3.5,3.5,7.2,7.1,12,8.5c4,1.2,8.3,0.6,12.4,0c4.7-0.7,7.6-2.7,10.4-6.4
		c2.8-3.7,5.2-7.3,7.2-11c0,5.7-0.1,11.3-0.9,17c-1.5,10.1-5.2,20.2-3.6,30.3C228.4,328.8,233.5,329.1,238,329.1z"/>
	<circle class="st28" cx="123.7" cy="305.1" r="3.1"/>
	<circle class="st28" cx="153.6" cy="306.9" r="3.1"/>
	<circle class="st29" cx="508" cy="270.2" r="3"/>
	<circle class="st30" cx="452" cy="293.2" r="2.5"/>
	<circle class="st30" cx="479.4" cy="294.2" r="2.5"/>
	<circle class="st29" cx="538" cy="268.2" r="3"/>
	<circle class="st31" cx="654.4" cy="292.5" r="2.9"/>
	<circle class="st31" cx="688.5" cy="291.1" r="2.9"/>
	<path class="st32" d="M650.2,346.5c3.5,2.6,7.4,4.1,11.5,5.1c4.1,0.9,8.2,1.5,12.4,1.4l1.6,0l1.6-0.1c1,0,2.1-0.2,3.1-0.3
		c2.1-0.3,4.1-0.7,6.1-1.3c4.1-1.1,8-2.7,11.8-4.7c-0.8,0.7-1.6,1.5-2.5,2.1c-0.4,0.3-0.9,0.6-1.3,1l-1.4,0.9
		c-0.5,0.3-0.9,0.6-1.4,0.8l-1.5,0.8c-0.5,0.2-1,0.4-1.5,0.7c-0.5,0.2-1,0.4-1.5,0.6l-1.6,0.6l-1.6,0.5c-0.5,0.2-1.1,0.3-1.6,0.4
		l-1.6,0.4c-2.2,0.4-4.4,0.7-6.6,0.7c-0.6,0-1.1,0-1.7,0l-1.7-0.1l-1.7-0.2c-0.6,0-1.1-0.1-1.7-0.2l-1.6-0.3l-1.6-0.4
		c-1.1-0.2-2.1-0.6-3.2-1c-2.1-0.7-4.1-1.7-6-2.9C653.2,349.7,651.5,348.3,650.2,346.5z"/>
	<path class="st5" d="M628.8,485.4c7-4,14.3-7.4,21.7-10.4c7.4-3,15.1-5.6,22.8-7.9c7.7-2.2,15.6-4,23.5-5.4
		c7.9-1.4,15.9-2.3,24-2.6c-7.8,1.7-15.7,3.4-23.4,5.3c-7.8,1.9-15.5,3.9-23.1,6c-7.7,2.2-15.3,4.5-22.8,7
		C643.9,480,636.3,482.7,628.8,485.4z"/>
	<path class="st32" d="M512.4,322.9c2.4,1,4.7,1.8,7.1,2.2c2.4,0.5,4.7,0.7,7.1,0.6c2.4-0.1,4.7-0.4,7-1c2.3-0.6,4.6-1.5,6.9-2.7
		c-1.5,2.1-3.7,3.7-6.1,4.8c-2.4,1.1-5.1,1.7-7.7,1.8c-2.7,0.1-5.3-0.4-7.8-1.3C516.4,326.3,514.1,324.9,512.4,322.9z"/>
	<path class="st33" d="M451.7,396.7c-3.4,3.9-6.7,8-9.6,12.2c-2.9,4.2-5.4,8.8-8.4,13.1c-1.5,2.2-3.1,4.3-5,6.2
		c-1.8,1.9-3.8,3.7-5.9,5.3c-4.2,3.2-8.9,5.7-13.9,7.3c4.6-2.4,9-5.2,12.8-8.6c3.9-3.4,7.3-7.2,10.2-11.4c1.5-2.1,2.9-4.3,4.3-6.5
		c1.4-2.2,2.9-4.4,4.5-6.4C444,403.8,447.6,400,451.7,396.7z"/>
	<path class="st12" d="M235,487.7c0.2-3,0.7-6.1,2.3-9c1.6-2.9,4.1-5,6.6-6.8c2.5-1.8,5.2-3.3,8.1-4.5c2.8-1.2,5.8-2,8.8-2.4
		c-2.7,1.5-5.3,2.9-7.8,4.4c-2.5,1.5-5,3.1-7.4,4.8c-2.4,1.7-4.7,3.4-6.3,5.7C237.4,482.2,236.3,485,235,487.7z"/>
	<path class="st12" d="M300,409.2c4.4,6,8.7,12.1,13.2,18c4.5,5.9,9,11.7,13.7,17.4c4.7,5.7,9.5,11.3,14.5,16.8
		c5,5.5,10,10.9,15.1,16.4c-6.1-4.4-11.7-9.3-17.1-14.4c-5.4-5.2-10.5-10.7-15.2-16.5c-4.7-5.8-9.2-11.8-13.2-18.1
		C306.9,422.4,303.2,415.9,300,409.2z"/>
	<path class="st34" d="M219.3,331.7c-1.1,1.8-2.3,3.5-3.6,5.1c-1.3,1.6-2.7,3.2-4.2,4.7c-1.5,1.5-3,2.9-4.6,4.2
		c-1.6,1.3-3.3,2.6-5.1,3.7c1.2-1.7,2.6-3.3,3.9-4.9c1.4-1.6,2.8-3.1,4.2-4.5c1.5-1.5,2.9-2.9,4.5-4.3
		C216,334.4,217.6,333,219.3,331.7z"/>
	<path class="st35" d="M108.5,517.5c4.2-1.8,8.2-3.6,12.2-5.6c4-2,8-4,12.1-5.9c4.1-1.9,8.3-3.7,12.7-5c4.4-1.3,8.9-2.2,13.5-2.2
		c-4.3,1.4-8.5,3-12.5,4.8c-4.1,1.8-8.1,3.7-12.1,5.6c-4.1,1.9-8.2,3.7-12.5,5.3C117.5,515.9,113.1,517.1,108.5,517.5z"/>
	<path class="st34" d="M126.3,401.4c0.9,0.6,1.8,0.6,2.9,0.6c1,0.1,2,0.1,3,0.1c2,0.1,4,0.1,6,0c2-0.1,4-0.2,5.9-0.4
		c2-0.2,4-0.4,6-0.6c-1.8,1-3.8,1.7-5.8,2.3c-2,0.5-4.1,0.8-6.2,0.8c-2.1,0.1-4.2-0.1-6.2-0.5c-1-0.2-2-0.5-3-0.8
		c-0.5-0.2-1-0.3-1.5-0.6C127,402.2,126.5,401.8,126.3,401.4z"/>
	<path class="st34" d="M40,537.7c1.3,1.4,2.6,2.8,3.8,4.2l3.6,4.2l3.5,4.3c1.2,1.5,2.3,2.9,3.4,4.5c-1.7-0.9-3.2-2.1-4.6-3.3
		c-1.4-1.3-2.7-2.6-3.9-4.1c-1.2-1.5-2.3-3-3.3-4.6C41.5,541.2,40.6,539.5,40,537.7z"/>
	<path class="st34" d="M218.6,533.2c0.2,1.3,0.2,2.5,0.1,3.7c-0.1,1.2-0.3,2.4-0.5,3.6c-0.2,1.2-0.6,2.4-1,3.5
		c-0.4,1.2-0.9,2.3-1.5,3.4c-0.2-1.3-0.2-2.5-0.1-3.7c0.1-1.2,0.3-2.4,0.5-3.6c0.2-1.2,0.6-2.4,1-3.5
		C217.5,535.4,218,534.3,218.6,533.2z"/>
	<path class="st36" d="M541.2,487.3c0.7-1.1,1.3-2.3,1.7-3.5c0.5-1.2,0.9-2.4,1.2-3.7c0.7-2.5,1.3-5,2.1-7.6c1.6-5,3-10,4.2-15.1
		c1.2-5.1,2.3-10.1,3.2-15.3c0.9-5.1,1.8-10.3,2.6-15.5c0.9-5.2,1.7-10.4,2.8-15.6c1.1-5.2,2.3-10.4,4.2-15.4
		c1.8-5,4.3-9.9,7.5-14.2c3.2-4.3,7.2-8.1,11.9-10.6c-4.1,3.3-7.5,7.3-10.1,11.7c-1.3,2.2-2.5,4.5-3.5,6.9c-1,2.4-1.9,4.8-2.6,7.2
		c-0.4,1.2-0.7,2.5-1,3.7c-0.3,1.2-0.6,2.5-0.9,3.8c-0.6,2.5-1.1,5.1-1.5,7.6c-0.9,5.1-1.7,10.3-2.6,15.5
		c-0.9,5.2-1.8,10.4-2.8,15.6c-1.1,5.2-2.4,10.3-4,15.4c-0.8,2.5-1.6,5.1-2.5,7.5c-0.9,2.5-1.9,5-2.9,7.4c-1,2.4-1.8,4.9-2.9,7.3
		C544.2,482.9,542.9,485.3,541.2,487.3z"/>
	<path class="st12" d="M280.5,361.4c1.6,6.8,1.8,13.9,1.4,20.8c-0.4,7-1.2,13.9-1.7,20.7c-0.2,3.4-0.3,6.8-0.3,10.2
		c0,3.4,0.1,6.9,0.2,10.3c0.1,3.5,0.2,6.9,0.2,10.5c0,3.5-0.2,7-0.4,10.5c-0.9,14-3.1,27.6-4.1,41.3c-0.3,3.4-0.4,6.9-0.6,10.3
		c-0.2,3.4-0.3,6.9-0.3,10.3c0,1.7,0,3.5,0,5.2c0,1.7,0,3.4,0.1,5.1c0.2,3.4,0.7,6.8,1.5,10.2c-1.4-3.2-2.3-6.6-2.9-10.1
		c-0.3-1.7-0.5-3.5-0.7-5.2c-0.2-1.7-0.3-3.5-0.5-5.2c-0.5-6.9-0.7-13.9-0.5-20.9c0.3-14,2.2-27.8,3.1-41.5
		c0.2-3.4,0.4-6.8,0.4-10.2c0.1-3.4,0-6.9,0-10.3c0-6.9,0-14,1-21c0.4-3.5,1-6.9,1.5-10.3c0.6-3.4,1.1-6.8,1.6-10.2
		C280.5,375.2,281,368.3,280.5,361.4z"/>
	<path class="st33" d="M421.5,366.3c6.7,1,13.3,1.5,20,1.9c6.7,0.4,13.4,0.7,20.1,1.7c1.7,0.2,3.4,0.6,5,0.9l2.5,0.5l0.2,0
		c0,0-0.1,0-0.1,0c-0.1,0-0.1,0-0.2,0c-0.1,0-0.2,0.1-0.3,0.2c0,0.1-0.1,0.1-0.1,0.2c0,0.1,0,0,0-0.1l0.1-0.1l0.2-0.6
		c1.3-3.1,2.5-6.2,3.9-9.3c1.3-3.1,2.7-6.2,4-9.2c0.7-1.5,1.4-3.1,2.1-4.6c0.7-1.5,1.4-3.1,2.3-4.5c-0.3,0.7-0.5,1.6-0.7,2.4
		l-0.7,2.4c-0.5,1.6-0.9,3.2-1.4,4.8c-1,3.2-2,6.4-3.1,9.6c-1,3.2-2.2,6.4-3.3,9.5l-0.2,0.6l-0.1,0.1c0,0.1,0,0.1-0.1,0.2
		c-0.1,0.3-0.3,0.5-0.4,0.7c-0.4,0.4-0.9,0.7-1.4,0.8c-0.3,0.1-0.6,0.1-0.8,0.1c-0.1,0-0.3,0-0.4-0.1l-0.2,0l-2.4-0.5
		c-1.6-0.3-3.3-0.6-4.9-0.8c-6.5-1-13.2-1.5-19.9-2.5C434.5,370,427.8,368.7,421.5,366.3z"/>
	<path class="st34" d="M385.1,220.6c-1,3.4-2.2,6.7-3.9,9.8c-0.8,1.6-1.8,3.1-2.9,4.5c-1.1,1.4-2.3,2.7-3.7,3.9
		c-0.7,0.6-1.4,1.1-2.2,1.6c-0.8,0.5-1.6,0.9-2.4,1.3c-1.6,0.8-3.3,1.5-5,2c-3.4,1.1-7,1.6-10.6,1.8c-3.6,0.1-7.1-0.3-10.6-1
		c-0.9-0.2-1.7-0.4-2.6-0.7c-0.9-0.3-1.7-0.6-2.6-0.9c-1.7-0.7-3.3-1.7-4.7-2.9c-1.4-1.2-2.6-2.5-3.6-4c-1-1.5-1.9-3-2.8-4.5
		c-1.6-3.1-3.1-6.3-4.2-9.6c1.6,3.1,3.2,6.2,5.1,9.1c1.8,2.9,3.9,5.7,6.6,7.8c1.3,1,2.8,1.8,4.3,2.4c0.8,0.3,1.6,0.6,2.4,0.8
		c0.8,0.2,1.7,0.4,2.5,0.6c3.3,0.7,6.8,1,10.2,0.9c3.4-0.1,6.8-0.6,10-1.6c1.6-0.5,3.2-1,4.8-1.7c1.6-0.7,3-1.5,4.3-2.5
		c2.7-2,4.9-4.7,6.7-7.6C382.2,227,383.7,223.8,385.1,220.6z"/>
	<path class="st32" d="M232.6,279.4c-1.4,3.1-3.1,6-5,8.8c-1,1.4-1.9,2.8-3,4.2c-1.1,1.3-2.4,2.5-4,3.5c-1.5,0.9-3.3,1.5-5,1.8
		c-1.7,0.3-3.4,0.5-5.1,0.7c-1.7,0.2-3.5,0.2-5.2,0c-1.8-0.2-3.5-0.6-5.2-1.4c-3.3-1.5-5.9-3.8-8.4-6.2c-1.2-1.2-2.4-2.4-3.6-3.6
		c-1.2-1.2-2.3-2.5-3.4-3.8c-2.2-2.7-4-5.7-5-9c-1-3.4-0.9-6.8-0.8-10.1c0.3,3.3,0.6,6.7,1.8,9.8c1.2,3.1,3.1,5.8,5.3,8.3
		c2.2,2.5,4.6,4.8,7.1,7.1c2.4,2.3,4.9,4.4,7.8,5.7c2.9,1.3,6.1,1.5,9.4,1.3c1.6-0.1,3.3-0.3,4.9-0.6c1.6-0.2,3.1-0.7,4.5-1.4
		c1.4-0.7,2.6-1.8,3.8-3c1.1-1.2,2.1-2.5,3.2-3.8C228.8,285,230.8,282.3,232.6,279.4z"/>
	<path class="st32" d="M164.2,344.4c-2.4,5.2-5.7,10.1-10.1,14.1c-2.2,2-4.7,3.6-7.3,4.9c-2.7,1.2-5.6,2.1-8.6,2.4
		c-3,0.3-6-0.1-8.9-1c-2.8-0.9-5.5-2.2-8-3.8c-4.9-3.1-9.2-7.3-12.3-12.2c3.8,4.3,8.2,8,13.1,10.8c2.5,1.3,5,2.5,7.7,3.2
		c2.7,0.7,5.4,1.1,8.1,0.8c5.5-0.5,10.7-3,15.1-6.4C157.5,353.7,161,349.2,164.2,344.4z"/>
	<path class="st37" d="M701.6,261.8c-4.3,3.8-9.1,7-14.2,9.7c-2.5,1.4-5.2,2.5-7.9,3.6c-2.7,1-5.5,1.9-8.2,2.7
		c-2.8,0.7-5.6,1.3-8.5,1.8c-2.8,0.5-5.7,0.9-8.5,1.2c-5.6,0.8-11.2,1.5-16.8,2.8c5.2-2.4,10.9-3.8,16.4-5c2.8-0.6,5.6-1.1,8.4-1.7
		c2.8-0.6,5.5-1.2,8.2-1.9c2.7-0.7,5.4-1.5,8-2.5c2.7-0.9,5.3-2,7.9-3.1C691.7,267.3,696.7,264.7,701.6,261.8z"/>
	<path class="st34" d="M466.8,534.4c1.5,1.7,3,3.4,4.5,5.2c1.5,1.7,2.9,3.5,4.4,5.3c1.4,1.8,2.9,3.6,4.2,5.4c0.7,0.9,1.4,1.8,2,2.8
		c0.6,1,1.1,2.1,1.3,3.2c-0.4-1.1-0.9-2.1-1.6-3c-0.7-0.9-1.4-1.8-2.1-2.7c-1.5-1.7-2.9-3.5-4.4-5.3c-1.4-1.8-2.9-3.6-4.2-5.4
		C469.5,538.1,468.1,536.3,466.8,534.4z"/>
	<path class="st34" d="M578.9,511.2c-1.6,2.9-3.1,5.7-5.1,8.4c-1.9,2.6-4.3,5.1-7.3,6.6c-0.7,0.4-1.5,0.7-2.3,1
		c-0.8,0.3-1.6,0.5-2.3,0.7c-1.6,0.5-3.2,0.9-4.7,1.3c-3.2,0.8-6.4,1.3-9.6,1.8c-6.4,1-13,1.7-19.5,1.9c-3.3,0.1-6.5,0.1-9.8,0.1
		c-1.6,0-3.3-0.1-4.9-0.1c-1.6-0.1-3.3-0.2-4.9-0.3l-9.8-0.7c-3.2-0.3-6.5-0.7-9.7-1c-6.5-0.8-12.9-1.4-19.4-2.2
		c-3.3-0.3-6.5-1.3-9.6-1.4c-1.6-0.1-3.1,0.1-4.3,1c-1.2,0.8-2.1,2.2-3.2,3.5c-4.2,5-8.2,10.1-12.1,15.3c3.5-5.5,7.3-10.8,11.2-15.9
		c1-1.3,1.8-2.7,3.3-3.8c0.7-0.5,1.6-0.9,2.4-1.1c0.9-0.2,1.7-0.2,2.6-0.2c3.4,0.1,6.5,1,9.7,1.2l19.4,1.9c3.2,0.3,6.5,0.7,9.7,1
		l9.7,0.6c12.9,0.9,25.9,0.6,38.7-1.2c3.2-0.4,6.4-0.9,9.6-1.5c1.6-0.3,3.2-0.7,4.7-1.1c0.8-0.2,1.6-0.4,2.3-0.7
		c0.8-0.2,1.5-0.5,2.2-0.8c2.9-1.3,5.3-3.5,7.3-6C575.5,516.7,577.2,513.9,578.9,511.2z"/>
	<path class="st31" d="M680,293.4c0.2-1.7,1.5-3.3,3-4.3c1.6-1,3.4-1.4,5.3-1.2c1.8,0.2,3.6,0.8,5,1.8c1.5,1,2.7,2.2,3.7,3.6
		c-1.5-0.8-3-1.5-4.5-2.1c-1.5-0.6-2.9-1-4.4-1.2c-1.5-0.1-3,0.1-4.4,0.6C682.4,291.1,681.1,292,680,293.4z"/>
	<path class="st31" d="M645.5,294.7c0.6-1.6,1.8-2.9,3.2-3.9c1.4-1,3.2-1.6,4.9-1.7c1.8-0.1,3.6,0.3,5.1,1.1c1.5,0.8,2.9,2,3.6,3.5
		c-1.4-0.9-2.8-1.5-4.2-2c-1.4-0.4-2.9-0.6-4.3-0.5c-1.4,0.1-2.9,0.4-4.3,1C648.2,292.9,646.8,293.7,645.5,294.7z"/>
	<path class="st38" d="M686.4,325.2c-2.1,1.7-4.7,2.9-7.4,3.8c-2.7,0.8-5.5,1.2-8.3,1.1c-2.8-0.1-5.6-0.6-8.2-1.5
		c-2.6-0.9-5.1-2.3-7.2-4.1c2.6,0.8,5.2,1.5,7.8,1.9c2.6,0.5,5.1,0.7,7.7,0.8c2.6,0.1,5.2-0.1,7.8-0.4
		C681.2,326.5,683.8,325.9,686.4,325.2z"/>
	<path class="st34" d="M656.7,312.7c-1,1.1-2,2.2-3,3.2c-1,1-2,2.1-2.6,3.3c-0.7,1.3-1,2.6-1.3,4.1c-0.3,1.4-0.4,2.9-0.6,4.3
		c-0.1-1.5-0.1-2.9,0.1-4.4c0.2-1.5,0.5-2.9,1.2-4.3c0.4-0.7,0.8-1.3,1.3-1.9c0.5-0.6,1-1.1,1.6-1.6
		C654.4,314.5,655.5,313.6,656.7,312.7z"/>
	<path class="st34" d="M686.7,313.6c2.3,1.1,4.4,2.6,6.4,4.2c1,0.8,2,1.6,2.8,2.7c0.8,1,1.2,2.5,0.8,3.7c0.1-1.3-0.5-2.5-1.2-3.4
		c-0.8-0.9-1.8-1.7-2.8-2.5C690.7,316.7,688.7,315.2,686.7,313.6z"/>
	<path class="st34" d="M675.9,313.7c-1.1,0.6-2.4,1-3.6,1.2c-1.2,0.2-2.5,0.3-3.8,0.2c-1.3-0.1-2.5-0.3-3.7-0.7
		c-1.2-0.4-2.4-1-3.4-1.8c1.3,0,2.5,0.1,3.7,0.1l3.6,0.3l3.5,0.3C673.5,313.4,674.7,313.5,675.9,313.7z"/>
	<path class="st39" d="M677.6,284.6c1.3-1.7,3.1-3,5.1-3.9c2-0.9,4.1-1.4,6.3-1.5c2.2-0.1,4.4,0.2,6.4,0.9c2,0.7,3.9,1.9,5.4,3.5
		c-2-0.6-4-1-5.9-1.3c-1.9-0.3-3.9-0.4-5.8-0.3c-1.9,0.1-3.8,0.3-5.7,0.8C681.4,283.2,679.6,283.8,677.6,284.6z"/>
	<path class="st39" d="M642.5,285.6c0.6-1.8,2.2-3.4,4-4.3c1.8-0.9,3.9-1.3,5.9-1.2c2,0.1,3.9,0.7,5.7,1.5c1.7,0.9,3.3,2,4.6,3.4
		c-1.9-0.4-3.6-0.9-5.4-1.3c-1.7-0.4-3.4-0.7-5.1-0.8c-1.6-0.1-3.3,0.1-4.9,0.5C645.6,283.8,644,284.5,642.5,285.6z"/>
	<path class="st31" d="M532.2,269.3c0.6-1.2,1.6-2.3,2.7-3.1c0.6-0.4,1.2-0.7,1.9-1c0.7-0.2,1.4-0.3,2.2-0.4c0.7,0,1.5,0,2.2,0.1
		c0.7,0.1,1.4,0.3,2,0.7c0.6,0.3,1.2,0.7,1.7,1.2c0.5,0.4,1,0.9,1.5,1.5l-0.1,0.2c-0.7-0.1-1.4-0.2-2-0.4c-0.6-0.2-1.3-0.3-1.9-0.5
		c-0.6-0.2-1.2-0.4-1.7-0.6c-0.6-0.2-1.2-0.4-1.7-0.4c-1.2-0.1-2.4,0.1-3.5,0.6c-1.1,0.5-2.2,1.3-3.1,2.3L532.2,269.3z"/>
	<path class="st31" d="M499.7,271.2c0.3-0.7,0.7-1.3,1.2-1.8c0.5-0.5,1.1-1,1.7-1.3c0.6-0.4,1.4-0.6,2.1-0.7
		c0.7-0.1,1.5-0.1,2.2-0.1c0.7,0,1.5,0.1,2.2,0.3c0.7,0.2,1.4,0.5,2,0.8c1.2,0.6,2.4,1.4,3.5,2.2l-0.1,0.2c-1.3-0.5-2.5-1.1-3.7-1.4
		c-1.3-0.4-2.5-0.5-3.7-0.4c-1.2,0.1-2.3,0.7-3.5,1.1c-1.2,0.4-2.3,0.9-3.7,1.4L499.7,271.2z"/>
	<path class="st31" d="M495.7,264.9c0.8-1.7,2.5-2.9,4.3-3.5c1.8-0.6,3.8-0.7,5.6-0.5c0.9,0.1,1.8,0.2,2.7,0.4
		c0.9,0.2,1.8,0.5,2.7,0.9c1.8,0.9,3.1,2.2,4.3,3.6c-1.7-0.7-3.3-1.6-4.9-2.1c-1.6-0.4-3.3-0.6-5.1-0.7c-1.7-0.2-3.4-0.2-5.1,0
		C498.8,263.3,497.2,263.8,495.7,264.9z"/>
	<path class="st31" d="M527.4,263.5c1.1-1.2,2.4-2.2,3.8-3c1.4-0.8,2.8-1.5,4.3-2.1c1.5-0.6,3.2-1.1,5-0.9c1.7,0.2,3.4,1,4.5,2.2
		c-1.6-0.5-3-0.7-4.5-0.5c-1.4,0.1-2.7,0.6-4.2,1.2c-1.4,0.6-2.9,1.1-4.4,1.7C530.4,262.5,528.9,263.1,527.4,263.5z"/>
	<path class="st40" d="M539,297.8c-1.7,4.3-4.4,8.9-8.5,11.1c-4.1,2.2-9.3,2.2-13.5,0.3c-4.8-2.1-7.9-5.9-9-11
		c0.3,0.1,0.6,0.1,0.9,0.2c2,3,4.7,5.6,8.2,6.7c3.9,1.2,8.2,0.9,12-0.5c3.3-1.2,7-3.2,8.7-6.5C538.2,298,538.6,297.9,539,297.8z"/>
	<path class="st41" d="M538,297.5c0,0.1-0.1,0.2-0.1,0.3c0,0.1-0.1,0.2-0.1,0.3c-9.5,2.2-19.4,2.3-28.9,0.3c0,0-0.1-0.1-0.1-0.1
		c0,0,0,0,0,0c0,0,0,0,0,0h0c0,0,0,0,0,0c3.1-0.1,6.2-0.2,9.4-0.3c0.9,0,1.8-0.1,2.6,0.1c0.2,0,0.3,0.1,0.5,0.1c0,0,0,0,0,0
		c0.7,0.2,1.3,0.5,2,0.3c0.4-0.1,0.7-0.2,1.1-0.4c0.2-0.1,0.4-0.2,0.6-0.3c0.6-0.2,1.2-0.3,1.8-0.3
		C530.4,297.1,534.3,296.8,538,297.5z"/>
	<path class="st23" d="M537.8,298.1c-1.7,3.2-5.4,5.3-8.7,6.5c-3.8,1.4-8.1,1.6-12,0.5c-3.5-1.1-6.2-3.6-8.2-6.7
		C518.3,300.4,528.3,300.3,537.8,298.1z"/>
	<path class="st34" d="M527.4,290.3c-0.6,0.9-1.6,1.6-2.6,2c-1,0.4-2.2,0.7-3.3,0.6c-1.1,0-2.3-0.2-3.3-0.7c-0.5-0.2-1-0.5-1.5-0.8
		c-0.4-0.3-0.9-0.7-1.2-1.1c0.6,0,1.1,0.1,1.6,0.2c0.5,0,1,0.2,1.5,0.2c1,0.1,1.9,0.2,2.9,0.2c0.9,0,1.9,0,2.9-0.1
		C525.3,290.6,526.3,290.5,527.4,290.3z"/>
	<path class="st34" d="M361.7,202.9c-0.8,1.2-2,2-3.2,2.6c-1.2,0.6-2.6,1.1-4,1.2c-1.4,0.2-2.9,0.1-4.2-0.3
		c-1.4-0.4-2.6-1.2-3.5-2.3c1.4,0,2.7,0.2,3.9,0.1c1.2,0,2.4-0.1,3.6-0.3c1.2-0.2,2.4-0.3,3.6-0.5C359,203.2,360.3,203,361.7,202.9z
		"/>
	<path class="st34" d="M470.2,308.5c-0.6,0.9-1.6,1.6-2.6,2c-1,0.4-2.2,0.7-3.3,0.6c-1.1,0-2.3-0.2-3.3-0.7c-0.5-0.2-1-0.5-1.5-0.8
		c-0.4-0.3-0.9-0.7-1.2-1.1c0.6,0,1.1,0.1,1.6,0.2c0.5,0,1,0.2,1.5,0.2c1,0.1,1.9,0.2,2.9,0.2c0.9,0,1.9,0,2.9-0.1
		C468.1,308.9,469.1,308.7,470.2,308.5z"/>
	<path class="st31" d="M485.8,294.6c-0.5-0.4-1-0.6-1.5-0.8c-0.5-0.2-1.1-0.4-1.6-0.6c-1.1-0.4-2.2-0.6-3.2-0.7
		c-1.1-0.1-2.1,0-3.2,0.4c-1,0.3-2.1,0.9-3.1,1.6c0.6-1.1,1.5-2,2.6-2.6c1.1-0.6,2.5-0.9,3.7-0.8c1.3,0.1,2.5,0.5,3.6,1.1
		c0.5,0.3,1,0.6,1.5,1C485.1,293.6,485.5,294,485.8,294.6z"/>
	<path class="st31" d="M457.6,294.5c-0.3-0.6-0.8-0.9-1.2-1.3c-0.5-0.3-1-0.6-1.5-0.9c-1.1-0.5-2.2-0.7-3.3-0.7
		c-1.1,0-2.3,0.1-3.4,0.5c-1.1,0.3-2.2,0.8-3.4,1.4c0.8-1,1.8-1.9,3-2.4c1.2-0.6,2.5-0.9,3.9-0.9c1.3,0,2.7,0.4,3.8,1.2
		c0.6,0.4,1.1,0.8,1.5,1.3c0.2,0.3,0.4,0.5,0.5,0.8C457.5,293.9,457.6,294.2,457.6,294.5z"/>
	<path class="st40" d="M450.7,317.9c1.9,0.8,3.9,1.4,5.8,1.8c1.9,0.4,3.9,0.6,5.9,0.6c2,0,4-0.1,6-0.3c2-0.2,4-0.5,6.2-0.6
		c-1.9,1-3.8,1.7-5.9,2.2c-2,0.5-4.2,0.8-6.3,0.8c-2.1,0-4.3-0.4-6.3-1.1C454.1,320.5,452.1,319.4,450.7,317.9z"/>
	<path class="st24" d="M445.2,287c1.3-1.7,3.7-2.2,5.8-1.7s3.9,1.6,5.7,2.7"/>
	<path class="st24" d="M473.3,288.1c1.1-1.5,2.8-2.3,4.6-2.7c1.8-0.3,3.6-0.1,5.4,0.3"/>
	<path class="st42" d="M357.9,175.4c2.2-3.5,6.8-5.4,11.3-4.7c2.1,0.3,4.2,1.3,5.9,2.4s3.3,2.5,4.6,4c-1.9-0.6-3.8-1.6-5.5-2.3
		c-1.7-0.8-3.5-1.3-5.3-1.6C365.2,172.4,361.4,173.4,357.9,175.4z"/>
	<path class="st42" d="M321.8,181.1c0.8-2.2,2.5-4.2,4.5-5.7s4.4-2.4,7-2.9c2.6-0.3,5.1-0.1,7.4,0.7s4.4,2.3,5.9,4.2
		c-2.2-1.2-4.2-2-6.4-2.4c-2.1-0.5-4.4-0.6-6.5-0.3c-2.2,0.3-4.2,1.1-6.2,2C325.3,178.1,323.4,179.5,321.8,181.1z"/>
	<path class="st42" d="M358.9,181.3c0.9-1.4,2.1-2.6,3.3-3.4c1.3-1,3.1-1.4,4.7-1.3c1.7,0.1,3.2,0.8,4.6,1.7c1.4,0.9,2.6,1.9,3.6,3
		c-1.4-0.7-2.8-1.6-4-2.3c-1.4-0.7-2.8-1.3-4.2-1.3C364.2,177.5,361.4,179.3,358.9,181.3z"/>
	<path class="st42" d="M326.1,184.2c0.6-1.6,1.6-3.1,2.9-4.1c1.3-1.1,3.1-1.7,4.8-2c1.7-0.1,3.5,0.2,5.1,0.9
		c1.6,0.7,2.7,1.9,3.9,3.3c-1.4-0.9-2.9-1.8-4.4-2.3c-1.4-0.5-3.1-0.8-4.6-0.7C330.9,179.7,328,181.5,326.1,184.2z"/>
	
		<ellipse transform="matrix(0.1436 -0.9896 0.9896 0.1436 136.6679 517.5511)" class="st43" cx="367.4" cy="179.8" rx="2.8" ry="3"/>
	
		<ellipse transform="matrix(0.1436 -0.9896 0.9896 0.1436 106.8464 486.2826)" class="st43" cx="334.4" cy="181.4" rx="2.8" ry="3"/>
	<path class="st44" d="M337.4,216.4c0,0,18.2,9.5,33-2"/>
	<path class="st17" d="M183.9,229.2c0.5-1.7,2.2-2.7,3.8-3.3c4.6-1.6,10-0.5,13.7,2.6"/>
	<path class="st17" d="M217.4,230.9c0.2-1,1-1.7,1.9-2.1c0.9-0.4,1.9-0.4,2.9-0.4c0.9,0,1.7-0.1,2.6-0.1c1.7-0.1,3.4-0.1,5.1,0.4
		s3.2,1.5,3.8,3.1"/>
	<path class="st42" d="M216.2,256.7c-0.5,0.9-1.2,1.7-2,2.3c-0.9,0.6-2,1-3.2,1c-0.6,0-1.2-0.2-1.7-0.5c-0.5-0.3-1-0.6-1.3-1
		c-0.7-0.7-1.2-1.5-1.9-2.3c1.1,0.1,2,0.6,2.8,1c0.8,0.4,1.5,0.6,2.2,0.7c0.7,0,1.5-0.1,2.3-0.4
		C214.2,257.3,215.1,256.9,216.2,256.7z"/>
	<path class="st38" d="M221.5,271.1c-1.5,1.5-3.6,2.5-5.7,3c-2.1,0.5-4.3,0.6-6.5,0.4c-2.2-0.2-4.2-0.8-6.2-1.7
		c-1.9-0.8-3.8-1.9-5.4-3.3c2.1,0.3,4.1,0.8,6.1,1.2c2,0.4,3.9,0.8,5.8,1c1.9,0.2,3.9,0.3,5.8,0.2
		C217.5,271.9,219.4,271.6,221.5,271.1z"/>
	<path class="st45" d="M218.4,239.5c0.3-1.4,1.4-2.6,2.7-3.3c1.3-0.7,2.9-1,4.4-0.7c1.5,0.2,2.9,0.9,4,1.9c1.1,0.9,2,2.1,2.5,3.4
		c-1.2-0.8-2.3-1.5-3.4-2c-1.1-0.6-2.2-1-3.4-1.2c-1.1-0.2-2.3-0.1-3.5,0.2C220.6,238,219.5,238.6,218.4,239.5z"/>
	<path class="st45" d="M187.5,239.2c0.1-1.5,1-2.9,2.2-3.9c1.3-1,2.9-1.5,4.5-1.4c1.6,0,3.2,0.6,4.4,1.5c1.2,0.9,2.2,2.1,2.7,3.5
		c-1.2-0.9-2.4-1.6-3.6-2.1c-1.2-0.5-2.4-0.8-3.6-0.8c-1.2,0-2.4,0.2-3.6,0.7C189.5,237.3,188.4,238.1,187.5,239.2z"/>
	<circle class="st46" cx="225.2" cy="238.6" r="2.6"/>
	<circle class="st46" cx="194.5" cy="237.1" r="2.6"/>
	<path class="st47" d="M148.4,340.2c-6.6,3.7-15.3,3-21.3-1.6"/>
	<path class="st31" d="M115.7,306c0.2-0.8,0.5-1.5,1-2.2c0.4-0.7,1-1.3,1.7-1.8c0.7-0.5,1.6-0.8,2.4-0.9c0.9-0.1,1.7-0.1,2.5,0.1
		c1.6,0.2,3.1,0.9,4.4,1.8c1.3,0.9,2.3,2,3.3,3.2l-0.2,0.1c-1.2-0.9-2.4-1.8-3.7-2.4c-1.3-0.6-2.6-1-4-1.1c-0.7,0-1.3,0.1-1.9,0.3
		c-0.6,0.2-1.2,0.4-1.7,0.7c-1.2,0.5-2.3,1.4-3.6,2.2L115.7,306z"/>
	<path class="st31" d="M146.3,308.1c0.6-1.3,1.5-2.5,2.7-3.5c0.6-0.4,1.3-0.8,2.1-1.1c0.8-0.2,1.6-0.3,2.4-0.3
		c0.8,0,1.6,0.1,2.3,0.3c0.8,0.2,1.5,0.5,2.1,1c0.6,0.4,1.2,0.9,1.7,1.5c0.5,0.6,0.9,1.1,1.3,1.8l-0.1,0.2c-0.7-0.2-1.4-0.5-2.1-0.8
		l-1.9-0.9l-1.7-0.8c-0.6-0.3-1.2-0.5-1.8-0.6c-1.2-0.2-2.5,0-3.7,0.6c-1.2,0.6-2.2,1.5-3.1,2.7L146.3,308.1z"/>
	<path class="st19" d="M115.5,297.8c1.9-1.9,4.8-2.4,7.5-2.6c2.2-0.2,6.6-0.1,7.9,2.2"/>
	<path class="st19" d="M147.7,300c0.2-0.9,0.9-1.7,1.8-2.1s1.8-0.5,2.8-0.6c1-0.1,2.1-0.2,3.1-0.3c1.3-0.1,2.6-0.3,3.8,0.1
		c1.2,0.3,2.4,1.3,2.6,2.6"/>
	<path class="st34" d="M145.8,325.9c-0.6,0.9-1.6,1.6-2.6,2c-1,0.4-2.2,0.7-3.3,0.6c-1.1,0-2.3-0.2-3.3-0.7c-0.5-0.2-1-0.5-1.5-0.8
		c-0.4-0.3-0.9-0.7-1.2-1.1c0.6,0,1.1,0.1,1.6,0.2c0.5,0,1,0.2,1.5,0.2c1,0.1,1.9,0.2,2.9,0.2c0.9,0,1.9,0,2.9-0.1
		C143.7,326.2,144.7,326.1,145.8,325.9z"/>
</g>
</svg>
