<?xml version="1.0" encoding="utf-8"?>
<!-- Generator: Adobe Illustrator 25.2.3, SVG Export Plug-In . SVG Version: 6.00 Build 0)  -->
<svg version="1.1" id="Livello_2_1_" xmlns="http://www.w3.org/2000/svg" xmlns:xlink="http://www.w3.org/1999/xlink" x="0px"
	 y="0px" viewBox="0 0 518.2 753.5" style="enable-background:new 0 0 518.2 753.5;" xml:space="preserve">
<style type="text/css">
	.st0{opacity:0.25;fill:url(#SVGID_1_);enable-background:new    ;}
	.st1{fill:#FFFFFF;}
	.st2{fill:#FBD5B5;}
	.st3{fill:#B49374;}
	.st4{fill:#1D1D1B;}
	.st5{fill:#80BFE0;}
	.st6{fill:#94C9E6;}
	.st7{fill:#F5F5F5;}
	.st8{fill:url(#SVGID_2_);}
	.st9{fill:#0685B3;}
	.st10{fill:#EAEAEA;}
	.st11{fill:#C6C6C5;}
	.st12{fill:#755747;}
	.st13{fill:#0286B5;}
	.st14{fill:#0E6A8C;}
	.st15{fill:#967C60;}
	.st16{fill:#DA8B68;}
	.st17{fill:#ADADAD;}
	.st18{fill:#9C9B9B;}
	.st19{fill:#806955;}
	.st20{fill:#443930;}
	.st21{fill:#645345;}
	.st22{fill:#9C8065;}
	.st23{fill:none;}
	.st24{fill:#D7BB77;}
	.st25{fill:#F3F3F3;}
	.st26{fill:#494949;}
	.st27{fill:#E9CD7F;}
	.st28{opacity:5.000000e-02;fill:url(#SVGID_3_);enable-background:new    ;}
	.st29{fill:#DF9D86;}
	.st30{opacity:0.5;fill:#B49374;enable-background:new    ;}
	.st31{opacity:0.3;}
	.st32{fill:#423C36;}
	.st33{fill:#D6BA7C;}
	.st34{fill:#353535;}
	.st35{fill:#F2CEB3;}
</style>
<g>
	
		<radialGradient id="SVGID_1_" cx="-346.6107" cy="-2888.6433" r="153.3036" gradientTransform="matrix(1.6566 0 0 -0.2042 838.3953 132.3391)" gradientUnits="userSpaceOnUse">
		<stop  offset="0" style="stop-color:#000000;stop-opacity:0.6"/>
		<stop  offset="1" style="stop-color:#000000;stop-opacity:0"/>
	</radialGradient>
	<ellipse class="st0" cx="264.2" cy="722.2" rx="254" ry="31.3"/>
	<g>
		<g>
			<g>
				<path class="st1" d="M394.8,522c-3.8,2.3-8.9,2.9-13.4,3.3c-6.5,0.5-12.9,1.1-19.3,1.6c-1.9,0.1-3.7,0.3-5.6,0.4
					c-18.4,1.5-36.7,2.5-55,3.2c-6.4,0.3-12.9,0.4-19.2,0.5c-20.1,0.4-40.4,0.1-61-1.2c0,0-1.3-0.1-2-0.1c0,0,0.8-2.9,0.9-3.3
					c6.1-35.6,15.8-61.6,9.9-96.9c-4-23.5-2.4-47.4,0.3-71.2c1.9-16.6,4.4-33.1,6.1-49.8c0.4-4.1,0.8-8.2,1.1-12.3
					c0.3-3.2,1.1-7.2,0.5-10.3c-1.2-6.9-7.2-13-9.7-19.5c-3.6-9.1-2.5-19.3-2.7-29.2c-0.1-7.7-0.9-15.4-2.5-22.9
					c4.6,9.1,10.7,17.6,16.8,25.7c6,8,12.2,15.9,20.7,21.1c7.6,4.6,16.3,6.8,24.9,8.5c27.7,5.8,55.9,9,84.1,9.5
					c0.5-9.7-1.2-18.2-2-27.8c5.2,14,8.9,29.6,11.4,45.3l0,0c2.8,17.4,4.2,35.1,4.6,51.9l0,0c0,2,0,4,0.1,6
					c0.1,33.4-1.7,66.9,2.1,100.2C388.7,477.3,393.9,499.6,394.8,522z"/>
			</g>
			<path class="st1" d="M369.8,279.5c-28.2-0.5-56.5-3.7-84.1-9.5c-8.6-1.9-17.4-4-24.9-8.5c-8.5-5.2-14.7-13.1-20.7-21.1
				c-6.1-8.2-12.2-16.7-16.8-25.7l0,0c-2.5-4.9-4.6-9.9-6.1-15.4c-3.8-14-3.2-29-2.4-43.6c0.4-7.8,1.1-16.2,6.2-22
				c4.4-4.9,10.9-7,17-9.5c3.6-1.5,7.2-3.2,10.1-5.8c1.6-1.3,2-2.3,2.7-4.1c0.7-1.7,1.9-3.2,3.3-4.4c1.3-0.9,2.7-1.7,4.1-2.4
				c-0.1,2.8,0.1,5.2,1.1,6.6c8,12.3,16.2,26.9,26.4,37.4c2.1-4.6,4.4-9.3,7.8-13c2.8-3,6.6-5.6,10.7-6.1c0.8,0.7,1.5,1.2,2.3,1.9
				c0.1,0.1,0.4,0.4,0.5,0.5c3.2,3.2,5.4,7.3,7.7,11.1c1.9,3.2,3.4,6.4,5,9.7c3.8,8.2,7,16.6,8.7,25.6v0.1c0,7.8,0,15.8,1.2,23.6
				c-0.3,0-0.4,0-0.7,0c-1.2,0.1-2.5,0.3-3.3,1.2c-0.5,0.5-0.8,1.3-0.9,2.1h-0.3c-11-1.5-22.4-6.1-32.9-9.5c-10.6-3.4-22-6-32.7-3
				c-1.1,0.3-2,0.7-2.7,1.5c-0.7,0.8-1.1,2.1-0.4,3c0.4,0.7,1.2,0.9,1.9,1.2c4.5,1.5,9.4,0.5,13.9,1.1c-0.5,0.1-0.9,0.3-1.5,0.5
				c-4.8,1.9-9.1,4.6-13.4,7.4c-1.1,0.7-2.3,1.6-2.5,2.9c-0.3,1.2,0.5,2.4,1.6,2.9s2.4,0.5,3.6,0.3c1.2-0.3,2.3-0.9,3.3-1.5
				c4.4-2.3,8.7-4.4,13.5-5.7c4.6-1.3,10.1-0.3,14.8,0.5c-9.8,0.3-19.5,2.8-28.2,7.3c-1.3,0.7-2.9,1.9-2.7,3.3
				c0.1,0.9,1.1,1.7,2.1,2c0.9,0.3,2,0,2.9-0.1c9.8-1.6,19.6-3.3,29.3-4.9c-6.5,2.5-14.6,4.4-19.6,7.4c-1.1,0.7-2.4,1.1-2.5,2.4
				c0,0.9,0.8,1.6,1.6,1.9s1.7,0.1,2.7-0.1c5.4-0.9,11-2,16.6-2.1c5.6,0,8.5-0.9,13.3,2c4.5,2.3,9.4,3.3,14.3,3.2
				c3.4-0.1,7-0.8,10.5-0.9c-0.4,1.2-0.9,2.4-1.6,3.4c-0.1,0-0.4-0.1-0.5-0.3c-0.3-0.3,0,0.4,0.4,0.3l0,0c0.3,0,0.5,0,0.8,0
				c1.1,0,2.1-0.1,3.2-0.1c0.9,0,1.9-0.1,2.7-0.5c0.8-0.4,1.3-1.2,1.7-2.1c4.5,1.2,8.9,3.4,13.1,5.6c1.9,0.9,3.7,1.7,5.6,2.5v0.1
				c2.3,4.5,5.7,8.3,9.8,11c0.4,0.3,0.7,0.4,1.1,0.7l-0.1,0.1v0.1C368.6,261.3,370.3,269.8,369.8,279.5z"/>
			<path class="st1" d="M429,216.7c-1.5-4.1-3.4-8-5.6-11.8c-1.7-3.2-2.5-6.4-4.8-9.3c-8.2-10.7-21.7-16.2-30.5-26.5
				c-7.3-8.6-10.7-20-18.3-28.5c-9.5-10.7-25.8-15.6-40.2-19.2c5,5.2,9.4,11.1,12.2,17.4c-3.6-0.3-7.3-0.5-10.9-0.9
				c2.3,1.9,4.5,3.7,6.8,5.6c0.9,0.8,1.9,1.6,2.1,2.7c0.4,1.2,0,2.4-0.4,3.6c-3.3,10.6-8,21.1-11.4,31.7l0,0l0,0l0,0
				c0,7.8,0,15.8,1.2,23.6c2-0.1,4,0.1,5.8,0.4c2,0.4,4,1.1,5.3,2.4c0.7,0.7,1.2,1.6,1.5,2.5l0,0c1.2-0.3,2.4-0.3,3.6,0.3
				c1.5,0.7,2.8,1.7,4,2.7c5.3,4.4,10.6,8.9,15,14.2s8,11.4,9.7,18c0,0.1,0,0.3,0.1,0.4c0.4,2.1,0.5,4.5-1.2,5.8
				c-0.9,0.8-2.3,0.9-3.4,0.7c-0.8-0.1-1.5-0.5-2.1-0.8l-0.1,0.1v0.1c12.1,5.2,26,4.8,39,3c5.8-0.8,11.9-2,16.6-5.6
				c4.6-3.6,7.4-9.3,8.1-15.1C432.2,228.1,431.1,222.1,429,216.7z M404.8,196.9c-0.1,1.1-0.8,2-1.6,2.9c-0.7,0.8-1.3,1.5-1.6,2.4
				c-2.7,0.9-5.6,1.7-8.7,2.4c-3.3,0.7-6.9,1.1-10.3,1.5c-3,0.3-6,0.5-8.7,0.7c-1.1,0-2.1,0.1-3,0.1c-1.5,0.1-3,0.1-4.5,0.1
				c1.3-7.4,6.2-13.6,11-19.5c0.9-1.2,1.9-2.3,3.2-3.2c1.2-0.8,2.8-1.2,4.2-0.8c1.5,0.5,1.5,4.6,1.1,6c1.7-1.7,3.4-3.6,5.3-5.3
				c1.1-1.1,2.3-2.1,3.6-2c1.2,0,2.3,0.9,2.7,2.1c0.4,1.2,0.3,2.4-0.1,3.6l0.1,0.1l0,0c0.8-1.1,1.9-2.5,3-2.1
				c0.8,0.3,1.2,1.1,1.2,1.7c0,0.8-0.3,1.5-0.5,2.3c-1.7,4.5-5.3,10.6-8.1,14.7c2-2.5,5.3-6.5,7.4-8.7c0.8-0.8,1.9-1.7,2.9-1.5
				C404.2,194.5,404.9,195.9,404.8,196.9z"/>
			<path class="st2" d="M315.8,68.7c0-1.3,0-2.5-0.1-3.8c-0.1-2.8-0.3-5.7-0.4-8.6c-0.4-6.1-1.1-12.2-2.7-17.8
				c-2.3-8-8-17-13.9-22.7c-7.7,4.4-15,6.2-23.9,7.3c-3.2,0.4-6.5,0.7-9.5,1.7c-4.4,1.6-8.9,6-12.2,9.1c-1.2,9.7,0,19.3,2.7,28.6
				c0.5,1.6,1.1,3.2,1.6,4.8c1.1,2.8,2.1,5.7,2.9,8.5c0.1,0.4,0.3,0.7,0.3,1.1c1.3,4.6,2.7,9.3,4,13.9c0.3,0.7,0.4,1.5,0.7,2.1
				c0.3,0.9,0.5,2,0.8,2.9l0,0c4.1,2.9,8.5,5.4,12.7,8c5,2.9,10.2,5.8,15.2,8.7c4,2.3,8.5,6.9,12.5,8.9c2.7-5.8,4.6-13.9,5.7-21.9
				c0.5-4.6,0.8-9.1,0.5-13c1.2-2.5,1.9-5.2,2.4-7.8C315.7,75.5,315.8,72.1,315.8,68.7z"/>
			<path class="st3" d="M268.3,90c1.6,1.5,3.2,2.9,5.2,4.1c1.9,1.2,3.7,2.1,5.7,2.9c4,1.6,8.3,2.5,12.6,2.4
				c4.2-0.1,8.5-1.2,12.2-3.4c3.6-2.3,7-5.2,8.9-9.1c-0.4,1.1-0.8,2-1.5,2.9c-0.5,0.9-1.2,1.9-2,2.7c-1.5,1.6-3.2,3-5,4.4
				c-0.9,0.7-1.9,1.2-2.9,1.6c-1.1,0.4-2.1,0.9-3.2,1.2l-1.6,0.4l-1.6,0.3c-1.1,0.3-2.3,0.3-3.3,0.3c-4.5,0-8.9-0.9-13-2.7
				C274.8,96.1,271.1,93.4,268.3,90z"/>
			<path class="st4" d="M328.2,181.4C328.2,181.3,328.2,181.3,328.2,181.4l0.5-0.3v0.1L328.2,181.4z"/>
			<path class="st5" d="M306.7,121.5c-3.4,0.9-6.6,3.4-8.7,6.5c-0.9-0.5-1.9-1.2-2.8-1.7c-11.4-7.3-26.1-17.9-30.3-31.1
				c0.4,0.3,0.8,0.7,1.3,0.9c4.1,2.9,8.5,5.4,12.7,8c5,2.9,10.2,5.8,15.2,8.7C298.1,115,302.6,119.5,306.7,121.5z"/>
			<polygon class="st4" points="298.2,128.3 297.6,127.9 297.7,127.9 298.2,128.2 			"/>
			<path class="st5" d="M321.2,134c-0.5-3.4-1.2-7.2-4-9.3c-0.3-0.1-0.4-0.3-0.7-0.5l0,0c-2.9-1.7-6.8-1.3-9.8-2.7
				c2.7-5.8,4.6-13.9,5.7-21.9c1.7,3.3,3.3,7,4.5,11c1.5,4.2,2.5,8.6,3.3,12.9C320.8,127.1,321.2,130.7,321.2,134z"/>
			<path class="st4" d="M315.2,131.3c0-0.1-0.1-0.1-0.1-0.3l0.3-0.1l0.3-0.1c0.1,0.1,0.1,0.3,0.1,0.3L315.2,131.3z"/>
			<polygon class="st4" points="328.7,181.6 328,181.3 328,181.2 328.4,181.3 328.7,181.4 			"/>
			<path class="st6" d="M319.7,155.6c0.7-8-0.7-17.5-4.1-24.4l0,0c0.3-0.4,0.4-0.9,0.5-1.3c0.5-1.7,0.5-3.7,0.4-5.6
				c0.3,0.1,0.5,0.3,0.7,0.5c2.8,2.1,3.4,5.8,4,9.3c0-3.3-0.4-6.9-1.1-10.5h0.1c3.8,13.8,6.9,28.8,7.7,42.9
				c0.3,4.9,0.3,9.8,0.3,14.7C326.6,172.2,323.5,163.8,319.7,155.6z"/>
			<path class="st7" d="M340.1,145.9c0.4,1.2,0,2.4-0.4,3.6c-3.3,10.6-8,21.1-11.4,31.7l0,0c0-4.9,0-9.8-0.3-14.7
				c-0.9-14.3-4-29.2-7.7-42.9h-0.1c-0.8-4.2-1.9-8.6-3.3-12.9c4.6,2.9,9,6.5,13,10.6c5,5.2,9.4,11.1,12.2,17.4
				c-3.6-0.3-7.3-0.5-10.9-0.9c2.3,1.9,4.5,3.7,6.8,5.6C338.9,144.1,339.8,144.9,340.1,145.9z"/>
			<polygon class="st4" points="342.4,210.6 342,209.9 342.2,209.9 342.4,210.6 342.4,210.5 342.4,210.6 342.4,210.5 342.2,210.2 
							"/>
			<path class="st2" d="M401.3,187.7c0,0.8-0.3,1.5-0.5,2.3c-1.7,4.5-5.3,10.6-8.1,14.7c-3.3,0.7-6.9,1.1-10.3,1.5
				c-3,0.3-6,0.5-8.7,0.7c-1.1,0-2.1,0.1-3,0.1c-1.5,0.1-3,0.1-4.5,0.1c1.3-7.4,6.2-13.6,11-19.5c0.9-1.2,1.9-2.3,3.2-3.2
				c1.2-0.8,2.8-1.2,4.2-0.8c1.5,0.5,1.5,4.6,1.1,6c1.7-1.7,3.4-3.6,5.3-5.3c1.1-1.1,2.3-2.1,3.6-2c1.2,0,2.3,0.9,2.7,2.1
				c0.4,1.2,0.3,2.4-0.1,3.6l0.1,0.1l0,0c0.8-1.1,1.9-2.5,3-2.1C400.9,186.1,401.3,186.9,401.3,187.7z"/>
			
				<linearGradient id="SVGID_2_" gradientUnits="userSpaceOnUse" x1="341.7184" y1="171.0945" x2="353.9308" y2="170.258" gradientTransform="matrix(1 0 0 1 0 58.0547)">
				<stop  offset="1.229378e-03" style="stop-color:#FBD5B5"/>
				<stop  offset="1" style="stop-color:#ECC9AB"/>
			</linearGradient>
			<path class="st8" d="M374.7,245.8c-6-1.7-11.9-3.7-17.6-6.2c-1.9-0.8-3.7-1.6-5.6-2.5c-4.2-2-8.6-4.4-13.1-5.6
				c0.1-0.4,0.4-0.8,0.5-1.2c1.6-4.9,1.7-10.2,0.4-15.1c1.2-0.4,2.3-1.1,2.8-2.1c0.5-0.9,0.5-1.9,0.3-2.8l0,0
				c1.2-0.3,2.4-0.3,3.6,0.3c1.5,0.7,2.8,1.7,4,2.7c5.3,4.4,10.6,8.9,15,14.2s8,11.4,9.7,18C374.6,245.6,374.7,245.7,374.7,245.8z"
				/>
			<path class="st2" d="M404.8,196.9c-0.1,1.1-0.8,2-1.6,2.9c-0.7,0.8-1.3,1.5-1.6,2.4c-2.7,0.9-5.6,1.7-8.7,2.4
				c2-2.5,5.3-6.5,7.4-8.7c0.8-0.8,1.9-1.7,2.9-1.5C404.2,194.5,404.9,195.9,404.8,196.9z"/>
			<path class="st2" d="M331.4,230.7c-3.4,0.1-7,0.8-10.5,0.9c-4.9,0.1-9.9-0.9-14.3-3.2c-4.8-2.9-7.7-2-13.3-2
				c-5.6,0.1-11,1.2-16.6,2.1c-0.8,0.1-1.7,0.3-2.7,0.1c-0.8-0.3-1.6-0.9-1.6-1.9c0-1.2,1.5-1.7,2.5-2.4c5.2-3,13.1-4.9,19.6-7.4
				c-9.8,1.6-19.6,3.3-29.3,4.9c-0.9,0.1-2,0.4-2.9,0.1s-1.9-0.9-2.1-2c-0.3-1.5,1.3-2.7,2.7-3.3c8.6-4.5,18.4-7,28.2-7.3
				c-4.8-0.7-10.2-1.9-14.8-0.5s-9.1,3.4-13.5,5.7c-1.1,0.5-2.1,1.2-3.3,1.5c-1.2,0.3-2.5,0.3-3.6-0.3c-1.1-0.5-1.9-1.7-1.6-2.9
				c0.3-1.3,1.3-2.1,2.5-2.9c4.2-2.8,8.6-5.7,13.4-7.4c0.5-0.1,0.9-0.4,1.5-0.5c-4.6-0.5-9.5,0.3-13.9-1.1c-0.8-0.3-1.5-0.5-1.9-1.2
				c-0.7-0.9-0.3-2.3,0.4-3c0.7-0.8,1.6-1.2,2.7-1.5c10.7-2.9,22.1-0.4,32.7,3s21.9,8.1,32.9,9.5h0.3c0,0.3,0,0.5,0,0.8
				c0,0.5,0.3,0.8,0.4,1.2c2,2.4,4.4,4,7.2,4.8C333.6,220.1,333.3,225.8,331.4,230.7z"/>
			<path class="st9" d="M319.7,155.6c-1.6-3.3-3.2-6.5-5-9.7c-2.3-4-4.5-8-7.7-11.1c-0.1-0.1-0.4-0.4-0.5-0.5l0.1-0.1
				c2.4,0.3,4.9,0.7,6.9-0.7c0.9-0.5,1.6-1.3,2.1-2.4C319,138.1,320.4,147.6,319.7,155.6z"/>
			<path class="st9" d="M316.1,129.7c-0.1,0.5-0.4,0.9-0.5,1.3l0,0c-0.5,0.9-1.2,1.7-2.1,2.4c-2,1.2-4.5,0.9-6.9,0.7l-0.1,0.1
				c-0.7-0.7-1.5-1.3-2.3-1.9c-2-1.6-4.1-2.9-6.4-4.2c2-3,5.2-5.4,8.7-6.5c3.2,1.3,6.9,0.9,9.8,2.7l0,0
				C316.5,126.2,316.6,128,316.1,129.7z"/>
			<path class="st7" d="M304.3,132.3c-4.1,0.7-8,3-10.7,6.1c-3.4,3.7-5.7,8.5-7.8,13c-10.2-10.5-18.4-25-26.4-37.4
				c-0.9-1.5-1.2-3.8-1.1-6.6c0.3-2.9,0.9-6.2,2.1-9.4c0.4-1.1,0.7-2.1,1.3-3c0.7-0.9,1.7-1.6,2.8-1.7l0.7-0.1
				c0.3,0.9,0.5,2,0.8,2.9l0,0c-0.4-0.3-0.8-0.7-1.3-0.9c4.4,13.3,19.1,24,30.3,31.1c0.9,0.5,1.9,1.2,2.8,1.7
				C300.1,129.3,302.3,130.7,304.3,132.3z"/>
			<path class="st10" d="M338.6,230.3c-0.1,0.4-0.3,0.8-0.5,1.2c-0.4,0.9-0.9,1.6-1.7,2.1c-0.8,0.4-1.7,0.5-2.7,0.5
				c-1.1,0-2.1,0.1-3.2,0.1c-0.3,0-0.5,0-0.8,0c0.7-1.1,1.2-2.3,1.6-3.4c1.9-5,2.3-10.6,1.1-15.8c1.3,0.4,2.8,0.5,4.2,0.5
				c0.8,0,1.7-0.1,2.5-0.4C340.4,220.1,340.2,225.4,338.6,230.3z"/>
			<path class="st11" d="M342,213c-0.5,1.1-1.6,1.7-2.8,2.1c-0.8,0.3-1.6,0.4-2.5,0.4c-1.5,0-2.9-0.1-4.2-0.5
				c-2.8-0.8-5.2-2.4-7.2-4.8c-0.3-0.4-0.4-0.7-0.4-1.2c0-0.3,0-0.5,0-0.8c0-0.8,0.4-1.6,0.9-2.1c0.8-0.8,2.1-1.1,3.3-1.2
				c0.3,0,0.4,0,0.7,0c2-0.1,4,0.1,5.8,0.4c2,0.4,4,1.1,5.3,2.4c0.7,0.7,1.2,1.6,1.5,2.5C342.5,211.1,342.5,212.2,342,213z"/>
			<path class="st3" d="M271.7,202.2c2.1-0.9,4.4-1.5,6.8-1.6s4.8,0.1,6.9,1.1c-2.3-0.4-4.5-0.5-6.9-0.4
				C276.2,201.3,274,201.8,271.7,202.2z"/>
			<path class="st11" d="M227.9,134.7c4.2,1.7,8.2,4,11.8,6.6c3.7,2.7,7,5.8,10.1,9.1c3,3.4,5.7,7.2,8,11.1c2.3,4,4.1,8.2,5.3,12.5
				c-1.7-4.2-3.7-8.2-6.1-12.1c-2.4-3.8-5-7.4-8.1-10.7c-2.9-3.3-6.2-6.4-9.8-9.3C235.5,139.3,231.8,136.8,227.9,134.7z"/>
			<path class="st7" d="M389.4,308.8c-1.3,13.4-3.2,26.8-5.6,40.2c-0.3-16.7-1.7-34.6-4.6-51.9c3.7,0.3,7.6,1.2,9.3,4.4
				C389.8,303.5,389.7,306.3,389.4,308.8z"/>
			<path class="st11" d="M245.5,312.9c4.4-2.7,9.4-4.2,14.4-5.4c5-1.2,10.1-2.1,15.2-2.8c5.2-0.5,10.3-0.8,15.4-0.7
				c5.2,0.1,10.3,0.5,15.4,1.3c-2.5-0.1-5.2-0.3-7.7-0.3c-2.5-0.1-5.2-0.1-7.7,0c-5.2,0.1-10.2,0.4-15.2,1.1
				c-5,0.5-10.1,1.3-15.1,2.4C255.2,309.3,250.3,310.6,245.5,312.9z"/>
			<path class="st11" d="M345.9,291.9c2.4,9.5,3.7,19.3,4.5,29.2c0.7,9.8,0.7,19.7,0.5,29.6c-0.1,9.8-0.7,19.6-0.8,29.6
				c-0.3,9.8-0.1,19.6,0.4,29.4c0.9,19.6,3.3,39.2,5,58.8c0.8,9.8,2.1,19.6,2,29.4c-0.1,4.9-0.4,9.8-0.7,14.7
				c-0.3,4.9-0.4,9.8-0.4,14.7c-0.1-4.9,0-9.8,0.1-14.7c0.1-4.9,0.4-9.8,0.4-14.7c0-9.8-1.3-19.6-2.4-29.4l-3-29.4
				c-0.9-9.8-1.9-19.6-2.4-29.4c-1.1-19.7,0.1-39.4,0.8-59.1c0.3-9.8,0.4-19.6-0.1-29.4C349.4,311.3,348.2,301.6,345.9,291.9z"/>
			<path class="st11" d="M359.3,167.5c0.5,3.3,0.8,6.6,1.1,9.8c0.3,3.3,0.5,6.6,0.8,9.9c0.1,3.3,0.4,6.6,0.5,9.9s0.1,6.6,0.1,9.9
				c-0.5-3.3-0.8-6.6-1.1-9.8c-0.3-3.3-0.5-6.6-0.8-9.9c-0.1-3.3-0.4-6.6-0.5-9.9S359.3,170.8,359.3,167.5z"/>
			<path class="st2" d="M323,56.1c-0.5,3.3-1.3,6.5-2.5,9.5c-0.4,1.1-0.9,2.1-1.9,2.8c-0.8,0.5-2,0.8-2.8,0.3c0-1.3,0-2.5-0.1-3.8
				c-0.1-2.8-0.3-5.7-0.4-8.6h0.3c1.1-3.7,2-7.7,2.3-11.7c1.3,0.1,2.7,0.8,3.6,1.7c1.2,1.3,1.7,3,2,4.8
				C323.5,52.6,323.3,54.3,323,56.1z"/>
			<path class="st2" d="M260.7,77L260.7,77c-0.7,1.1-2.3,0.9-3.4,0.4c-2.7-1.3-4.1-4.4-5.2-7.2c-1.3-4-2.3-9.8-2.7-13.9l0.1-0.1
				c1.1,2.7,2.4,5.2,4,7.4c1.1,1.5,2.3,2.9,3.7,3.8c1.1,2.8,2.1,5.7,2.9,8.5C260.5,76.2,260.6,76.6,260.7,77z"/>
			<path class="st12" d="M318,41.2c0,1.1,0,2.1-0.1,3.2c-0.3,4-1.2,8-2.3,11.7h-0.3c-0.4-6.1-1.1-12.2-2.7-17.8
				c-2.3-8-8-17-13.9-22.7c-7.7,4.4-15,6.2-23.9,7.3c-3.2,0.4-6.5,0.7-9.5,1.7c-4.4,1.6-8.9,6-12.2,9.1c-1.2,9.7,0,19.3,2.7,28.6
				c0.5,1.6,1.1,3.2,1.6,4.8c-1.6-0.9-2.7-2.4-3.7-3.8c-1.6-2.3-2.9-4.8-4-7.4c-1.2-2.9-2-5.8-2.7-8.9c-1.2-5.8-1.6-11.7-2.1-17.6
				c-0.1-2,0.3-4.5,1.9-5.7c2-5,5.7-9.3,9.9-12.6c4.4-3.3,9.3-5.6,14.2-7.8c3.8-1.6,7.7-3.2,11.8-3.3c7-0.3,14,3.4,19.6,7.7
				c4.9,0.3,9.5,3.2,11.9,7.4c1.7,2.9,2.3,6.4,2.7,9.8C317.7,30.6,318,35.9,318,41.2z"/>
			<path class="st13" d="M273,566.9c-7.6,22.7-13.5,45.9-17.8,69.4c4.2,7.6,9.5,15,9.7,23.5c0,2.7-0.5,5.3-0.9,8
				c-1.2,6.1-2.3,12.2-3.4,18.2c-0.4,0.1-0.7,0.3-1.1,0.4c-4.2,1.5-8.1,3.8-11.8,6.2c-4.5,2.8-9,5.8-14,7.3
				c-3.8,1.2-8.1,1.5-11.8,0.3c-0.3-0.1-0.5-0.1-0.8-0.3c-6.1-15.5-12.2-31.1-14.2-47.7c-1.9-15.9,0.1-31.9,2.1-47.8
				c3.2-24.9,6.2-49.8,12.5-74.1c20.5,1.2,40.8,1.5,61,1.2C281.3,543.5,276.9,555.1,273,566.9z"/>
			<path class="st14" d="M255.3,636.4c-1.5-2-2.3-4.4-2.9-6.8s-1.2-4.8-1.6-7.2c-0.4-2.4-0.7-4.9-0.8-7.3c-0.1-2.4-0.1-4.9,0.1-7.4
				c0.5,2.4,0.9,4.8,1.3,7.2c0.4,2.4,0.8,4.8,1.2,7.2l1.2,7.2C254.2,631.6,254.5,634,255.3,636.4z"/>
			<path class="st13" d="M353,579.8c-2.1,7.7-4.2,15.2-6.2,22.9c5,24.8,6.2,50.4,3.8,75.5c-0.8,0.1-1.6,0.3-2.4,0.4
				c-8,1.6-15.5,6-23.5,8.2c-4.9,1.3-9.9,1.9-15,1.3c-2-0.1-4.1-0.5-5.8-1.7c-0.5-0.4-1.1-0.8-1.5-1.3c-1.6-2-2.3-4.8-2.3-7.4
				c-0.1-5.4,1.7-11,0.4-16.3c-1.1-4.2-3.8-7.7-5-11.9c-1.6-5.4-0.1-11.3,1.1-16.8c2.7-12.6,3.8-25.4,3.3-38.3
				c-0.8-5.6-1.3-11.3-1.3-17c-0.1-15.8,3.6-31.4,3.2-47c18.3-0.7,36.6-1.9,55-3.2c1.9-0.1,3.7-0.3,5.6-0.4
				C362,543.3,356.8,565.5,353,579.8z"/>
			<path class="st14" d="M299.8,594.6c0.7,2.1,1.3,4.2,1.9,6.4c0.5,2.1,1.1,4.2,1.5,6.5c0.4,2.1,0.8,4.4,1.2,6.5
				c0.4,2.3,0.7,4.4,0.8,6.6c-0.9-2.1-1.6-4.2-2.3-6.4s-1.2-4.2-1.6-6.5c-0.4-2.1-0.8-4.4-1.1-6.6
				C299.8,599.1,299.7,596.9,299.8,594.6z"/>
			<path class="st14" d="M341.7,628.4c-0.1-2.3-0.1-4.4,0.1-6.6c0.1-2.3,0.5-4.4,0.9-6.5s0.9-4.2,1.6-6.4c0.7-2.1,1.3-4.2,2.3-6.2
				c-0.1,2.3-0.5,4.4-0.8,6.5c-0.4,2.1-0.8,4.2-1.2,6.4c-0.4,2.1-0.9,4.2-1.3,6.4C342.8,624.2,342.4,626.3,341.7,628.4z"/>
			<path class="st4" d="M346.3,602.8L346.3,602.8c0-0.3-0.1-0.4-0.1-0.7l0.7-0.1c0,0.1,0.1,0.4,0.1,0.5v0.1L346.3,602.8z"/>
			<path class="st15" d="M290.1,43.3c1.3-3,4.8-5,8.3-5c1.7,0,3.4,0.5,4.9,1.2s2.9,1.6,4.1,2.7c-1.6-0.3-3.2-0.8-4.6-1.2
				c-1.5-0.4-2.9-0.7-4.4-0.7C295.6,40.2,292.7,41.4,290.1,43.3z"/>
			<path class="st15" d="M262.3,52c0.4-1.9,1.5-3.6,2.9-5c1.5-1.5,3.2-2.4,5.2-3c2-0.5,4-0.7,6-0.3s3.7,1.3,5.2,2.7
				c-1.9-0.7-3.6-1.1-5.3-1.2c-1.7-0.1-3.6,0-5.2,0.5c-1.7,0.5-3.2,1.3-4.6,2.3C264.7,49.2,263.4,50.5,262.3,52z"/>
			<path class="st3" d="M284.4,67.1c1.9,0.1,3.6,0.1,5.3-0.1c1.7-0.3,3.3-0.8,5.2-1.6c-1.1,1.6-3,2.5-4.9,2.8
				C288.2,68.4,286,68.1,284.4,67.1z"/>
			<path class="st16" d="M277.8,77.7c4.5,0.5,8.9,0.8,13.3-0.1c4.4-0.8,8.3-2.5,12.3-4.8c-3.3,3-7.6,5.2-12.1,6
				C286.7,79.7,281.9,79.1,277.8,77.7z"/>
			<path class="st3" d="M272.9,73.7c-0.5,0.9-0.9,1.9-1.3,2.8s-0.7,1.9-0.9,2.9c-0.3-1.1,0-2.1,0.4-3.2
				C271.5,75.2,272,74.2,272.9,73.7z"/>
			<path class="st3" d="M305.5,68.1c1.1,0.4,1.7,1.3,2.3,2.3c0.5,0.9,0.8,2.1,0.7,3.2c-0.4-1.1-0.7-2-1.2-2.8
				C306.7,69.7,306,68.9,305.5,68.1z"/>
			<path class="st11" d="M369.8,279.5c-7.2,0-14.3-0.1-21.5-0.5s-14.3-0.9-21.5-1.6c-14.3-1.5-28.5-3.6-42.5-6.5
				c-7-1.5-14.2-3.2-20.7-6.5c-6.6-3.2-12.2-8.2-17-13.8c-2.4-2.8-4.6-5.6-6.8-8.5c-2.1-2.9-4.2-5.7-6.4-8.7
				c-4.1-5.8-8.1-11.9-11.4-18.4l-0.1-0.3v-0.3l0,0l0.1,0.5c-3.2-6.2-5.7-13-7-19.9s-1.7-14-1.7-20.9c0-7,0.5-13.9,1.1-20.9
				c0.3-3.4,0.7-7,1.6-10.3c0.9-3.4,2.5-6.6,4.9-9.3c-2.3,2.7-3.6,6-4.4,9.4c-0.8,3.3-1.1,6.9-1.2,10.3c-0.3,7-0.5,13.9-0.4,20.9
				c0.1,6.9,0.7,13.9,2.1,20.5c1.5,6.8,4,13.1,7.2,19.3l0.1,0.3v0.3l0,0l-0.1-0.5c3.2,6.4,7.2,12.2,11.3,18c2.1,2.9,4.2,5.7,6.4,8.6
				c2.1,2.8,4.4,5.7,6.6,8.3c4.6,5.3,9.8,10.2,16,13.3c6.2,3.2,13.1,4.9,20.1,6.4c13.9,2.9,28.1,5.4,42.3,7.3
				c7.2,0.9,14.2,1.6,21.3,2.3C355.5,278.8,362.6,279.2,369.8,279.5z"/>
			<path class="st15" d="M291.6,47.9c0.5-1.2,1.3-2.3,2.3-3c0.9-0.9,2.3-1.5,3.6-1.6c1.3-0.1,2.7,0.3,3.8,0.8c1.2,0.5,2.3,1.2,3.2,2
				c-1.2-0.4-2.4-0.9-3.4-1.3c-1.2-0.4-2.4-0.7-3.4-0.5C295.3,44.3,293.3,46,291.6,47.9z"/>
			<path class="st15" d="M266,53.9c0.3-1.3,0.9-2.7,1.9-3.6c0.9-1.1,2.3-1.7,3.6-2.1c1.3-0.3,2.8-0.3,4.1,0.1
				c1.3,0.4,2.4,1.2,3.4,2.1c-1.2-0.5-2.5-1.1-3.7-1.3c-1.2-0.3-2.5-0.3-3.7,0C269.3,49.8,267.2,51.6,266,53.9z"/>
			<ellipse class="st12" cx="298.1" cy="45.7" rx="2.4" ry="2.3"/>
			<ellipse class="st12" cx="272.3" cy="50.8" rx="2.4" ry="2.3"/>
			<path class="st17" d="M373.5,251.7c-0.9,0.8-2.3,0.9-3.4,0.7c-1.2-0.3-2.3-0.8-3.2-1.5c-4.1-2.8-7.6-6.6-9.8-11v-0.1
				c5.7,2.4,11.7,4.5,17.6,6.2C375.1,248,375.1,250.3,373.5,251.7z"/>
			
				<ellipse transform="matrix(0.1224 -0.9925 0.9925 0.1224 86.2896 513.5011)" class="st10" cx="333.5" cy="208" rx="2.5" ry="7.3"/>
			<path class="st11" d="M388.6,301.2c1.2,1.7,1.3,3.8,1.3,5.8c-0.1,2-0.3,4-0.4,6c-0.3,4-0.8,8-1.2,11.9c-0.5,4-1.2,8-1.9,11.9
				c-0.7,4-1.5,8-2.5,11.8c0.4-4,1.1-8,1.5-11.9c0.5-4,1.1-8,1.6-11.9c0.5-4,1.1-8,1.6-11.9c0.3-2,0.5-4,0.8-6
				C389.4,305.1,389.4,303.1,388.6,301.2z"/>
			<path class="st11" d="M238.1,286.1c-1.3-4.1-3.8-7.4-6.2-11c-1.2-1.7-2.4-3.6-3.4-5.6c-1.1-2-1.7-4.1-2.4-6.2
				c-1.1-4.2-1.3-8.6-1.3-13c0.1-4.4,0.5-8.6,0.9-12.9c0.5,4.2,0.8,8.6,1.1,12.7c0.3,4.2,0.7,8.3,1.7,12.3c0.5,2,1.2,4,2.1,5.8
				c0.9,1.9,2,3.7,3,5.6c1.1,1.9,2.1,3.7,2.9,5.8C237.4,281.9,238.1,284,238.1,286.1z"/>
			<path class="st11" d="M219.6,526.5c1.3-9.5,3.2-19.1,5-28.6s3.6-18.9,4.6-28.5c0.5-4.8,0.8-9.5,0.9-14.3c0-2.4,0-4.8,0-7.2
				c-0.1-2.4-0.1-4.8-0.4-7.2c-0.3-2.4-0.4-4.8-0.8-7.2c-0.4-2.4-0.7-4.8-1.1-7.2c-0.7-4.8-1.2-9.7-1.6-14.4
				c-1.1-19.5,0.5-38.8,3-58l4-28.8c0.7-4.8,1.3-9.5,2-14.3l1.6-14.4c-0.3,4.8-0.5,9.7-0.9,14.4c-0.4,4.8-0.9,9.7-1.3,14.4
				l-3.3,28.8c-2.1,19.2-3.7,38.4-2.5,57.6c0.3,4.8,0.8,9.5,1.5,14.3c0.4,2.4,0.7,4.8,1.1,7.2s0.5,4.9,0.8,7.3
				c0.8,9.7,0.5,19.5-0.8,29.2C228.7,489,223.4,507.6,219.6,526.5z"/>
			<path class="st11" d="M383.8,348.8c0.7,14.4,0.7,29,0.8,43.5s0.3,28.9,1.1,43.3c0.4,7.2,1.1,14.4,1.9,21.6s2,14.3,2.9,21.5
				c1.1,7.2,2.1,14.3,2.9,21.6c0.8,7.2,1.3,14.4,1.3,21.7c-1.1-14.4-3.7-28.6-6.2-42.9c-1.3-7.2-2.4-14.3-3.4-21.5
				c-0.9-7.2-1.6-14.4-2-21.7c-0.8-14.6-0.8-29-0.5-43.5C382.9,377.8,383.6,363.4,383.8,348.8z"/>
			<path class="st11" d="M367.8,251.7c1.9,3.4,3.3,7.2,4.6,10.9c1.3,3.7,2.4,7.4,3.4,11.3c0.9,3.8,1.7,7.7,2.3,11.5
				c0.5,3.8,1.1,7.8,1.1,11.7c-1.2-3.7-2.1-7.6-3-11.3l-2.8-11.3l-2.8-11.3C369.7,259.2,368.7,255.5,367.8,251.7z"/>
			<path class="st11" d="M367.8,251.7c9.1,3.6,19.2,4.1,28.9,3.4c4.9-0.4,9.8-0.9,14.4-1.9c4.8-0.9,9.4-2.5,12.7-5.8
				c3.4-3.2,5.4-7.7,6.2-12.3s0.3-9.5-1.1-14c-1.3-4.6-3.3-9-5.6-13.3c-0.5-1.1-1.2-2.1-1.7-3.3s-1.1-2.3-1.6-3.4
				c-0.5-1.1-0.9-2.1-1.6-3.2c-0.3-0.5-0.7-0.9-0.9-1.5l-1.2-1.3c-6.1-7.4-14.8-12.3-22.4-18.7c-3.8-3.2-7.4-6.9-10.1-11.1
				c-2.8-4.1-5-8.6-7.3-12.9c-2.4-4.2-4.8-8.5-8.1-12.1c-3.2-3.6-7.3-6.4-11.5-8.7c-8.5-4.8-18-7.7-27.4-10.3
				c9.5,2.1,19.2,4.8,28,9.3c4.4,2.3,8.6,5.2,12.1,8.7c3.6,3.6,6.2,7.8,8.6,12.2c2.5,4.2,4.8,8.6,7.4,12.6c2.7,4,6,7.4,9.7,10.6
				c7.4,6.1,16.3,11,22.9,18.8l1.2,1.5c0.4,0.5,0.8,1.1,1.1,1.6c0.7,1.2,1.2,2.3,1.7,3.4c0.5,1.2,0.9,2.3,1.5,3.3
				c0.5,1.1,1.2,2.1,1.7,3.2c2.3,4.4,4.4,9,5.7,13.8c1.3,4.9,1.9,10.1,0.9,15.1c-0.9,5-3.2,9.9-7.2,13.4c-3.8,3.6-9,5-13.8,6
				c-4.9,0.8-9.8,1.3-14.7,1.6c-4.9,0.1-9.9,0-14.8-0.7c-2.4-0.4-4.9-0.8-7.3-1.5C372.4,253.5,370,252.7,367.8,251.7z"/>
			<path class="st9" d="M256.5,107.2c-2.8,5.2-2.3,7.6,0.9,12.3c3.2,4.6,6.9,9.5,11.4,12.9c1.1,0.8,2.3-0.7,1.7-1.7
				c-2.1-3.4-4.8-6.5-7.2-9.7s-8.5-9.1-6.5-13.6C257,107.2,256.7,107,256.5,107.2L256.5,107.2z"/>
			<path class="st9" d="M273.8,150.7c-1.7-2.7-3.4-5.2-4.6-8.1c-0.7-1.5-1.9-3.8-1.5-5.4c1.2-5.8,6.8-2.9,9-1.3
				c5.2,3.4,8.7,8.7,13.8,12.2c1.3,0.9,3-0.9,2.1-2.1c-3.2-4.6-8-8.7-12.3-12.2c-3.2-2.5-7.6-4.9-11.7-3.2
				c-9.7,3.8-1.3,17.5,3.4,21.6C273,153.1,274.6,151.9,273.8,150.7L273.8,150.7z"/>
			<path class="st18" d="M293.5,150c1.9,6.6,6.6,12.5,10.2,18.3c4,6.5,11.3,18,6.2,25.6c-0.9,1.3,1.1,2.8,2.3,1.7
				c4.9-4.9,0.4-13.8-2.3-18.9c-4.6-9-10.5-18.4-16.3-26.8C293.6,149.9,293.3,149.9,293.5,150L293.5,150z"/>
			<path class="st18" d="M273.6,153.1c3.8,10.1,8.2,22.9,15.1,31.3c4,4.6,12.3,12.1,17.9,5.6c1.1-1.2-0.3-2.8-1.7-2.3
				c-9,4-15.8-8.6-19.1-15c-3.7-6.8-7.6-13.6-11.7-20.1C274.1,152.5,273.4,152.7,273.6,153.1L273.6,153.1z"/>
			<path class="st9" d="M339.6,140.7c1.5,6.1,3.3,12.2,4.8,18.4c1.3,5.4,1.9,11.3,4.2,16.2c0.5,1.1,2.3,0.5,2.3-0.7
				c0.1-6-2.3-12.1-4.2-17.6c-2-5.7-4.1-11.3-6.8-16.6C340,140.3,339.6,140.5,339.6,140.7L339.6,140.7z"/>
			<g>
				<path class="st1" d="M344.3,183c1.2,2.4,3.4,4.1,6,5c1.1,0.3,2.1,0.5,3.2,0.7c1.7,0.3,3.6,0.5,5-0.4c1.7-1.1,2.3-3.4,1.7-5.4
					c-0.5-2-2-3.6-3.6-4.9c-2.1-1.7-4.6-3.3-7.4-3.2c-1.5,0.1-2.8,0.5-3.8,1.5c-0.7,0.5-1.3,1.1-1.7,1.9c-0.8,1.5-0.7,3.2,0,4.8
					c0.7,1.5,1.6,2.8,2.7,4.1"/>
				<path class="st18" d="M343.9,183.2c2.1,5,8.6,8.6,14.2,7c5.4-1.6,4.5-8.2,1.6-11.7c-3.7-4.2-9.9-7.3-15-3.7
					c-5,3.6-2.7,9.3,0.8,13c1.1,1.2,3-0.4,2.3-1.7c-1.9-2.8-4.8-6.9-0.5-9.1c3.4-1.9,7.2,0.7,9.5,3c1.2,1.2,2.4,2.7,2.3,4.4
					c-0.3,3.4-3.7,2.8-6.1,2.5c-3.4-0.4-6-1.6-8.2-4.2C344.2,182.2,343.8,182.8,343.9,183.2L343.9,183.2z"/>
			</g>
			<path class="st19" d="M280.5,730.4c-3.2,0.4-6.5,0.4-9.7,0.3c-5.3-0.3-10.7,0-15.9-0.5c-5.4-0.5-11-0.4-15.5-3.7
				c-2.3-1.6-3.7-4.2-5.7-6.1c-1.7-1.7-3.6-3.3-5.7-4.5c-2.3-1.3-4.6-1.9-6.9-3.3c-0.5-0.4-0.9-0.8-1.2-1.2
				c-1.6-2.3-0.9-5.8-0.4-8.2c0.3-1.2,0.8-2.4,1.3-3.4l0,0c0.3,0.1,0.5,0.1,0.8,0.3c1.6,0.5,3.3,0.8,5,0.8c0.9,3.8,5.6,5.8,9.1,7.3
				c0.5,0.1,0.9,0.4,1.5,0.5c2,0.8,4,1.5,5.8,2.7c1.7,1.1,3.2,2.4,5,3.3c3.8,2,8.5,3.6,12.6,4.6c6.6,1.9,13.8,3,20.4,5.4
				C279.3,725.8,280.5,728.2,280.5,730.4z"/>
			<path class="st19" d="M294.9,722.4c-4.2-0.5-9.1,0.1-13,1.7c-0.3,0.1-0.5,0.3-0.8,0.4c-6.6-2.4-13.8-3.6-20.4-5.4
				c-4.1-1.2-8.7-2.7-12.6-4.6c-1.7-0.9-3.3-2.3-5-3.3c-1.9-1.1-3.8-1.9-5.8-2.7c-0.4-0.1-0.9-0.4-1.5-0.5c2.3-1.5,4.6-2.7,4.9-5.4
				c0.3-2,0-4.2,0.5-6.4l0,0c2.1-1.2,4.1-2.5,6.2-3.8c3.7-2.4,7.7-4.8,11.8-6.2c0.4-0.1,0.7-0.3,1.1-0.4c1.6,8.5,7.8,13.9,13.5,20.3
				c1.9,2,4.1,3.3,6.2,4.9c2.9,2.3,4.8,5.6,7.7,7.7C289.7,720.1,293.2,720.6,294.9,722.4z"/>
			<path class="st19" d="M296.4,726.2c0,0.3,0,0.5-0.1,0.7c-0.7,1.1-3.8,1.2-4.9,1.5c-2.8,0.7-5.7,1.3-8.5,1.9
				c-0.8,0.1-1.5,0.3-2.3,0.3c-0.1-2.3-1.3-4.6,0.7-6c0.3-0.1,0.4-0.3,0.8-0.4c3.8-1.6,8.7-2.3,13-1.7c0.1,0.1,0.3,0.3,0.3,0.3
				C295.6,723.2,296.4,725,296.4,726.2z"/>
			<path class="st20" d="M235.4,727h-6.2c0,0,0,0-0.1,0v-6c1.1,1.1,2.4,1.6,3.6,2.7C233.7,724.7,234.6,725.8,235.4,727z"/>
			<path class="st21" d="M297,730.3c-1.1,2.1-4,1.9-5.8,2.4c-4.9,1.2-10.3,1.3-15.5,1.7c-9.3,0.9-18.9-0.1-28.2-1.1
				c-5-0.5-8.6-1.1-11.4-5.4c-0.3-0.3-0.4-0.7-0.7-0.9c-0.8-1.2-1.7-2.4-2.8-3.4c-1.2-1.1-2.5-1.6-3.6-2.7v6
				c-0.4-0.1-1.5-0.4-5.3-1.3c-5.4-1.3-4.9-3.3-4.9-3.3s-0.3-3.7,0-6.8c0.1-1.7,0.7-3.3,1.1-4.2c0.3,0.4,0.7,0.8,1.2,1.2
				c2.3,1.5,4.6,2.1,6.9,3.3c2.1,1.2,4,2.8,5.7,4.5c2,1.9,3.4,4.5,5.7,6.1c4.5,3.3,10.1,3.2,15.5,3.7c5.3,0.5,10.6,0.3,15.9,0.5
				c3.3,0.1,6.5,0.1,9.7-0.3c0.8-0.1,1.5-0.1,2.3-0.3c2.9-0.4,5.7-1.2,8.5-1.9c1.1-0.3,4.2-0.4,4.9-1.5c0.1-0.1,0.1-0.4,0.1-0.7
				C297.4,727,297.7,729,297,730.3z"/>
			<path class="st22" d="M241.4,696.1c-0.5,2.1-0.4,4.4-0.5,6.4c-0.3,2.8-2.7,4-4.9,5.4c-3.6-1.3-8.2-3.4-9.1-7.3
				c2.3,0,4.6-0.4,6.8-1.1C236.2,698.9,238.9,697.6,241.4,696.1z"/>
			<path class="st21" d="M407,714.8c-0.1,1.1-18.8,4-38.4,3.8c-19.6-0.1-27.2-2.9-32.9-6.1s-9.9-3-9.9-3v4.1c0,0-18.6,0.3-22.4,0
				c-3.7-0.3-5-2.7-5-2.7s-0.3-0.9,0-5.4s1.2-5.2,1.2-5.2c2.1,2.8,7.2,2.4,10.7,2.7c4.5,0.4,9.1,0.9,13.6,1.3
				c4.6,0.4,8.3,1.5,12.6,3.4c5.8,2.9,12.1,6,18.7,6.5c4.9,0.4,9.9,0.4,15,0.3c3.4,0,6.9,0.3,10.5,0c3-0.3,5.8-1.1,8.9-1.6
				c1.2-0.3,2.3-0.4,3.4-0.4c2.9-0.3,5.7-0.3,8.6-0.7c1.6-0.3,3-0.5,4.6-0.5c0.4,0,0.8,0,1.1,0C407,711.5,407.2,713.7,407,714.8z"/>
			<path class="st19" d="M394.7,706.9c-0.5,0.3-0.9,0.5-1.2,0.9c-0.7,0.8-1.2,3.3-0.9,4.8c-1.2,0.1-2.3,0.3-3.4,0.4
				c-2.9,0.5-5.8,1.3-8.9,1.6c-3.4,0.3-6.9,0-10.5,0c-5,0-10.1,0.1-15-0.3c-6.6-0.5-12.9-3.6-18.7-6.5c-4.2-2.1-8-3.2-12.6-3.4
				c-4.5-0.4-9.1-0.8-13.6-1.3c-3.4-0.4-8.6,0.1-10.7-2.7c-0.4-0.5-0.7-1.1-0.8-1.7c-1.2-5,0.4-10.5,2.5-15.4
				c0.3,0.7,0.7,1.3,1.2,1.9c0.4,0.5,0.9,0.9,1.5,1.3c1.7,1.2,3.8,1.5,5.8,1.7c5,0.4,10.2,0,15-1.3c5.2-1.5,10.1-3.7,15-5.6
				c1.5,3.6,4,6.5,6.4,9.5c2,2.5,3.8,5.7,6.9,6.8c3.4,1.2,7,1.7,10.5,2.4c4.9,0.8,9.7,2,14.4,3c2.9,0.7,6,1.1,9,1.7
				C389.5,705.3,392,706.1,394.7,706.9z"/>
			<path class="st19" d="M402.8,705.9c-2.4,0-6,0-8.1,1.1c-2.7-0.8-5.2-1.6-8-2.3c-3-0.7-6-1.1-9-1.7c-4.8-1.1-9.7-2.3-14.4-3
				c-3.6-0.7-7.2-1.2-10.5-2.4c-3-1.2-4.9-4.2-6.9-6.8c-2.4-3-4.9-6-6.4-9.5c2.8-1.1,5.6-2,8.5-2.5c0.8-0.1,1.6-0.3,2.4-0.4
				c1.9,2.4,8.6,7.6,10.7,9.7c4.2,4.1,8.1,6.6,13.1,9.7c4.1,2.5,9,2.8,13.6,3.7c4,0.8,8.1,1.6,11.8,3
				C401.1,704.9,402,705.3,402.8,705.9z"/>
			<path class="st19" d="M405.8,711.5c-1.6,0-3,0.3-4.6,0.5c-2.9,0.4-5.7,0.4-8.6,0.7c-0.3-1.5,0.1-4,0.9-4.8
				c0.3-0.4,0.7-0.7,1.2-0.9c2.1-1.1,5.7-1.1,8.1-1.1C404.6,707.1,405.6,708.8,405.8,711.5z"/>
			<path class="st11" d="M394.8,522c-3,2-6.8,2.8-10.3,3.3c-3.6,0.5-7.3,0.8-10.9,1.2c-7.2,0.8-14.4,1.5-21.7,2.1
				c-14.4,1.3-29,2.3-43.5,2.9c-14.6,0.5-29,0.9-43.6,0.7c-14.6-0.1-29-0.9-43.5-2.3c14.6,0.4,29,0.4,43.5,0.3
				c7.3-0.1,14.4-0.1,21.7-0.5c7.3-0.3,14.4-0.4,21.7-0.8c14.4-0.7,29-1.5,43.5-2.4l21.7-1.3c3.6-0.3,7.3-0.4,10.9-0.7
				C387.9,524.3,391.5,523.7,394.8,522z"/>
		</g>
	</g>
	<g>
		<g>
			<g>
				<path class="st1" d="M129.1,247.8H129c-2,0.5-4.2,0.8-6,1.9c-2.3,1.2-4.4,3.3-6.1,5c-4.2,3.8-8.2,8.1-12.3,11.9
					c-0.1,0.1-0.3,0.3-0.5,0.5c-2.9,3-4.4,7-5.4,11.1c-0.4,1.6-0.8,3.3-1.2,5c-0.8,4.1-1.5,8.3-1.9,12.7c-0.4,4.1-0.4,8.3-0.1,12.3
					c0,0.9,0.1,1.9,0.3,2.8c-4.1,0.3-8.9-0.9-12.6-1.1c-6.1-0.3-12.2,0-18.3,0c-10.1,0-20.4-0.7-30.5-1.9c-4-0.5-8-1.1-11.8-1.9
					c-4.6-0.8-9.1-1.6-12.3-5.3c-6-7-6.5-16.4-7.3-25.3c-0.7-7.4-2-15.1-1.9-22.7c0.1-7,1.7-13.9,3-20.8c1.7-8.9,2.8-17.8,3.7-26.8
					c0.7-7.4,1.7-15.2,5.4-21.9c4.1-7.4,11.4-10.9,18.3-15.1c4.6-2.8,9.1-5.8,13.5-8.9c1.5-1.1,2.8-2.3,3.8-3.4
					c0.3,0,0.5,0.1,0.8,0.1c1.7,2.7,3.6,5.3,5.2,8c3,5.3,6.1,10.6,8.9,16c1.5,2.8,2.4,8.1,5.4,7.8c2-0.1,4.8-2.7,6.2-4
					c3-2.9,4.9-7.3,8.3-9.8c0.8,2.5,2.9,5,4.2,7.4c1.2,2,2.1,6.4,4,7.8c1.5,1.2,4.8,1.2,6.5,1.7c2.5,0.7,4.9,1.6,7.2,2.5
					c1.1,0.4,2.3,0.8,3.6,1.2c0.5,0.1,1.1,0.4,1.6,0.5c0.9,1.3,1.7,2.7,2.4,4.2c2.3,5,3.3,11.3,6.1,15.9c1.1,1.7,2.7,2.9,3.6,4.8
					c1.6,3,2.4,6.8,3.3,10.1C127.7,235.6,129.3,242,129.1,247.8z"/>
				<path class="st9" d="M114.4,288.1c-1.7,3.2-3.8,6.5-5,8.3c1.5-2.3,2.4-4.8,2.7-7.7C112.8,288.5,113.6,288.2,114.4,288.1z"/>
				<path class="st9" d="M160.1,236.7c-1.6,0.7-2.9,1.7-4.4,2.5c-2.1,1.3-4.6,2.4-6.5,4.1c-3.2,2.8-6,6-9.5,8.3
					c-1.5,1.1-2.9,1.6-4.5,2c-0.7,0.1-1.3,0.4-2,0.5l1.1-1.3c0.4-0.1,0.9-0.3,1.3-0.4c1.5-0.4,2.7-0.9,4-1.7c3-2.1,5.6-4.9,8.3-7.4
					c1.7-1.5,3.8-2.4,5.7-3.6c1.7-1.1,3.3-2.3,5.3-2.8C159.3,236.8,159.7,236.7,160.1,236.7z"/>
				<path class="st9" d="M162.8,250.9c-2,0.1-4.2,0.9-5.8,1.6c-2.8,1.1-5.4,2.8-8.2,3.6c-0.7,0.3-1.3,0.4-2,0.7
					c0.7-0.7,1.2-1.5,1.9-2.1c0.3-0.3,0.5-0.5,0.9-0.9c1.7-0.8,3.4-1.7,5.2-2.4C157,250.6,160.8,249,162.8,250.9z"/>
				<path class="st6" d="M146.4,325.3c-5.8-0.3-11.9,1.7-17.5,2.3c-0.4-4.1-0.8-8.3-1.3-12.3c-0.8-5.7-2.3-12.6-6-17.4l16.4,1.2
					C144.8,307.5,146.4,315.5,146.4,325.3z"/>
				<path class="st9" d="M243.4,209.8l-75.5,88.9l-2.1,2.5l-27.8-2.1l-16.4-1.2L109,297c0-0.1,0.1-0.1,0.1-0.3
					c0.1-0.1,0.1-0.3,0.3-0.3c1.2-1.7,3.4-5.2,5-8.3c1.2-2.1,2-4.1,2.1-5.3c3.2-0.9,6.5-0.7,9.9-0.8c3.6-0.1,8,0.4,11.3-0.8
					c4.2-1.6,5.2-6,6.6-9.9c0.5-0.5,1.2-1.1,1.6-1.7c2-2.7,3.6-4.9,6.6-6.4c2.1-1.1,3.8-2.5,3.3-4.5c0.5-0.3,1.1-0.7,1.5-1.1
					c1.9-1.5,8.3-3,5.8-6.2c-0.1-0.1-0.3-0.3-0.4-0.4c-2-1.9-5.8-0.4-8.1,0.5c-1.9,0.7-3.4,1.6-5.2,2.4c-0.7,0.3-1.3,0.5-2,0.8
					c-0.5,0.1-1.2,0.4-1.7,0.5c0.5-0.7,1.1-1.2,1.7-1.9c2.3-2.3,4.6-4.4,7.2-6.2c2.4-1.7,4.6-4,7.2-5.6c1.5-0.9,3.2-2.8,1.3-4.4
					c-0.9-0.8-2-0.8-3-0.5c-0.4,0.1-0.8,0.3-1.2,0.4c-1.9,0.7-3.6,1.7-5.3,2.8c-1.9,1.2-4,2.1-5.7,3.6c-2.8,2.5-5.3,5.2-8.3,7.4
					c-1.2,0.9-2.5,1.3-4,1.7c-0.5,0.1-0.9,0.3-1.3,0.4l6.6-8.3l0.4-0.4l18.2-22.7l2.9-3.7l8.5-10.5l0,0l5.8-7.3l1.6,0.3l8.7,1.3
					L243.4,209.8z"/>
				<path class="st17" d="M116.5,282.8L116.5,282.8c-0.1,1.2-0.9,3.2-2.1,5.3c-1.7,3.2-3.8,6.5-5,8.3c-0.1,0.1-0.1,0.3-0.3,0.3
					c0,0.1-0.1,0.1-0.1,0.3c-2.8,4-6.9,6.9-11.3,9.5c-0.5,0.4-1.5,1.2-2.3,1.7c-0.3-4-0.3-8.2,0.1-12.3c0.4-4.4,6.1-13.5,7-17.6
					c0.7,1.5,0.9,1.7,1.9,3c0.7,1.1,1.3,2.3,2.1,3.3c0.1,0.1,0.1,0.3,0.3,0.4c0.1,0.1,0.3,0.3,0.4,0.4c0.1,0,0.4,0,0.5-0.1l0,0
					C110.8,285.2,114,283.7,116.5,282.8L116.5,282.8L116.5,282.8z"/>
				<path class="st1" d="M146.2,508.7c0,5.2-0.4,10.3-0.7,15.5c0,1.3-0.1,3-0.1,5c0,2.8-0.1,6-0.4,8.5c-4.6,2.1-10.5,3.4-15.8,4.5
					c-2.5,0.5-5,1.1-7.2,1.6c-0.3,0.1-0.7,0.1-0.9,0.3c-15.9,4.2-31.9,3-48.2,4.5c-2.5,0.3-5,0.5-7.7,0.7
					c-7.7,0.5-15.9,0.7-22.8-1.9c-0.7-5.7,0.3-14.3,0.3-18.4c0-12.5-0.3-24.6-1.9-37c-3.2-24-2.3-47.8-3.2-72
					c-0.8-18-1.3-35.9-1.2-53.9c0-19.5-2.1-38.6-2.1-58c10.1,1.3,20.5,1.9,30.5,1.9c6.1,0,12.2-0.3,18.3,0c3.7,0.1,8.5,1.3,12.6,1.1
					c-0.1-0.9-0.1-1.9-0.3-2.8c0.8-0.7,1.6-1.3,2.3-1.7c4.4-2.7,8.5-5.6,11.3-9.5l12.5,0.9c3.7,4.8,5,11.7,6,17.4
					c0.7,4.1,1.1,8.2,1.3,12.3c0.7,7.8,0.9,15.6,1.3,23.3c1.1,20.7,2.9,41.2,4.9,61.9c0.7,7.3,0.5,14.6,1.7,21.9
					c0.9,5.4,2.3,10.7,3.7,16c0.5,1.9,0.9,3.6,1.5,5.4c2.5,9.1,3.7,17.2,4.2,26.8C146.6,491.5,146.2,500.1,146.2,508.7z"/>
				<path class="st23" d="M34.4,308.1c0-0.1,0-0.4,0-0.5"/>
				<path class="st5" d="M103.6,163c-0.4,0.8-0.7,1.7-0.9,2.5c-0.8,2.1-1.7,4.1-2.3,6.2c-1.1,4.2-1.5,8.7-1.6,13.1
					c-4.2-2.9-8.6-6.1-11.5-10.1c-3-4.1-6-8.7-8.7-13.3c-1.7-2.7-3.7-5.3-5.8-7.8c2.9-0.9,5.6-2.3,8-3.8c2,1.6,3.8,3.7,5.7,5.2
					c3.3,2.5,6.6,5.3,10.6,6.8C98.9,162.6,101.3,162.7,103.6,163z"/>
				<path class="st24" d="M120,130c-0.9,1.9-2,3.7-3.4,5.2c-1.5,1.6-2.7,3-4.8,4c-0.5,0.3-1.1,0.4-1.7,0.4v-0.1
					c0.9-0.4,1.9-0.8,2.7-1.5C115.9,135.8,118.1,132.9,120,130z"/>
				<path class="st24" d="M127.9,114.8c-0.4,1.7-1.2,3.3-2,4.8C126.7,118,127.4,116.4,127.9,114.8z"/>
				<path class="st2" d="M128.5,105.6c0.1,2.5,0.1,5.2-0.1,7.6c-0.1,0.5-0.1,1.1-0.3,1.5c-0.5,1.6-1.2,3.2-2,4.8l0,0
					c-1.2,2.1-2.7,4.2-3.8,6.4c-0.8,1.3-1.5,2.7-2.1,4c-2,3-4.2,6-7.2,8c-0.8,0.5-1.7,1.1-2.7,1.5v0.1c-0.4,2.8-1.1,5.7-1.6,8.5
					c0,0.1-0.1,0.4-0.1,0.5c-0.5,2.7-0.8,5.2-1.1,7.8c-0.3,2.4-0.7,4.9-0.9,7.4c-0.9-0.4-2-0.7-2.9-0.8c-2.3-0.4-4.5-0.4-6.6-1.1
					c-4-1.3-7.2-4.2-10.6-6.8c-1.9-1.5-3.7-3.6-5.7-5.2c2.8-1.9,5.2-4.1,7.6-6.8c-3.2-7.2-7.3-13.9-8.9-21.7
					c-1.3-6.6-0.4-13.3,0.8-19.9c1.5-7.7,1.9-15.6,3.7-23.2c1.1-4.4,3.3-9.4,7.3-11.7c1.7-0.9,3.6-0.9,5.4-1.2
					c2.4-0.4,4.9-0.8,7.2-1.6c4.2-1.3,9.3-0.5,13.5,0.9c1.9,0.5,3.6,1.5,5.2,2.5c3.4,4.8,5.3,10.3,6,16.3c0,0.5,0.1,1.1,0.1,1.6
					c-0.1,1.2-0.3,2.4-0.4,3.6c-0.5,4.5-0.9,8.6-0.3,13.1C128.2,103.2,128.3,104.4,128.5,105.6z"/>
				<path class="st2" d="M126,119.5c-1.5,3-3.2,6-4.9,8.7c-0.3,0.5-0.7,1.1-0.9,1.6c0.7-1.3,1.3-2.7,2.1-4
					C123.3,123.8,124.8,121.8,126,119.5z"/>
				<path class="st7" d="M111,195.5c-0.5-0.1-1.1-0.4-1.6-0.5c-1.3-0.4-2.5-0.8-3.6-1.2c-2.4-0.9-4.8-1.9-7.2-2.5
					c-1.9-0.5-5.2-0.5-6.5-1.7c-1.9-1.5-2.8-5.8-4-7.8c-1.3-2.4-3.4-4.8-4.2-7.4c-3.4,2.5-5.3,6.9-8.3,9.8c-1.3,1.3-4.2,3.8-6.2,4
					c-3,0.1-4.1-5-5.4-7.8c-2.8-5.4-5.8-10.7-8.9-16c-1.5-2.7-3.4-5.3-5.2-8c6.5,1.2,14.3-0.3,19.2-1.3c1.2-0.3,2.4-0.5,3.6-0.9
					c2.1,2.5,4,5.2,5.8,7.8c2.9,4.4,5.7,9,8.7,13.3c2.9,3.8,7.3,7,11.5,10.1c1.7,1.2,3.6,2.4,5.2,3.6c2.1,1.6,4,3.2,5.6,5
					C109.9,194.2,110.4,194.8,111,195.5z"/>
				<path class="st6" d="M109.5,190.2c0,1.2,0,2.3-0.1,3.4c-1.6-1.9-3.4-3.4-5.6-5c-1.6-1.2-3.4-2.4-5.2-3.6
					c0.1-4.4,0.5-8.9,1.6-13.1c0.5-2.1,1.5-4.1,2.3-6.2c0.3-0.8,0.5-1.7,0.9-2.5c1.1,0.1,2,0.4,2.9,0.8c0.3,0.1,0.4,0.1,0.7,0.3
					c4,2.1,1.6,6.8,1.7,10.2C109.1,179.6,109.7,184.9,109.5,190.2z"/>
				<path class="st5" d="M124.5,164.9c-0.3,0.3-0.5,0.5-0.8,0.8c-0.7,0.5-1.2,1.3-1.6,2.1c-1.9,3.2-2.5,7-4.2,10.2
					c0,0.1-0.1,0.3-0.1,0.3c-0.9,1.7-2.3,3.3-3.4,4.9c-0.4,0.5-0.7,1.1-1.1,1.6c-1.1,1.9-2.3,3.7-3.6,5.3c0-5.3-0.5-10.5-0.8-15.9
					c-0.1-3.4,2.3-8.1-1.7-10.2c-0.1-0.1-0.4-0.1-0.7-0.3c0.1-2.5,0.7-5,0.9-7.4c0.3-2.7,0.5-5.3,1.1-7.8c0-0.1,0.1-0.4,0.1-0.5
					c1.6,1.7,3.2,3.8,4.6,5.6c2.1,2.3,4.4,4.4,6.8,6.5C121.7,161.6,123,163.1,124.5,164.9z"/>
				<path class="st25" d="M127,209.4c-1.6-2.8-3.3-5.6-4.9-8.2c-1.7-2.9-3.4-5.7-4.9-8.9c-1.3-2.9-2-6.1-2.9-9.1
					c1.2-1.6,2.4-3.2,3.4-4.9c0-0.1,0.1-0.1,0.1-0.3c0.7,1.2,1.3,2.4,2.1,3.4c0.7,0.9,1.5,2.1,2,3c0.7-2.7,1.7-5.3,2.7-7.8
					c1.1,1.2,2.7,1.9,3.4,3.2c0.9,1.3-1.1,4.6-1.2,6.6C126.4,194,126.4,201.8,127,209.4z"/>
				<path class="st6" d="M141.3,244.1l-0.4,0.4c-0.1,0-0.3,0-0.3,0c-0.3,0-0.7,0-0.9,0.1c-1.3,0.3-2.5,0.8-3.8,1.2
					c-2.3,0.7-4.5,1.3-6.8,2v-0.1c0-1.9-0.1-3.8-0.4-5.7c-0.5-4-1.6-7.8-2.5-11.3c-0.8-3.3-1.7-7-3.3-10.1c-0.9-1.9-2.7-3-3.6-4.8
					c-2.8-4.8-3.8-11-6.1-15.9c-0.7-1.6-1.5-3-2.4-4.2c-0.4-0.7-0.9-1.3-1.5-1.9c0-1.2,0.1-2.4,0.1-3.4c1.5-1.6,2.7-3.4,3.6-5.3
					c0.3-0.5,0.7-1.1,1.1-1.6c0.9,3,1.6,6.2,2.9,9.1c1.5,3,3.2,6,4.9,8.9c1.6,2.8,3.3,5.4,4.9,8.2c3.2,5.4,6.4,10.9,9,16.6
					C138.5,231.7,140.9,237.7,141.3,244.1z"/>
				<path class="st1" d="M159.5,221.3L141.3,244c-0.4-6.2-2.8-12.5-5.4-18c-2.7-5.7-5.7-11.1-9-16.6c-0.5-7.7-0.7-15.4,0-23.1
					c0.1-2,2.1-5.3,1.2-6.6c-0.8-1.3-2.4-2-3.4-3.2c0.3-0.7,0.5-1.3,0.7-1.9v-0.1c0.1-0.4,0.3-0.8,0.4-1.2c0.9-2.8,1.1-4.8-0.3-7
					l0,0c1.2,0.4,2.4,0.9,3.7,1.5c5.7,2.5,10.1,5.3,13.8,10.5c5.3,7.6,8.7,16.6,11.3,25.3c0.4,1.3,0.5,2.7,0.8,3.8l0,0
					c0.3,1.9,0.7,3.6,1.5,5.4c0.7,1.7,1.5,3.3,2.1,5C159.1,219.2,159.3,220.3,159.5,221.3z"/>
				<path class="st6" d="M125.8,173.3c-0.4,1.1-0.8,2.1-1.2,3.3c-0.9,2.5-2,5.2-2.7,7.8c-0.5-0.9-1.3-2-2-3
					c-0.8-1.1-1.5-2.3-2.1-3.4c1.7-3.3,2.3-7.2,4.2-10.2c0.5-0.8,1.1-1.5,1.6-2.1c0.3-0.3,0.5-0.5,0.8-0.8c0.1,0.1,0.3,0.3,0.4,0.5
					c0.3,0.3,0.5,0.7,0.7,0.9l0,0l0,0C126.9,168.6,126.7,170.6,125.8,173.3z"/>
				<path class="st2" d="M170.9,207.1L170.9,207.1l-8.5,10.5c0-0.9-0.1-2.3,0-2.9c0.1-1.6,0.3-3,0.4-4.6c0.3-2.5,0.3-5.4,3.6-5.3
					C168,204.8,170.3,205.5,170.9,207.1z"/>
				<path class="st2" d="M187.2,201.4l-8.7-1.3c0-2.7,0.7-6.5,3.6-7.2c1.5-0.4,3.4,0.4,4.5,1.6C188,196,187.6,199.1,187.2,201.4z"/>
				<path class="st26" d="M146.2,330.8c-0.4,7.2-0.3,14.6-0.3,21.7c0,20.1-2.7,40.3-1.9,60.4c0.5,12.6-1.1,25.4-3.6,37.9
					c-1.5-5.3-2.8-10.6-3.7-16c-1.2-7.3-1.1-14.6-1.7-21.9c-1.9-20.7-3.7-41.2-4.9-61.9c-0.4-7.7-0.7-15.6-1.3-23.3
					c5.6-0.5,11.7-2.5,17.5-2.3C146.4,327.1,146.4,328.9,146.2,330.8z"/>
				<path class="st1" d="M180.7,515.2c-0.1,3.7-0.7,7.8-0.5,11.7c-3.7,1.7-8.5,1.5-12.6,1.5c-4.2,0-8.6,0.1-12.9,0.3
					c-2.1,0.1-4.1,0-6.2,0.1c-1.1,0-2.1,0.3-3,0.4c0-1.9,0.1-3.7,0.1-5c0.3-5.2,0.5-10.3,0.7-15.5c0-8.6,0.4-17.2,0-25.8
					c-0.4-9.4-1.7-17.6-4.2-26.8c-0.5-1.9-0.9-3.6-1.5-5.4c2.5-12.6,4-25.4,3.6-37.9c-0.8-20.1,1.9-40.3,1.9-60.4
					c0-7.2,0-14.6,0.3-21.7c0.1-1.9,0.1-3.6,0.1-5.4c0-9.8-1.6-17.9-8.5-26.2l27.8,2.1l2.1-2.5c0.4,2.5-0.1,5.6,0.1,8.2
					c0.5,5.4,1.2,11,1.7,16.4c0.7,7.7,2.4,15.2,3.3,22.8c0.8,6.4,0.8,12.9,1.2,19.2c0.1,2.9,0.5,5.6,0.5,8.5c0,3.3,0,6.6,0.5,9.9
					c1.1,8.5,2.4,17,2.9,25.6c0.7,9.3,0.4,18.7,0.4,28.1c0,5,0.1,10.2,0.3,15.2c0.1,2.7,0.1,5.2,0.3,7.8c0.1,2.5-0.4,4.5-0.5,6.9
					s0.1,5,0.3,7.6c0.4,10.3,1.9,20.9,2,31.3C180.8,509.3,180.8,512.2,180.7,515.2z"/>
				<path class="st27" d="M133.8,78.9c-2.5-4.1-5.6-7.7-9.9-10.3c-0.3-0.1-0.7-0.4-0.9-0.5c-1.7-0.9-3.3-1.9-5.2-2.5
					c-4.2-1.3-9.3-2.1-13.5-0.9c-2.4,0.8-4.8,1.2-7.2,1.6c-1.9,0.3-3.7,0.1-5.4,1.2c-4.1,2.4-6.4,7.4-7.3,11.7
					c-1.9,7.6-2.3,15.4-3.7,23.2c-1.5,7.7-2.3,17,0.4,24.1c0.3,0.8,0.7,1.5,1.1,2.3c1.1,2,2.4,4,3.4,5.8c1.5,2.5,3.7,4.9,3.7,8
					c0,1.9-1.3,3-2.5,4.2c-1.5,1.6-3.7,2.7-5.6,3.8c-2.4,1.6-5,2.9-8,3.8c-1.2,0.4-2.4,0.7-3.6,0.9c-5,1.1-12.9,2.5-19.2,1.3
					c-0.4-0.1-0.5-0.1-0.8-0.1c-3.4-0.7-6.4-2.3-8.3-4.9c-3.4-4.8-3.8-13.8-3.3-19.2c0.8-8.6,2.4-17.1,6.9-24.6
					c4.6-7.7,8-15,10.6-23.6c2.5-8,4.5-15.4,11.4-20.5c9.3-7,23.9-18.8,35.4-9.3c6.1,0,11.3-1.6,17.2,1.6
					c6.9,3.7,13.4,14.2,14.4,21.7C133.6,78.1,133.8,78.5,133.8,78.9z"/>
				<g>
					<path class="st11" d="M101,267c-4.9,0.3-9.8,0.7-14.6,0.5c-2.4,0-4.9,0-7.3-0.1l-7.3-0.1c-2.4-0.1-4.9-0.1-7.3,0.1
						c-2.4,0.1-4.8,0.8-7,1.3c-4.6,1.3-9.1,3.2-13.9,4.6c4.5-1.9,8.9-4,13.6-5.6c2.4-0.8,4.8-1.3,7.3-1.6c2.5-0.3,4.9-0.3,7.4-0.3
						c4.9,0.1,9.7,0.3,14.6,0.4c2.4,0.1,4.9,0.3,7.3,0.3C96.1,266.9,98.7,266.9,101,267z"/>
				</g>
				<g>
					<path class="st11" d="M46.3,184.9c3.6,4.9,6.1,10.5,8,16.2c1.9,5.8,2.9,11.8,3.3,17.9c0.4,6.1-0.1,12.2-1.5,18.2
						s-3.2,11.7-5.6,17.1c1.3-5.8,2.8-11.7,3.6-17.5s1.3-11.7,0.8-17.6c-0.4-5.8-1.2-11.7-2.7-17.5C50.9,195.9,49,190.2,46.3,184.9z
						"/>
				</g>
				<g>
					<path class="st11" d="M26.6,269.2c-3.4,2.4-6.9,4.5-10.2,6.9s-6.5,4.9-9.3,8c2.1-3.6,5.2-6.6,8.6-9
						C19,272.6,22.7,270.6,26.6,269.2z"/>
				</g>
				<g>
					<path class="st11" d="M29.3,277.9c-1.5,1.1-2.5,2.5-3.6,3.8c-1.1,1.5-2.1,2.8-3.2,4.2c-2,2.8-3.8,5.8-5.7,8.9
						c0.9-3.4,2.5-6.8,4.6-9.7c1.1-1.5,2.3-2.8,3.4-4.1C26.2,279.9,27.6,278.6,29.3,277.9z"/>
				</g>
				<g>
					<path class="st11" d="M34.4,308.1c-4-0.4-7.8-0.8-11.8-1.5c-2-0.3-4-0.7-5.8-1.2c-2-0.5-3.8-1.5-5.4-2.8c-3-2.8-5-6.5-6.4-10.3
						c-1.3-3.8-1.9-7.8-2.4-11.8c-0.4-4-0.8-7.8-1.3-11.8s-0.9-8-1.2-11.9c-0.4-8.1,1.2-16,2.7-23.9c1.6-7.7,2.7-15.5,3.6-23.3
						s1.5-15.9,4.6-23.5c0.8-1.9,1.7-3.7,2.9-5.3c1.2-1.7,2.7-3.2,4.1-4.5c3-2.7,6.6-4.6,10.1-6.5c6.9-3.8,13.5-8.1,19.9-12.9
						c-6.1,5-12.6,9.7-19.3,13.8c-3.3,2.1-6.8,4.1-9.5,6.8c-2.9,2.7-5,5.8-6.4,9.4C9.9,194.1,9.5,202,8.7,210s-1.9,15.8-3.4,23.6
						c-1.6,7.8-3,15.5-2.8,23.2c0.1,3.8,0.5,7.8,0.9,11.8l0.7,6l0.5,6c0.4,4,0.8,7.8,2,11.5c1.1,3.7,2.9,7.3,5.6,9.9
						c2.8,2.5,6.8,3.4,10.6,4.2C26.6,306.8,30.5,307.5,34.4,308.1z"/>
				</g>
				<g>
					<path class="st11" d="M34.4,308.1l15.4,0.4c5.2,0.1,10.2,0.3,15.4,0.1c5,0,10.2-0.1,15.4,0.3c1.3,0.1,2.5,0.1,3.8,0.3
						c1.3,0.1,2.5,0.4,3.8,0.7c2.5,0.5,5,1.1,7.6,1.2c-2.5,0.4-5.2,0.3-7.7,0.1c-2.5-0.3-5-0.3-7.6-0.3c-5,0.1-10.2,0.4-15.4,0.4
						s-10.3-0.3-15.5-0.8C44.6,310,39.4,309.3,34.4,308.1z"/>
				</g>
				<g>
					<path class="st11" d="M42.6,547.6c-0.7-4.9-0.4-9.9-0.3-15c0.1-2.5,0-4.9,0-7.4l-0.3-7.4c-0.1-5-0.4-9.9-0.9-15
						c-0.4-5-1.1-9.8-1.7-14.8c-2.4-19.9-2.1-40-2.8-59.9s-1.5-39.9-1.2-59.9c0.1-9.9-0.1-19.9-0.7-29.9c-0.3-9.9-0.8-20-0.5-29.9
						c0.3,9.9,1.1,19.9,1.7,29.9c0.7,9.9,1.3,20,1.3,29.9c0.1,9.9,0.3,20,0.7,29.9c0.3,9.9,0.8,19.9,1.2,29.9
						c0.4,20,0.1,40,2.1,59.8c0.5,4.9,1.2,9.9,1.5,15s0.5,10.1,0.5,15v7.6c0,2.5,0,5-0.3,7.6c-0.1,2.5-0.4,5-0.5,7.4
						C42.5,542.5,42.5,545.1,42.6,547.6z"/>
				</g>
				<g>
					<path class="st11" d="M168,306.9c0.7,4.5,1.2,9.1,1.7,13.6c0.3,2.3,0.5,4.5,0.9,6.8s0.8,4.5,1.2,6.8c0.8,4.5,1.7,9,2.3,13.6
						s0.7,9.3,0.9,13.8c0.1,2.3,0.3,4.5,0.5,6.8s0.4,4.8,0.4,7c0,2.3,0.1,4.5,0.3,6.8c0.3,2.3,0.5,4.5,0.9,6.8
						c1.2,9.1,2.5,18.3,2.8,27.6c0.3,9.3-0.3,18.4,0,27.6c0,4.6,0.1,9.1,0.3,13.8c0,1.2,0.1,2.3,0.1,3.4c0,1.2-0.1,2.4-0.3,3.6
						c-0.1,1.2-0.3,2.3-0.4,3.3c0,1.1,0,2.3,0.1,3.3c0.1,1.2,0.1,2.3,0.1,3.4l0.1,3.4c0.1,2.3,0.3,4.6,0.4,6.9
						c0.3,4.6,0.7,9.1,0.8,13.8c0.1,2.3,0.1,4.6,0.1,6.9l-0.3,6.9c-0.1,4.6-1.1,9.1-0.9,13.8c-0.4-4.6,0.3-9.1,0.3-13.8v-6.9
						c0-2.3-0.1-4.6-0.4-6.9c-0.3-4.5-0.8-9.1-1.2-13.6c-0.3-2.3-0.4-4.6-0.7-6.9l-0.3-3.4c0-1.1-0.1-2.3-0.3-3.4
						c-0.1-1.2-0.1-2.4-0.1-3.6s0.1-2.4,0.3-3.6c0.1-1.2,0.3-2.3,0.3-3.3s-0.1-2.3-0.1-3.4c-0.3-4.6-0.3-9.1-0.4-13.8
						c-0.4-9.3,0.1-18.4-0.3-27.6c-0.1-9.1-1.3-18.2-2.5-27.3c-0.3-2.3-0.5-4.5-0.8-6.9s-0.3-4.6-0.3-7c0-1.2,0-2.3,0-3.4
						s-0.1-2.3-0.3-3.4c-0.3-2.3-0.3-4.6-0.4-6.9c-0.1-4.6-0.3-9.1-0.7-13.8c-0.4-4.5-1.2-9-1.9-13.6c-0.3-2.3-0.7-4.5-0.9-6.9
						c-0.3-2.3-0.4-4.6-0.7-6.9C168.8,316.2,168.4,311.6,168,306.9z"/>
				</g>
				<g>
					<g>
						<g>
							<path class="st9" d="M56.1,156.3c2,4.2,5,7.8,7.7,11.7c3,4.5,5.2,9.5,6.8,14.7c3.2,9.9,4.4,20.3,6.4,30.5
								c0.4,2.3,4.2,1.7,4-0.5c-1.9-19.9-9.4-42.7-24.4-56.6C56.4,155.7,56.1,156,56.1,156.3L56.1,156.3z"/>
						</g>
					</g>
					<g>
						<g>
							<path class="st9" d="M124.6,174.1c0.4,2.5,0.8,4.2,2.3,6.5c1.3,2,2.8,3.8,4.2,5.7c1.2,1.5,3.8-0.5,2.7-2.1
								c-1.3-2-2.7-3.8-4.1-5.8c-1.5-2-2.8-3-4.6-4.6C124.9,173.7,124.6,173.9,124.6,174.1L124.6,174.1z"/>
						</g>
					</g>
					<g>
						<g>
							<path class="st9" d="M148.5,198c0.1-4-4.4-8.1-7.3-10.3c-2.8-2.3-6.8-4.8-10.5-4.8c-0.3,0-0.4,0.5-0.1,0.5
								c4.2,0.9,6.8,5.6,9.4,8.6c2.1,2.4,4.1,5.8,7.2,7C148,199.2,148.5,198.7,148.5,198L148.5,198z"/>
						</g>
					</g>
					<g>
						<g>
							<path class="st9" d="M129.9,183.5c-3.2,0.7-4.2,3-3.7,6.1c0.7,4,2.9,9.8,6.4,11.9c1.3,0.8,2.5-0.5,2.4-1.9
								C134.4,197.5,126.2,185.3,129.9,183.5C130.1,183.7,129.9,183.5,129.9,183.5L129.9,183.5z"/>
						</g>
					</g>
					<g>
						<g>
							<path class="st18" d="M133.9,203c4.5,9.4,10.2,18.2,18.3,24.8c1.3,1.2,3.2-0.5,2-2c-6.6-7.7-13.6-15-19.7-23.2
								C134.2,202.4,133.8,202.6,133.9,203L133.9,203z"/>
						</g>
					</g>
					<g>
						<g>
							<path class="st18" d="M149.4,200.6c2.8,5.4,6.4,10.7,10.1,15.6c0.9,1.3,2.9,0.1,2.1-1.3c-2.8-5.4-6.9-10.9-11.5-14.8
								C149.7,199.8,149.1,200.2,149.4,200.6L149.4,200.6z"/>
						</g>
					</g>
					<g>
						<path class="st1" d="M73.5,215.4c2.4-1.3,5.3-2.1,8-1.5c1.5,0.4,2.8,1.1,4,1.9c1.2,0.8,2.4,1.6,3.2,2.8
							c0.8,1.2,1.2,2.8,0.7,4.1c-0.3,0.7-0.7,1.2-1.2,1.6c-1.9,1.9-4.6,2.9-7.3,2.8s-5.3-1.5-6.9-3.4c-0.9-1.2-1.6-2.5-1.9-4
							C72,218,72.4,216.4,73.5,215.4"/>
						<g>
							<path class="st18" d="M73.6,215.5c3.2-0.8,6.2-1.3,9.3,0.3c0.9,0.5,1.9,1.1,2.8,1.7c2.8,2.1,2.5,5.6-0.5,7
								c-5.3,2.7-14.3-2.3-10.7-8.7c0.5-1.1-0.8-2.3-1.7-1.3c-3.4,3.3-1.7,8.9,1.7,11.7c4,3.2,9.8,3,13.8-0.1
								c3.8-3,3.4-7.3-0.1-10.3c-4.5-3.6-9.9-4.2-14.6-0.5C73.2,215.4,73.3,215.6,73.6,215.5L73.6,215.5z"/>
						</g>
					</g>
				</g>
				
					<linearGradient id="SVGID_3_" gradientUnits="userSpaceOnUse" x1="128.7978" y1="57.9756" x2="115.2388" y2="60.6876" gradientTransform="matrix(1 0 0 1 0 58.0547)">
					<stop  offset="0" style="stop-color:#FFFFFF"/>
					<stop  offset="1" style="stop-color:#000000"/>
				</linearGradient>
				<path class="st28" d="M141.3,143.9c-0.9,9.7-8,17.5-15.8,22.4c0,0,0,0-0.1,0c-0.1-0.3-0.4-0.7-0.7-0.9c-0.1-0.1-0.3-0.3-0.4-0.5
					c-1.3-1.7-2.8-3.3-4.5-4.8c-2.4-2-4.8-4.2-6.8-6.5c-1.6-1.7-3-3.8-4.6-5.6c0.7-2.9,1.3-5.8,1.7-8.6c0.9-0.4,1.9-0.8,2.7-1.5
					c3.4-2.4,6-6,8.1-9.5c3.4-5.6,7-11.7,8.1-18.3c0.8-4.8,0.9-9.9,0.3-14.7c-0.5-3.8-0.4-7.6-0.9-11.4c-0.7-6-2.5-11.7-6-16.3
					c0.3,0.1,0.7,0.4,0.9,0.5c4.4,2.7,7.4,6.2,9.9,10.3c1.3,9.5,1.7,19.3,2.7,29c0.7,6.4,1.5,12.7,2.7,19.1
					C139.7,132.1,141.9,138.2,141.3,143.9z"/>
				<path class="st1" d="M115.4,119c0,0-15.6-1.3-17.8-1.2l3.8,3.3c0,0,5.4,3.6,10.1,1.7C116.3,120.7,115.4,119,115.4,119z"/>
				<g>
					<path class="st15" d="M86.2,87.7c1.3-0.9,2.5-2,4.2-2.4c0.4-0.1,0.9-0.3,1.3-0.3s0.8,0,1.2,0c0.8,0,1.6,0.1,2.4,0.3
						c1.6,0.3,3.2,0.5,4.6,1.2c1.5,0.7,2.8,1.3,4.2,2c-1.6,0.1-3.2-0.3-4.8-0.7c-1.5-0.4-2.9-0.5-4.5-0.8l-2.3-0.3
						c-0.8-0.1-1.5-0.1-2.1-0.1C89.4,86.9,87.9,87.6,86.2,87.7z"/>
				</g>
				<g>
					<path class="st15" d="M114.7,90.3c0.4-0.5,0.8-0.9,1.5-1.2c0.5-0.3,1.2-0.4,1.9-0.5c1.2-0.1,2.3-0.3,3.4-0.3
						c1.2,0,2.4,0.1,3.6,0.4s2.4,0.8,3.2,1.7c-1.2-0.1-2.3-0.1-3.4-0.1l-3.3,0.1c-1.1,0-2.4,0-3.4-0.1
						C116.9,89.9,115.9,89.9,114.7,90.3z"/>
				</g>
				<path class="st12" d="M95.5,93.2c0,1.3-1.1,2.5-2.5,2.5c-1.3,0-2.5-1.1-2.5-2.5c0-0.3,0-0.4,0.1-0.7c0.8-0.3,1.7-0.4,2.3-0.4
					c0.9-0.1,1.7,0,2.5,0.3C95.3,92.6,95.5,92.9,95.5,93.2z"/>
				<path class="st12" d="M121,95.3c0,1.3-1.1,2.5-2.5,2.5c-1.3,0-2.5-1.1-2.5-2.4c0.9-0.7,2-1.1,2.8-1.1c0.7-0.1,1.3,0,2,0.3
					C121,94.6,121,95,121,95.3z"/>
				<path class="st16" d="M116.4,119.3c0,0-4.4,0.1-9-0.7s-10.7-0.8-10.7-0.8s4.9-1.9,10.7-1.5c1.2,0.1,1.7,0.8,4.1,0.4
					C113.9,116.5,116.4,119.3,116.4,119.3z"/>
				<path class="st29" d="M97.1,118c0,0,7.2,4.2,12.6,3.8c5.4-0.4,6.2-2.3,6.2-2.3s-0.3,5.8-8.2,5.7C99.8,125.2,97.1,118,97.1,118
					L97.1,118z"/>
				<path class="st30" d="M113.1,108.3c0,0-3.6,2.5-9.7-0.7C103.6,107.6,108.9,114.4,113.1,108.3z"/>
				<g class="st31">
					<path class="st3" d="M94.7,113.2c-0.9,1.1-1.7,2.1-2.1,3.4c-0.4,1.2-0.4,2.7-0.7,4c-0.1-0.7-0.3-1.3-0.3-2.1
						c0-0.7,0.1-1.5,0.3-2.1C92.4,115,93.5,113.8,94.7,113.2z"/>
				</g>
				<g class="st31">
					<path class="st3" d="M119.3,115.4l0.7,1.2c0.3,0.4,0.3,0.9,0.3,1.5c0,0.9-0.4,1.9-1.1,2.5c0.1-0.4,0.1-0.9,0.3-1.3
						c0.1-0.4,0.1-0.8,0.1-1.3c0-0.4,0-0.8-0.1-1.2C119.5,116.4,119.2,116,119.3,115.4z"/>
				</g>
				<path class="st32" d="M100.4,95.8c0,0-5.2-5.4-10.7-1.6h-2.8C86.7,94.4,94.1,88,100.4,95.8z"/>
				<path class="st32" d="M113.8,96.9c0,0,5.6-4.9,9.7,0.5h2.1C125.6,97.4,119.9,90,113.8,96.9z"/>
				<path class="st33" d="M141.3,143.9c-0.9,9.7-8,17.5-15.8,22.4c0,0,0,0-0.1,0c-0.1-0.3-0.4-0.7-0.7-0.9c-0.1-0.1-0.3-0.3-0.4-0.5
					c-1.3-1.7-2.8-3.3-4.5-4.8c-2.4-2-4.8-4.2-6.8-6.5c-1.6-1.7-3-3.8-4.6-5.6c0.5-2.8,1.2-5.7,1.6-8.5v-0.1
					c0.9-0.4,1.9-0.8,2.7-1.5c2.9-2.1,5.2-4.9,7.2-8c0.7-1.3,1.3-2.7,2.1-4c1.2-2.1,2.7-4.2,3.8-6.4l0,0c0.8-1.6,1.5-3.2,2-4.8
					c0.1-0.5,0.3-1.1,0.3-1.5c0.4-2.4,0.4-5,0.1-7.6c-0.1-1.2-0.3-2.4-0.4-3.6c-0.5-4.5-0.3-8.6,0.3-13.1c0.1-1.2,0.3-2.4,0.4-3.6
					c0-0.5-0.1-1.1-0.1-1.6c-0.7-6-2.5-11.7-6-16.3c0.3,0.1,0.7,0.4,0.9,0.5c4.4,2.7,7.4,6.2,9.9,10.3c1.3,9.5,1.7,19.3,2.7,29
					c0.7,6.4,1.5,12.7,2.7,19.1C139.7,132.1,141.9,138.2,141.3,143.9z"/>
				<g>
					<path class="st3" d="M87.4,136c3.7,1.2,7.4,2.1,11.3,2.5c1.9,0.3,3.8,0.4,5.7,0.5l2.9,0.3c0.9,0.1,1.9,0.3,2.9,0.1
						c-2,0.4-3.8,0.1-5.8,0c-1.9-0.1-3.8-0.3-5.8-0.4c-2-0.3-3.8-0.7-5.7-1.2C91,137.4,89.2,136.8,87.4,136z"/>
				</g>
				<path class="st23" d="M127.1,75.5c1.6,3,1.9,6.5,1.6,9.9"/>
				<path class="st2" d="M164.9,250.3c2.5,3.3-4.1,5-6.1,6.5c-0.5,0.4-1.1,0.8-1.6,1.1c0.7,2-1.2,3.6-3.3,4.6
					c-3,1.6-4.8,3.8-6.8,6.6c-0.5,0.7-1.1,1.2-1.6,1.7c-1.5,4.1-2.4,8.6-6.8,10.2c-3.4,1.3-8,0.7-11.7,0.8c-3.4,0.1-6.9,0-10.2,0.8
					l0,0l0,0c-0.4,0.1-0.8,0.3-1.2,0.4c-2.3,0.8-5,2.1-7.7,2.5l0,0c-0.3,0-0.4,0-0.7,0.1c-0.1-0.1-0.3-0.3-0.4-0.4s-0.3-0.3-0.3-0.4
					c-0.7-0.9-1.3-2-1.9-2.9c-0.8-1.3-1.6-2.5-2.3-3.7c0.3-1.6,0.7-3,1.1-4.5c0.9-3.7,2.3-7.3,4.9-10.1c0.1-0.1,0.3-0.3,0.4-0.4
					c3.7-3.4,7.3-7.3,11-10.7c1.6-1.5,3.6-3.4,5.6-4.5c0.1-0.1,0.3-0.1,0.4-0.1l0,0c1.2-0.5,2.5-0.8,3.8-1.2
					c0.4-0.1,0.8-0.1,1.1-0.3h0.1c2-0.5,4.1-1.2,6.1-1.7c1.2-0.3,2.3-0.9,3.4-1.1c0.4,0,0.8-0.1,1.1-0.1l-0.1,0.1l-6.9,8.6
					c0.1,0,0.3,0,0.4-0.1c0.5-0.1,0.9-0.3,1.5-0.4c1.5-0.4,2.8-0.9,4-1.9c3.2-2.3,5.7-5,8.6-7.6c1.7-1.5,4-2.5,5.8-3.7
					c1.7-1.1,3.4-2.3,5.4-2.9c0.4-0.1,0.8-0.3,1.3-0.4c1.1-0.3,2.1-0.3,3,0.7c1.9,1.6,0.1,3.4-1.3,4.5c-2.5,1.7-4.8,4-7.3,5.7
					c-2.7,1.9-5,4-7.4,6.4c-0.7,0.7-1.2,1.2-1.7,1.9c0.5-0.3,1.2-0.4,1.7-0.7c0.7-0.3,1.3-0.5,2.1-0.8c1.7-0.8,3.4-1.7,5.3-2.5
					c2.4-0.8,6.2-2.4,8.2-0.5C164.6,250.1,164.8,250.2,164.9,250.3z"/>
				<g>
					<path class="st3" d="M146.8,254.7c-0.7,1.2-1.7,2.1-2.7,3.2c-0.5,0.5-0.9,1.1-1.3,1.6s-0.9,1.1-1.5,1.5l1.2-1.7
						c0.4-0.5,0.8-1.1,1.3-1.6c0.4-0.5,0.9-1.1,1.5-1.5C145.7,255.6,146.2,255.1,146.8,254.7z"/>
				</g>
				<g>
					<path class="st3" d="M143.6,267c2.1-1.9,4.2-3.6,6.5-5.3c2.3-1.6,4.8-2.8,7.3-4c-2.3,1.7-4.8,2.9-7,4.5
						C148.1,263.9,146,265.7,143.6,267z"/>
				</g>
				<g>
					<path class="st3" d="M140.7,274.9c0.4-0.4,0.8-0.7,1.2-1.1c0.4-0.3,0.8-0.7,1.2-1.1c0.8-0.7,1.6-1.5,2.5-2
						c-0.7,0.9-1.3,1.7-2.1,2.4c-0.4,0.4-0.8,0.8-1.3,0.9C141.7,274.5,141.2,274.6,140.7,274.9z"/>
				</g>
				<g>
					<path class="st34" d="M122.2,543.9c-2.4,5.6-4.6,11.3-7.6,16.7c-4.5,8.5-7.8,17.4-11,26.4c-3,8.9-6.5,17.4-8.3,26.5
						c-1.6,7.4-2.4,15-3.7,22.5c-1.6,8.9-2.3,12.5-3.2,17.5c0,1.2-0.1,2.4-0.1,3.4c-0.1,0.3-0.3,0.5-0.4,0.8c-8-0.7-16-3.6-23.9-6.1
						c-1.9-0.5-3.6-1.3-5.3-2.1c-1.1-0.5-2-1.2-3-1.9c0.1-3.6,0.8-8.2,1.2-11.5c0.5-5.6,1.1-11.3,2-16.8c1.3-9.3,2-18.7,2.7-28.1
						c0.5-7.6,2.3-15,2.7-22.7c0.3-6.6,0.4-12.9,1.2-19.2c2.7-0.1,5.2-0.4,7.7-0.7c16.2-1.6,32.3-0.3,48.2-4.5
						C121.6,544,121.8,544,122.2,543.9z"/>
					<path class="st26" d="M129.4,542.3c-0.8,1.6-1.6,3.2-2.3,4.8c-0.9,2.4-1.6,4.9-2.8,7.2c-1.9,3.8-3.8,7.4-5.4,11.4
						c-2.3,5.7-4.6,11.4-6.8,17l0,0c-1.9,4.8-3.6,9.5-5.2,14.3c-0.3,0.9-0.7,1.9-1.1,2.8l0,0c-1.9,4.8-3.8,9.4-5.7,14.2
						c-2,5.3-3.7,10.9-5,16.4c-0.9,3.8-1.7,7.8-2,11.9c-0.1,2.1-0.3,4.2-0.4,6.4c0,0.4,0,0.8,0,1.2c0,0.9,0.1,1.9-0.1,2.5
						c-0.7,2-3.2,2.9-4.4,4.5c0-1.2,0.1-2.3,0.1-3.4c0.9-5,1.6-8.6,3.2-17.5c1.3-7.4,2.1-15.1,3.7-22.5c1.9-9.3,5.3-17.6,8.3-26.5
						c3.2-9,6.4-17.9,11-26.4c2.9-5.4,5.2-11,7.6-16.7C124.4,543.3,126.7,542.8,129.4,542.3z"/>
					<path class="st2" d="M88.6,682.3c-2.8-1.7-8.2-0.7-11-0.4c-6.4,0.7-13.6,1.6-19.1,5.3c-0.9-2-2.1-3.7-3-5.7
						c-1.3-2.7-1.9-5.6-2.8-8.2c-1.6-4.6-0.3-8.1,1.6-11.9c0.3-0.4,0.4-0.9,0.7-1.3c1.7-3.4,2.9-6.9,3.8-10.6
						c1.7,0.9,3.4,1.6,5.3,2.1c7.8,2.5,15.9,5.3,23.9,6.1c0.1-0.3,0.3-0.5,0.4-0.8c-0.3,3.7-0.5,7.3-0.8,11c-0.1,2.7,0,5.3,0.3,8
						C88.1,677.3,88.1,680.5,88.6,682.3z"/>
					<path class="st26" d="M58.4,687.2c-1.5,1.1-2.9,2.3-4.1,3.7c-0.7,0.8-1.7,2.1-2.3,3.3c-1.6-1.7-3.4-3.2-5.2-4.9
						c-0.5-0.5-1.1-1.1-1.6-1.7c-4.6-6-0.9-11.9,2.4-17.5c1.3-2.1,2.3-5.6,4.1-7.2c0.5-0.4,1.5-1.1,2.4-1.7
						c-1.9,3.8-3.2,7.3-1.6,11.9c0.9,2.8,1.5,5.7,2.8,8.2C56.2,683.5,57.4,685.4,58.4,687.2z"/>
					<path class="st26" d="M108.1,727.3c-0.5,1.3-4.2,0.9-5.8,1.1c-3.4,0.3-6.8,0.3-10.2,0.1c-5.6-0.3-11.7-1.2-17-3
						c-4-1.3-8.7-3.2-11.8-6.2c-2.9-2.9-3-6.8-4.1-10.5c-0.1-0.4-0.1-0.7-0.3-1.1c-0.9-2.7-2-5.6-3.3-8.2c1.6-1.5,3.4-2.8,5.6-3.8
						c0.7,2.1,1.5,4.2,2.4,6.2c4.2,8.5,13.3,10.6,22.1,9.4c3.2-0.4,6.2-1.1,9.1-2c1.3-0.4,2.4-0.8,3.6-1.5c0.3-0.1,0.5-0.3,0.8-0.4
						c1.1,0.9,1.5,2.9,2.3,4.2c1.3,2.1,3,4,4.6,6c1.1,1.3,2.4,2.9,2.8,4.6C109.7,724.1,108.9,725.5,108.1,727.3z"/>
					<path class="st26" d="M91.6,692.7c-0.3-0.3-0.7-0.4-0.9-0.5c-1.6-0.8-3.2-1.3-5-1.2c-4.9,0.1-10.3,0.5-15.1,1.6
						c-3,0.7-6.4,1.7-9.3,3.3c-2.1,1.1-4,2.4-5.6,3.8c-0.4,0.3-0.7,0.7-0.9,0.9c-0.8-1.3-2.9-3.7-2.9-5.3c0-0.3,0.1-0.7,0.3-0.9
						c0.4-1.2,1.6-2.5,2.3-3.3c1.2-1.5,2.5-2.8,4.1-3.7c5.4-3.7,12.7-4.5,19.1-5.3c2.8-0.3,8.2-1.3,11,0.4c0.4,0.3,0.7,0.4,0.9,0.8
						c0.7,0.7,1.2,1.9,1.6,3C91.9,688.3,92.2,691,91.6,692.7z"/>
					<path class="st26" d="M151.9,708.8c-0.3,0.9-0.4,2-1.1,2.8c-1.6,1.9-4.4,2.1-6.6,2.8c-3.4,0.9-7.4,0.9-11,0.8
						c-2.9-0.1-5.7-0.4-8.6-0.4c-3-0.1-6.4,0-9.4-0.4c-4.8-0.7-9-1.9-12.3-5.6c-1.7-2-3.3-4.1-5.3-6c-0.5-0.5-1.5-1.5-2.4-2
						c-0.4-0.7-0.9-1.5-1.2-2.1c1.2-1.1,2.4-2,3.6-2.9c1.2-1.1,2.1-2.1,3.2-3.3c2.9,2.4,6.4,4.5,9.8,5.8c3.7,1.5,7.6,1.3,11.5,1.3
						c1.2,0,4.5,0.1,4.6-1.1c0,0-0.5-0.5-1.3-1.3c1.2,0.4,2.4,0.9,3.4,1.3c5.3,2.4,11.1,3.4,16.7,5.2
						C148.1,704.6,152.9,705,151.9,708.8z"/>
					<path class="st2" d="M98.7,707.9c-1.2,0.5-2.3,1.1-3.6,1.5c-3,0.9-6.1,1.6-9.1,2c-8.9,1.2-17.9-0.9-22.1-9.4
						c-1.1-2-1.7-4.1-2.4-6.2c2.9-1.6,6.2-2.7,9.3-3.3c4.8-1.1,10.2-1.3,15.1-1.6c1.9-0.1,3.4,0.4,5,1.2c0.9,2.1,2.3,4.4,3.2,6.4
						c0,0.1,0.1,0.1,0.1,0.3c0.4,0.8,0.8,1.5,1.2,2.1C96.5,702.9,98.1,705.3,98.7,707.9z"/>
					<path class="st26" d="M113.2,682.1c-0.4,0.1-0.7,0.3-1.1,0.4c-1.9,0.9-3.4,2.1-5,3.4c-1.2,1.1-2.3,2.1-3.4,3.2
						c-1.1,1.1-2,2.1-3,3.2c-0.9,1.2-2,2.3-3.2,3.3c-1.2,0.9-2.4,2-3.6,2.9c0-0.1-0.1-0.1-0.1-0.3c-0.9-1.9-2.3-4.1-3.2-6.4
						c0.4,0.1,0.7,0.4,0.9,0.5c0.5-1.7,0.1-4.4-0.7-6.5c0.7-0.9,1.2-1.9,2-2.5c1.9-1.6,4.1-3,6.2-4.4c2.1-1.3,4.2-2.5,6.5-3.7
						c0.5-0.3,0.9-0.4,1.2-0.5c1.2-0.4,1.5,0.3,2.7,1.9C110.8,678.5,112.6,680.2,113.2,682.1z"/>
					<path class="st34" d="M59.3,708.7c-1.7,0.5-5.2,0.1-6.5,0.1c-2.3,0-2.7,0-2.7-2.4c0-2.7-0.3-5-0.8-7.7
						c-0.5-3.3-1.5-6.4-2.4-9.4c1.6,1.7,3.6,3.2,5.2,4.9c-0.1,0.3-0.3,0.7-0.3,0.9c0,1.6,2.1,3.8,2.9,5.3c0.3-0.4,0.7-0.7,0.9-0.9
						c1.3,2.7,2.4,5.6,3.3,8.2C59.2,708.1,59.2,708.3,59.3,708.7z"/>
					<path class="st35" d="M126.6,698.6c-0.1,1.2-3.4,1.1-4.6,1.1c-4,0-7.8,0-11.5-1.3c-3.3-1.3-6.9-3.3-9.8-5.8
						c0.9-1.1,1.9-2.3,3-3.2c1.2-1.1,2.3-2.3,3.4-3.2c1.6-1.3,3.2-2.5,5-3.4c2.9,3.7,6.2,7.4,9.4,10.9c0.8,0.8,2.5,2.7,3.7,3.8l0,0
						C126.1,698,126.6,698.6,126.6,698.6z"/>
					<path class="st35" d="M106.9,674.9c-0.3,0.1-0.7,0.3-1.2,0.5c-2.1,1.2-4.4,2.4-6.5,3.7c-2,1.3-4.4,2.8-6.2,4.4
						c-0.8,0.7-1.5,1.6-2,2.5c-0.4-1.2-0.9-2.3-1.6-3c-0.3-0.3-0.5-0.5-0.9-0.8c-0.5-1.9-0.5-5-0.7-6.5c-0.3-2.7-0.4-5.3-0.3-8
						c0.1-3.7,0.5-7.2,0.8-11c1.2-1.6,3.7-2.7,4.4-4.5c0.3-0.7,0.3-1.7,0.1-2.5c2.4,0,4.8,0,7-0.1c0.1,8,1.2,15.6,5.3,22.7
						C105.8,673.2,106.3,674.1,106.9,674.9z"/>
					<path class="st26" d="M108.9,606.7c-0.7,7.2-1.7,14-1.6,21.2c0,2.5,0.3,5,0.4,7.6c-0.7-3.2-1.2-6.4-1.5-9.5
						c-0.4-3.7-0.4-7.7-0.4-11.4c0-4.9,0-9.8,0-14.7l0,0c0.4-0.9,0.7-1.9,1.1-2.8c1.6-4.8,3.4-9.5,5.2-14.3
						C110.8,590.6,109.7,598.6,108.9,606.7z"/>
					<path class="st34" d="M108.1,641.9c0,2.1-0.4,4.9-0.1,7.2c-2.7,0.4-5.3,0.5-8,0.7c-2.4,0.1-4.8,0.1-7,0.1c0-0.4,0-0.8,0-1.2
						c0-2.1,0.1-4.2,0.4-6.4c0.3-4,1.1-8,2-11.9c1.5-5.6,3-11.1,5-16.4c1.7-4.8,3.8-9.4,5.7-14.2c0,4.9,0,9.8,0,14.7
						c0,3.8,0,7.7,0.4,11.4c0.4,3.2,0.9,6.4,1.5,9.5c0,0.5,0.1,1.2,0.1,1.7C107.9,638.7,108.1,640.5,108.1,641.9z"/>
				</g>
			</g>
			<g>
				<path class="st11" d="M99.8,323.9c-4.4,0.8-8.6,1.5-13,2c-2.1,0.4-4.4,0.5-6.5,0.8s-4.4,0.5-6.5,0.8c-4.4,0.5-8.6,1.2-13,2.1
					c-4.2,0.9-8.5,2.1-12.6,3.7c2-1.1,4-2,6-2.8c2.1-0.8,4.2-1.5,6.4-2c4.2-1.1,8.6-1.9,13-2.4s8.7-0.8,13.1-1.2
					C91.1,324.4,95.5,324,99.8,323.9z"/>
			</g>
			<g>
				<path class="st11" d="M145.2,537.8c-3.8,2.1-8.1,3.3-12.2,4.4l-6.4,1.6c-2.1,0.5-4.1,0.9-6.2,1.6c-8.5,2.4-17.2,3-26,3.4
					l-13,0.5c-4.4,0.1-8.6,0.5-13,0.8s-8.7,0.4-13.1,0.1c-4.4-0.4-8.7-1.1-12.7-2.8c4.2,1.2,8.5,1.6,12.7,1.5
					c4.2,0,8.6-0.4,12.9-0.9c4.2-0.5,8.6-0.9,13-1.2s8.6-0.4,13-0.7c8.6-0.4,17.2-0.9,25.6-2.8c4.2-0.9,8.6-1.7,12.7-2.5
					C136.8,540.3,141.1,539.4,145.2,537.8z"/>
			</g>
		</g>
		<g>
			<path class="st11" d="M180.2,526.8c-2.5,1.5-5.6,1.9-8.5,2l-8.7,0.3c-2.9,0-5.8,0.1-8.7,0h-4.4c-1.5-0.1-2.9,0-4.4,0.1
				c1.3-0.5,2.9-0.7,4.4-0.8l4.4-0.3c2.9-0.1,5.8-0.3,8.7-0.4h4.4c1.5,0,2.9,0,4.4,0.1c1.5,0,2.9,0,4.4-0.1
				C177.4,527.6,178.8,527.3,180.2,526.8z"/>
		</g>
		<g>
			<path class="st11" d="M140.5,450.8c1.1,3.4,2.1,7,3,10.5c0.9,3.6,1.6,7.2,2.1,10.7c1.1,7.3,1.3,14.6,1.3,21.9l-0.1,11
				c0,3.6-0.1,7.3-0.4,11c-0.1,3.7-0.4,7.3-0.5,11c-0.1,3.6-0.4,7.3-0.8,10.9c0.1-7.3,0.1-14.6,0.3-21.9c0.3-7.3,0.3-14.6,0.3-21.9
				c0.1-7.3-0.1-14.6-0.9-21.7C144,465,142.3,457.9,140.5,450.8z"/>
		</g>
	</g>
</g>
</svg>
